<?xml version="1.0" encoding="utf-8"?>
<!-- Generator: Adobe Illustrator 23.0.5, SVG Export Plug-In . SVG Version: 6.00 Build 0)  -->
<svg version="1.1" id="Layer_1" xmlns="http://www.w3.org/2000/svg" xmlns:xlink="http://www.w3.org/1999/xlink" x="0px" y="0px"
	 viewBox="0 0 600 200" style="enable-background:new 0 0 600 200;" xml:space="preserve">
<style type="text/css">
	.st0{fill:#FFFFFF;}
	.st1{fill:#720148;}
	.st2{fill:#FFE3CC;}
	.st3{font-family:'ElMessiri-Bold';}
	.st4{font-size:114.4877px;}
</style>
<g id="layer1" transform="translate(-317.55875,1048.9015)">
	<g id="g3861" transform="matrix(2.0086469,0,0,2.0086469,-1890.9288,644.28405)">
		<path id="path3021" class="st0" d="M1154.9-829c-0.1,0-0.3,0.1-0.4,0.2c-0.2,0.2-23.5,32.7-28.9,42.3c0.1,0,0.3,0.1,0.4,0.1
			c0.8,0.3,1.7,0.7,2.7,1.2c1.1,0.6,2.4,1.5,3.7,2.6c5.8-9.5,22.7-45.5,22.9-45.8c0.1-0.3,0-0.5-0.1-0.6c0,0,0,0,0,0
			C1155-829,1155-829,1154.9-829L1154.9-829z M1125-785.3c-0.1,0.2-0.2,0.4-0.2,0.5c-2,4.8-4.9,10.6-5.8,12.9
			c1.6,0.2,2.9,1.1,3.8,2.3c1.5-1.8,5.1-7.2,8.4-11.2c0.1-0.2,0.3-0.3,0.4-0.6c-1.2-1-2.3-1.8-3.3-2.4c-1-0.6-1.9-1-2.8-1.3
			C1125.3-785.2,1125.2-785.2,1125-785.3L1125-785.3z"/>
		<g id="g3795">
			<path id="path3793_1_" class="st0" d="M1117.8-758.3C1117.8-758.3,1117.8-758.3,1117.8-758.3c-0.4,0-0.6,0-0.9-0.1
				c-0.3,0-0.6-0.1-0.9-0.1c-0.3,0-0.6-0.1-0.9-0.1c-0.3-0.1-0.6-0.1-0.8-0.2c-0.3-0.1-0.5-0.1-0.8-0.2c-0.1,0-0.2-0.1-0.4-0.1
				s-0.2-0.1-0.3-0.2c-0.1-0.1-0.2-0.1-0.3-0.2c-0.1-0.1-0.2-0.1-0.3-0.2c-0.1-0.1-0.2-0.1-0.2-0.2c-0.1-0.1-0.1-0.1-0.2-0.2
				c-0.1-0.1-0.1-0.2-0.1-0.2c0-0.1-0.1-0.2-0.1-0.3c0-0.1,0-0.2-0.1-0.3c0-0.1,0-0.2,0-0.3s0-0.2,0-0.3s0-0.2,0-0.3s0-0.2-0.1-0.3
				s-0.1-0.2-0.1-0.3c0-0.1-0.1-0.2-0.1-0.2c-0.1-0.1-0.1-0.2-0.2-0.2c-0.1-0.1-0.1-0.2-0.2-0.2c-0.1-0.1-0.1-0.1-0.2-0.2
				c-0.1-0.1-0.2-0.1-0.2-0.2c-0.1-0.1-0.2-0.1-0.3-0.2c0,0-0.1,0-0.1-0.1c-1.4,3-4.4,4.1-6.4,4.4c-0.7,0.1-1.3,1.2,0.3,1.7
				C1109.1-757.5,1112.5-757.2,1117.8-758.3L1117.8-758.3z"/>
			<path id="path3849_1_" class="st0" d="M1117.7-772.2c-3.3,0-6.1,2.4-6.6,5.5c-0.3,1.1-0.6,2.2-1.1,3.1c0,0,0.1,0,0.1,0.1
				c0.1,0.1,0.2,0.1,0.3,0.2c0.1,0.1,0.2,0.1,0.2,0.2c0.1,0.1,0.1,0.1,0.2,0.2c0.1,0.1,0.1,0.1,0.2,0.2c0.1,0.1,0.1,0.2,0.2,0.2
				c0.1,0.1,0.1,0.2,0.1,0.2c0,0.1,0.1,0.2,0.1,0.3s0.1,0.2,0.1,0.3s0,0.2,0,0.3s0,0.2,0,0.3c0,0.1,0,0.2,0,0.3c0,0.1,0,0.2,0.1,0.3
				s0.1,0.2,0.1,0.3s0.1,0.2,0.1,0.2c0.1,0.1,0.1,0.1,0.2,0.2c0.1,0.1,0.1,0.1,0.2,0.2c0.1,0.1,0.2,0.1,0.3,0.2
				c0.1,0.1,0.2,0.1,0.3,0.2c0.1,0.1,0.2,0.1,0.3,0.2c0.1,0.1,0.2,0.1,0.4,0.1c0.2,0.1,0.5,0.2,0.8,0.2c0.3,0.1,0.6,0.1,0.8,0.2
				c0.3,0.1,0.6,0.1,0.9,0.1c0.3,0,0.6,0.1,0.9,0.1c0.3,0,0.6,0.1,0.9,0.1c0,0,0.1,0,0.1,0c2.6-0.8,4.7-2,5.8-4
				c0.5-0.9,0.8-2,0.8-3.2C1124.4-769.1,1121.4-772.2,1117.7-772.2L1117.7-772.2z"/>
			<path id="path3793" class="st1" d="M1117.7-759.2C1117.7-759.2,1117.7-759.2,1117.7-759.2c-0.3,0-0.6,0-0.8-0.1
				c-0.3,0-0.5-0.1-0.8-0.1c-0.3,0-0.5-0.1-0.8-0.1c-0.3,0-0.5-0.1-0.7-0.2c-0.2-0.1-0.5-0.1-0.7-0.2c-0.1,0-0.2-0.1-0.3-0.1
				c-0.1,0-0.2-0.1-0.3-0.1s-0.2-0.1-0.3-0.1c-0.1-0.1-0.2-0.1-0.2-0.2c-0.1-0.1-0.1-0.1-0.2-0.2c-0.1-0.1-0.1-0.1-0.2-0.2
				s-0.1-0.1-0.1-0.2c0-0.1-0.1-0.1-0.1-0.2c0-0.1,0-0.2,0-0.2c0-0.1,0-0.2,0-0.3c0-0.1,0-0.2,0-0.3s0-0.2,0-0.2
				c0-0.1,0-0.2-0.1-0.2c0-0.1-0.1-0.2-0.1-0.2c0-0.1-0.1-0.1-0.1-0.2s-0.1-0.1-0.1-0.2c-0.1-0.1-0.1-0.1-0.2-0.2s-0.1-0.1-0.2-0.2
				c-0.1-0.1-0.1-0.1-0.2-0.2c-0.1-0.1-0.2-0.1-0.2-0.2c0,0-0.1,0-0.1-0.1c-1.2,2.6-3.1,4.2-6.9,5c-0.6,0.1-0.4,0.9,0,0.9
				C1108.6-758,1113.8-758,1117.7-759.2L1117.7-759.2z"/>
			<path id="path3849" class="st2" d="M1117.6-771.3c-2.9,0-5.3,2.1-5.8,4.8c-0.3,1-0.6,1.9-0.9,2.7c0,0,0.1,0,0.1,0.1
				c0.1,0.1,0.2,0.1,0.2,0.2c0.1,0.1,0.1,0.1,0.2,0.2c0.1,0.1,0.1,0.1,0.2,0.2c0.1,0.1,0.1,0.1,0.2,0.2c0.1,0.1,0.1,0.1,0.1,0.2
				s0.1,0.1,0.1,0.2c0,0.1,0.1,0.1,0.1,0.2s0,0.2,0.1,0.2s0,0.2,0,0.2s0,0.2,0,0.3c0,0.1,0,0.2,0,0.3c0,0.1,0,0.2,0,0.2
				c0,0.1,0.1,0.2,0.1,0.2c0,0.1,0.1,0.1,0.1,0.2c0.1,0.1,0.1,0.1,0.2,0.2s0.1,0.1,0.2,0.2s0.2,0.1,0.2,0.2c0.1,0.1,0.2,0.1,0.3,0.1
				c0.1,0,0.2,0.1,0.3,0.1c0.1,0,0.2,0.1,0.3,0.1c0.2,0.1,0.4,0.1,0.7,0.2c0.2,0.1,0.5,0.1,0.7,0.2c0.3,0,0.5,0.1,0.8,0.1
				c0.3,0,0.5,0.1,0.8,0.1c0.3,0,0.5,0,0.7,0.1c0,0,0,0,0.1,0c2.3-0.7,4.1-1.8,5.1-3.5c0.4-0.8,0.7-1.8,0.7-2.8
				C1123.5-768.7,1120.9-771.3,1117.6-771.3L1117.6-771.3z"/>
		</g>
	</g>
</g>
<text transform="matrix(1 0 0 1 140.688 142.3818)" class="st0 st3 st4">WeBrush</text>
</svg>
