<?xml version="1.0" encoding="utf-8"?>
<!-- Generator: Adobe Illustrator 23.0.5, SVG Export Plug-In . SVG Version: 6.00 Build 0)  -->
<svg version="1.1"
	 id="svg2" inkscape:export-filename="./Portal Design - Logotipo Quadrado - Somente Ãcone - 1.0.0 - 2048x2048.png" inkscape:export-xdpi="90" inkscape:export-ydpi="90" inkscape:version="0.48.5 r10040" sodipodi:docname="Portal Design - Logotipo Horizontal - Ãcone + Nome - 1.0.0.svg" xmlns:cc="http://creativecommons.org/ns#" xmlns:dc="http://purl.org/dc/elements/1.1/" xmlns:inkscape="http://www.inkscape.org/namespaces/inkscape" xmlns:rdf="http://www.w3.org/1999/02/22-rdf-syntax-ns#" xmlns:sodipodi="http://sodipodi.sourceforge.net/DTD/sodipodi-0.dtd" xmlns:svg="http://www.w3.org/2000/svg"
	 xmlns="http://www.w3.org/2000/svg" xmlns:xlink="http://www.w3.org/1999/xlink" x="0px" y="0px" viewBox="0 0 2048 2048"
	 style="enable-background:new 0 0 2048 2048;" xml:space="preserve">
<style type="text/css">
	.st0{fill:#FFFFFF;}
	.st1{fill:#720148;}
	.st2{fill:#FFE3CC;}
</style>
<sodipodi:namedview  bordercolor="#666666" borderlayer="true" borderopacity="1.0" fit-margin-bottom="0" fit-margin-left="0" fit-margin-right="0" fit-margin-top="0" id="base" inkscape:bbox-nodes="true" inkscape:bbox-paths="true" inkscape:current-layer="layer1" inkscape:cx="78.949786" inkscape:cy="-2233.8547" inkscape:document-units="px" inkscape:object-nodes="true" inkscape:object-paths="true" inkscape:pageopacity="0.0" inkscape:pageshadow="2" inkscape:snap-bbox="true" inkscape:snap-bbox-edge-midpoints="true" inkscape:snap-bbox-midpoints="true" inkscape:snap-center="true" inkscape:snap-global="false" inkscape:snap-intersection-paths="true" inkscape:snap-midpoints="true" inkscape:snap-nodes="false" inkscape:snap-object-midpoints="true" inkscape:snap-page="true" inkscape:snap-smooth-nodes="true" inkscape:window-height="744" inkscape:window-maximized="1" inkscape:window-width="1321" inkscape:window-x="45" inkscape:window-y="24" inkscape:zoom="0.04" pagecolor="#ffffff" showgrid="false" showguides="true">
	<sodipodi:guide  id="guide3895" orientation="2048.0,0" position="0.0,0"></sodipodi:guide>
	<sodipodi:guide  id="guide3897" orientation="2048.0,0" position="1024.0,0"></sodipodi:guide>
	<sodipodi:guide  id="guide3899" orientation="2048.0,0" position="2048.0,0"></sodipodi:guide>
	<sodipodi:guide  id="guide3901" orientation="0,2048.0" position="0,0.0"></sodipodi:guide>
	<sodipodi:guide  id="guide3903" orientation="0,2048.0" position="0,1024.0"></sodipodi:guide>
	<sodipodi:guide  id="guide3905" orientation="0,2048.0" position="0,2048.0"></sodipodi:guide>
</sodipodi:namedview>
<g id="layer1" transform="translate(-317.55875,1048.9015)" inkscape:groupmode="layer" inkscape:label="Camada 1">
	<g id="g3861" transform="matrix(2.0086469,0,0,2.0086469,-1890.9288,644.28405)">
		<path id="path3021" inkscape:connector-curvature="0" class="st0" d="M1975.5-842.9c-1.7,0-3.6,0.8-5.3,3.1
			c-2.5,3.4-323.9,449.8-397.1,581.6c1.7,0.6,3.5,1.2,5.3,1.8c11.3,4,23.8,9.5,37.1,17c15.8,8.9,32.9,20.6,50.6,36
			c80.4-130.3,313-626.1,314.8-629.9c1.7-4.3,0-7.4-1.7-8.6c-0.1-0.1-0.2-0.1-0.3-0.2C1977.9-842.6,1976.8-843,1975.5-842.9
			L1975.5-842.9z M1564.1-241.3c-1.2,2.6-2.3,4.9-3.1,7c-27.2,66.5-68,146.4-79.3,176.9c21.6,3.3,40.4,15.3,52.8,32.2
			c21.1-24.6,70.8-98.8,115.5-154.5c1.7-2.1,3.6-4.7,5.6-7.6c-16-14.2-31.4-25.1-45.7-33.4c-13.8-8.1-26.6-13.8-37.9-17.8
			C1569.3-239.7,1566.7-240.6,1564.1-241.3L1564.1-241.3z"/>
		<g id="g3795">
			<path id="path3793_1_" inkscape:connector-curvature="0" class="st0" d="M1465.8,130.6c-0.4,0-0.7,0-1.1,0
				c-3.8-0.2-7.8-0.6-11.8-0.9s-8-0.8-12.1-1.4c-4-0.5-8.1-1.2-12-1.9c-4-0.7-7.8-1.6-11.6-2.5c-3.7-0.9-7.3-2-10.7-3.2
				c-1.7-0.6-3.4-1.2-4.9-1.9s-3.1-1.3-4.6-2.1c-1.5-0.7-2.8-1.5-4.2-2.3c-1.3-0.8-2.6-1.6-3.7-2.5c-1.2-0.9-2.2-1.8-3.2-2.7
				c-1-0.9-1.9-1.9-2.6-3c-0.8-1-1.5-2.1-2-3.2c-0.6-1.1-1-2.3-1.4-3.5s-0.6-2.5-0.7-3.7c-0.1-1.3-0.1-2.6,0.1-4s0.2-2.8,0.2-4.1
				c0-1.3-0.2-2.6-0.4-3.9c-0.2-1.3-0.5-2.5-0.9-3.7s-0.9-2.4-1.4-3.5c-0.5-1.2-1.2-2.3-1.9-3.4c-0.7-1.1-1.4-2.2-2.3-3.2
				c-0.8-1-1.7-2.1-2.7-3s-1.9-2-3-2.9s-2.1-1.8-3.3-2.7c-1.1-0.9-2.4-1.7-3.6-2.6c-0.5-0.3-1.1-0.6-1.6-1
				c-18.6,41.3-61,56.4-88.4,60c-9.8,1.3-17.6,16.9,3.5,22.8C1345.5,140.5,1393,145,1465.8,130.6L1465.8,130.6z"/>
			<path id="path3849_1_" inkscape:connector-curvature="0" class="st0" d="M1464.1-60.7c-45.5,0-83.3,32.8-91.1,76
				c-4.2,15.7-8.9,29.7-14.6,42.4c0.5,0.3,1.1,0.6,1.6,1c1.2,0.8,2.4,1.7,3.6,2.6c1.1,0.9,2.2,1.8,3.3,2.7c1.1,0.9,2,1.9,3,2.9
				s1.8,2,2.7,3c0.8,1,1.6,2.1,2.3,3.2c0.7,1.1,1.3,2.2,1.9,3.4c0.5,1.2,1,2.3,1.4,3.5s0.7,2.4,0.9,3.7c0.2,1.3,0.4,2.6,0.4,3.9
				s0,2.7-0.2,4.1s-0.2,2.7-0.1,4s0.3,2.5,0.7,3.7s0.8,2.4,1.4,3.5s1.3,2.2,2,3.2c0.8,1,1.7,2,2.6,3s2,1.9,3.2,2.7
				c1.2,0.9,2.4,1.7,3.7,2.5c1.3,0.8,2.7,1.5,4.2,2.3c1.5,0.7,3,1.4,4.6,2.1s3.2,1.3,4.9,1.9c3.4,1.2,7,2.2,10.7,3.2
				c3.7,0.9,7.6,1.8,11.6,2.5s8,1.4,12,1.9c4,0.5,8.1,1,12.1,1.4s7.9,0.7,11.8,0.9c0.4,0,0.7,0,1.1,0c35.7-11,64.4-28.2,80-55.2
				c6.9-13,10.8-27.8,10.8-43.5C1556.6-19.3,1515.2-60.7,1464.1-60.7L1464.1-60.7z"/>
			<path id="path3793" inkscape:connector-curvature="0" class="st1" d="M1464.6,117.7c-0.3,0-0.6,0-0.9,0
				c-3.3-0.2-6.8-0.5-10.3-0.8s-7-0.7-10.5-1.2s-7.1-1-10.5-1.7c-3.5-0.6-6.9-1.4-10.1-2.2c-3.3-0.8-6.4-1.7-9.4-2.8
				c-1.5-0.5-2.9-1.1-4.3-1.6c-1.4-0.6-2.7-1.2-4-1.8c-1.3-0.6-2.5-1.3-3.6-2s-2.2-1.4-3.2-2.2c-1-0.8-1.9-1.5-2.8-2.4
				c-0.9-0.8-1.6-1.7-2.3-2.6c-0.7-0.9-1.3-1.8-1.8-2.8s-0.9-2-1.2-3c-0.3-1.1-0.5-2.1-0.6-3.3s-0.1-2.3,0.1-3.5
				c0.1-1.2,0.2-2.4,0.2-3.6s-0.2-2.3-0.3-3.4c-0.2-1.1-0.5-2.2-0.8-3.2c-0.3-1.1-0.8-2.1-1.2-3.1c-0.5-1-1-2-1.6-3s-1.3-1.9-2-2.8
				s-1.5-1.8-2.3-2.7s-1.7-1.7-2.6-2.5s-1.9-1.6-2.9-2.4c-1-0.8-2.1-1.5-3.1-2.3c-0.4-0.3-1-0.6-1.4-0.8
				c-16.2,36.1-42.1,58.4-95.3,68.3c-8.7,1.6-5.8,12.2,0,12.2C1338.4,134.6,1410.6,134.3,1464.6,117.7L1464.6,117.7z"/>
			<path id="path3849" inkscape:connector-curvature="0" class="st2" d="M1463.1-49.3c-39.7,0-72.7,28.6-79.5,66.4
				c-3.7,13.7-7.8,26-12.7,37c0.5,0.3,1,0.5,1.4,0.8c1.1,0.7,2.1,1.5,3.1,2.3s2,1.6,2.9,2.4s1.8,1.7,2.6,2.5
				c0.8,0.9,1.6,1.7,2.3,2.7c0.7,0.9,1.4,1.8,2,2.8s1.1,2,1.6,3s0.9,2,1.2,3.1c0.3,1.1,0.6,2.1,0.8,3.2c0.2,1.1,0.3,2.2,0.3,3.4
				c0,1.2,0,2.4-0.2,3.6c-0.1,1.2-0.2,2.4-0.1,3.5s0.3,2.2,0.6,3.3c0.3,1.1,0.7,2.1,1.2,3c0.5,1,1.1,1.9,1.8,2.8
				c0.7,0.9,1.5,1.8,2.3,2.6s1.8,1.6,2.8,2.4s2.1,1.5,3.2,2.2s2.4,1.4,3.6,2c1.3,0.6,2.6,1.2,4,1.8c1.4,0.6,2.8,1.1,4.3,1.6
				c3,1,6.1,1.9,9.4,2.8c3.3,0.8,6.7,1.6,10.1,2.2c3.5,0.6,7,1.2,10.5,1.7s7.1,0.9,10.5,1.2c3.5,0.3,6.9,0.6,10.3,0.8
				c0.3,0,0.6,0,0.9,0c31.1-9.6,56.2-24.6,69.8-48.2c6-11.3,9.5-24.3,9.5-38C1543.9-13.2,1507.8-49.3,1463.1-49.3L1463.1-49.3z"/>
		</g>
	</g>
</g>
</svg>
