<svg version="1.1" id="Layer_1" xmlns="http://www.w3.org/2000/svg" xmlns:xlink="http://www.w3.org/1999/xlink" x="0" y="0" viewBox="0 0 615 591" xml:space="preserve"><style>.st0{fill:#fff}.st6{opacity:.27}.st6,.st8{fill:#3f2b96}.st9{fill:#eff0f1}.st10{fill:#e6e6f4}.st12{fill:#ffbcc6}.st15{opacity:.29;fill:#3f2b96}</style><g id="Design"><circle class="st0" cx="136.5" cy="280.4" r="128.3"/><linearGradient id="SVGID_1_" gradientUnits="userSpaceOnUse" x1="136.513" y1="418.06" x2="136.513" y2="123.666"><stop offset="0" stop-color="#3f2b96"/><stop offset=".103" stop-color="#3f2b96" stop-opacity=".908"/><stop offset="1" stop-color="#3f2b96" stop-opacity=".1"/></linearGradient><circle cx="136.5" cy="280.4" r="128.2" fill="url(#SVGID_1_)"/><radialGradient id="SVGID_2_" cx="142.043" cy="175.559" r="223.541" gradientUnits="userSpaceOnUse"><stop offset="0" stop-color="#3f2b96"/><stop offset="1" stop-color="#3f2b96" stop-opacity=".1"/></radialGradient><circle cx="136.5" cy="280.4" r="128.3" fill="url(#SVGID_2_)"/><radialGradient id="SVGID_3_" cx="142.043" cy="175.559" r="223.541" gradientUnits="userSpaceOnUse"><stop offset="0" stop-color="#3f2b96"/><stop offset=".996" stop-color="#3f2b96" stop-opacity="0"/></radialGradient><circle cx="136.5" cy="280.4" r="128.3" fill="url(#SVGID_3_)"/><defs><circle id="SVGID_4_" cx="136.5" cy="280.4" r="128.3"/></defs><clipPath id="SVGID_5_"><use xlink:href="#SVGID_4_" overflow="visible"/></clipPath><radialGradient id="SVGID_6_" cx="139.124" cy="255.053" r="143.977" gradientUnits="userSpaceOnUse"><stop offset="0" stop-color="#fdffff" stop-opacity=".3"/><stop offset="1" stop-color="#fff" stop-opacity=".6"/></radialGradient><path d="M99.7 213l.5-1.6v-3.5s-1.6.2-2 0c-.3-.2-.1-1.1-.1-1.1l1.6-1.4-3.2.7-1.2 1.8-3.6 2.2 1.6.9 1 .7 1.6.2v-1s1.8-.5 2.3.2l-.2 1.3 1.7.6zm-40 50c-1.5-.7-3 0-3 0-.2 2.5-2.3 2.5-2.3 2.5L57 267l2.6-1 3.5-1.2 3 2.1c2.2-2.7 0-4.3 0-4.3l-6.4.4zm56.1 50.3l-2.6-.5-4.4-2.8h-3.9l-3.4-1.8h-1.3s.3-1.9-.1-2c-.4-.1-3.4-1.9-3.4-1.9l-2.3.8v-1.6l-1.6-.7h-1.3l.1-1.3s1.2-2.4.5-2.8c-.7-.4-3.1-5.8-3.1-5.8l-3.6-2h-3.9l-3.4-3.2-3.4-2.7-1.9-3.8-2-1.3s-2.3 1.5-2.8 1.3c-.5-.1-3.9-1.3-3.9-1.3l-2.8-.8-3.5 1.6v3.6l-1.3-.9v-1.3l1.2-2.3.5-1.6-1.2-.5-1.6 1.9-4 1.2-.8 1.8-1.9 1.8-.5 1.5-3-2.4s-2.7 1.3-3.1 1.3-3.1-2-3.1-2l-1.5-2.8.8-3.8.7-3.9-2.6-1.6h-3.5l-2.8-.8 1.3-2 1.5-3 1.3-2.2s.4-1 .8-1.2c1.7-.9 0-1.8 0-1.8s-3.6-.3-4.2 0c-.5.3-2 1.1-2 1.1v3.1l-2.7 1.2-4.2.9-2.8-2.8c-.4-.4-1.3-4.9-1.3-4.9l1.8-1.6.8-1.3.1-3.2 1.8-1.5.7-1.8 2-1.5 1.9-1.8 1.8-.5 2.4.5c.1-.9 4.6-.5 4.6-.5l1.8-.1-.1-1c.8-.7 3.5 0 3.5 0l3.7-.3c.8.2 1.5 1.8 1.5 1.8l-1.6 1.5 1.1 3.2 1.1 1.5-.4 1.5 2.6-.4.1-2.6.1-3.1-.4-3.4 2.4-5.2 9.8-6.3-.1-2.3.7-3.2 1.8.6 3.1-3.7 4-1.3 2.4-1.6 1.2-2.4 4.4-1.3 4.4-2.3-2 2.2-.3 1.9 2.4-.5 2.2-1.2 1.9-.5 1.8-.5.5-1.2h-1.2l-1.9-.7c-1.2-.9-2.7-2-2.7-2-.1-.7.4-1.2.4-1.2l1.2-1.1s.5-.7.1-.7-3.4-.6-3.4-.6l-3.2 1.3h-1.9l2.3-2h2.6l2.8-.7h5.9l3.2-.7 2.3-1.3 2.8-.3.8-3-1.9-1.6-2.7-1.4-.5-3.2-1.5-3.2h-1.3l-.1 1.8H89l-.5 1.1-.8.5-1.3.3-1.2-1.2 1.6-1.8-1.9-1.8-2.3-1.2h-2.4l-1.8.5-2.4 2.8-1.9 1.6.5 1.5-.7 2.2.4.9-2.3.8-2.6.5-1.1-.3-.8 1.1 1.5 3-1.5 1h-2l-1.8-2.1-.4-1.2 1.2-.7-.9-1.6-2.8-.1-3.8-2.3h-1.8l-.4-1.4-1.2-.5 1.8-2 2.6-1.5 4.4-1.6 1.6-.5 3.5-.8 2.4-1.3 2.2-1.9H75l3.4-.9h2.2l.9-2.5h-4.3l-1.6 1.2h-2.8c-.7-.8-2.2-1.2-2.2-1.2v-.9l1.5-1.3 1.9-1.5c.9-1.1 1.6-2.8 1.6-2.8l3.9 1.3 3-.2 2-.1 2.6.1 1.5.5c-.4 1.1-2 .3-2 .3l-4.9.5-2.2 1.2.7-1.5-2.3.1-2.7 1.8 1.9.9h4.4l2.4.9 2-.8 2.2.8 2.6.8-3.1 1-2.7 1.3-2.7.6-2.2.8.9 1.9 5.7-.1 3.5 2.2h3l.1-1.2.7-1.2 1.3-.3-1.1-1.5-.4-1.1h1.6l1.3 1c1.1.8 3.4-1 3.4-1l3.4-1.3-4.2-1.2-1.3-1.3c.4-.8-4.4-2-4.4-2l-3.8-2.3-.9-.9h-3.2l2.6-1.1 6.3.7 3.2-.7 7.4-1.9 5-1.2 3.6-1.3-4.2-.7s-3 .8-3.4.8c-.4 0-3.9.3-4.3.3h-9.4l-3 .7 2.7.7-1.6.9h-2.8l-1.6.5 2.2-1.6-2.3-.5-2.8.7-3.5 2 1.6.5 2.3-.9 1.9.4-2 .5-.8 1.1 1.3.4-3.6.3-6.3-1.1-2.6 3.1-5.1 3.6 1.3 1.1-.9.6-1.2.6-3.5-.6-4.9 1.3-8.9 2.2-29.6 28.6-12 14.5-6.9 41.2 12.1-4 1.9 2 3.2.5 2.2 1.3 2.3-.9 1.9 1.9 4.2 2.3 4 .5 1.2 4s2.8 2.6 2.7 3.1c-.1.5.9 3 1.5 3 .5 0 3.9 1.8 3.9 1.8l2.3.3.9-2h2v2l.9 1.1.3 3.1.8 2.3-1.3 1.5-2.2 2.7-2.7 3.8.3 3.6-.7 2.4 2 .7-1.8 2.4s.9 2.7.9 3.1 1.5 3.4 1.5 3.4l1.9 1.6.8 2.7 4.6 9.4 3.2 2.7 4.7 2.4s3 3.2 3.1 3.6c.1.4 1.6 6.3 1.6 6.3l-.1 3.4.9 3.5.3 3.9.4 5.4 1.3 4.3 1.2 5.7-1.5 1.9.9 2.8 1.1 4.1 1.9 2-.1 3.2.4 3.2 8.4 8.9 1.6 1.8v-4.2l2.7-1.6v-2.5l-2.7-1.2v-1.9l1.3-1.2 1.3-2.2v-1.8c1.1-.4 0-1.6 0-1.6h-1.9l-.1-1.8h1.8l.7 1.1 1.4-1.1-1.1-2.2c.3-.7 2.2 0 2.2 0l3.2-1.9 1.3-1.6v-2.2l-1.6-1.3-1.3-2.2h1.6s2.4 1.2 3.2 0c.8-1.2 2-2.8 2-2.8l1.5-3.5s2.8-5.1 3.1-5.5c.3-.4 0-5.4 0-5.4l4.4-3.6h3l2.4-4 1.9-2.7v-4.5l.7-4.3-1.1-4.3 3.8-5 2.8-2.7-1.1-5-.3-2.8zm30-105.9l.9.5 1.2-1.1h1.7l1.6-.5.7-1-.3-1.4.7-.7c.1-1.1-1.7-1.9-1.7-1.9h-1l-1.2 1.4h-1.3l-.5 1.6.2 1.2-1.1.7v1.2zm8.2-10.2l-1.4.6v2.1l.2.5c.2.5.2 1.3.2 1.3l1 .7 1 .6.5.9s-.2.9-.7.9l-1.2.4.5.8s-.9.5-1 .8l.8.6-.8.8h-1.7v.9h3.5l1.5-.9 2.1.4s1.8-.4 2.1-.4l-.3-.4.5-.7.8-1-1.1-.5-1.2-.4.2-1.3-1.1-.9-1.8-1-.2-1.8.2-1.5h-1.8l-.4-.8 1.1-1H154zm10 6.6v-.6h1.2l.7-.5v-1.9l.9-.5-.3-1.5-1.5-.5-2.1.7v1.1l-1.3.2-.3 1 .9.4-1.5.8-.4.7 1.2 1.1 2.5-.5zm77.2 46.4l5.1 2.8 2.6-1 1.7 2.5 4.6 1 2 1 5.6-14.9-1.6-8-25.2-41.5-7.5-5.6h-9.1l-4.1.6-1 2-2.2-.7-1-1.9h-2l.9.9.7 1.4h-3.2v1.9l-2.3-.3-1.3-.2-.8.4.7.4 1 .2-.9.3-1.2-.4-1.5-.5-.4-1-1.1-.9-1.3-.2-.9-1.1 2 .2 1.7.8 1.5.2s.9-.2 1-.1c.1.2 2.1.4 2.1.4l1.2-.9-2-1.6-3.5-1s-5.9-.8-6.2-.8c-.3 0-2.5-.8-2.5-.8l-2.1-.5h-4.5l-6.9 1.3-3.8 2.4-4.5 4.1s-3.9.6-4.1.6c-.2.1-1.8 1.7-1.8 1.7l.9 2-.2.9.6.5.4.9.6.9 2.3-.3 2.5-1.4 1.9 1 1.5 2.5.3 1.5 1.7.3 1.2-1 1.2-.3.7-2 .1-1.6 1.7-.5v-.8l-.6-.4-.8-.5-.3-1.8 2.6-1.6s1.4-1.2 1.4-1.5.7-.9.7-.9 1.1.1 1.4.1l2.1.7.7.5-2.1 1-1.2 1.2-.9.6.8 2 2.2 1.1 2-.4 3.1-.2s3.6.7 3.7.8c.2.1-1 .5-1 .5l-1.4.4-.8.5-1.3-.7s-1.1-.7-1.8-.6c-.8.1-1.5.7-1.5.7l.8 1.3 1.2.8s-.5 1.5-.8 1.4c-.3-.1-.9-1.1-.9-1.1l-1.3-.5-.8.5.1 1.2-.3 1.7-1.4.9-1 .8-1.3-.8-1.7.5-3-.2-.7.6-1.1-.4s-2.6.1-2.8.2c-.2.1-1.7-.8-1.7-.8l-.7-1.5.8-1-.4-.4-.3-.8.6-.7-.8-.2-1.4 1.4-.1 1.3s.7 1.3.8 1.5c.1.2.1 1.2.1 1.2l-1.4.6-1.5.4.3.6 1.6.3-.5.9-.9.1-.4 1.1-.3.6-1.2-.3.1-.8.1-1-.5-.5-.7.8-.8 1-1.8.3-.8.7-.6 1.2-1.3.6-1.1.7-1.6-.8-.2.4.3.8-.4.4-2.1-.2-1.2-.2-.2 1.6 2.1.3 1 .9s.8.9.9.9c.2 0 1.3.3 1.3.3l-.4 2.5-1 2.3-4.2-.1-4.6-.1-1.5.6-.4 1.3.4 1.3-.8 2.6-.3 1.3s0 1.2.1 1.3c.1.2.8 1.3.8 1.3l-.5 1.9 1.5.4 2.5.2 1.3.7 1 .2 1.7-.7 2.5-.3 2.3-2-.4-2.4 1.5-1.8 3.1-2 1.3-.4-.2-2 1.8-1.1 1.8.6 1.2-.7 3.7-1.1 3.7 3.5 5.1 3.5s1.1 2.1 1.1 2.3c.1.2-.8 1.5-.8 1.5H180l-1.1.2s.3.8.6.8c.2 0 2.5 1.1 2.5 1.1l.7.6.4-.1-.1-1.1.2-1 .8.1s.8-.9.8-1.1c.1-.2.8-1.5.8-1.5l-.6-1.2.3-.8.9.1.1 1.2h.3l-.1-1.5-.9-.6-1.3-.8-.8-1.2-1.5-.4-1.7-1.2-.4-1.3-1.6-.8-.4-1.2.4-1.3 1-.2.1 1.2 1 .3.7-.4 1 1.8 2.1 1.2 1.6.9 1 .1 1.7 1.8.4 2.3 3.1 3.2.4 2.3 2.2 1.6.6-.5-.3-1.5 1.2-.7-.4-1-1.2-.5-.5-1 .2-1.6-.7-.8.7.1.5.6.8-1.1 1.3.1 1.3.6 1 1.3 1 1.6s-.7.4-.7.6c-.1.2.6 1.2.6 1.2l1.3 1.2 1 1.5 2-.1.2.9 1.5.2 1.4-.3.4-.9.6.8 1.6.6 1.4-.1 1.2-1.3 1.1.4.8.5-.3 1.1.7 2.3-1 2.3v3h-6.1l-2.3.9-3.8-1.9-2.5.3-4.2-1.5h-3.3l-1 .9.6 1.6-1.3 1.3-3.3-2-2.6.3-1-1.7-3.9-1.2-2.8-1.3-2-1 2.5-2.9-.7-2.5-1.7-1-10.3 1.2-4.1 1.6-2.6.1-2.8 1-3.3-.7-2.2 2.6-2.6 1.7-2.3 4.9.6 2.2-3 2.9-3 1.2-1.4 2.8s-3.2 7.1-3.5 7.7c-.3.6 0 4.2 0 4.2l1.3 4.2-3 7.1 1.2 3.5 1.6 3.2 4.2 5.9-.1 3 8.7 6.6 5.8-2.3 5.6 1.7 7-3.8s2.3 0 3 1.3c.7 1.3 1.2 2.5 3.8 2.5 2.6 0 3.9 2.9 3.9 2.9l-1.2 3.3.6 1.7-1.2 2.8 2.8 5.6 2 4.3 1.9 4.2.4 5.4-.4 3-3.3 5.8 1 9 1.2 2-.4 1.4 2 2.2 1.3 5.1-1.2 4.8 1.7 3.6s1.6 3.9 1.7 4.3c.1.4 1.2 1.9 1 2.6-.1.7-.6 2.6-.6 2.6l.6 2.9h7.4l3.5-1.2 8.5-8.7s2-2.5 2.2-2.9c.1-.4 1.3-5.8 1.3-5.8l6.1-2.5v-4.8l-1.3-3.8 3.2-3 8.5-4.9.7-3.8v-6.5l-1.6-4.9.4-3-1.6-1.3 2.8-4.1 1-5.4 4.1-2.5.9-2.5 7.4-7.7 2.3-7.3 2.2-4v-4.3l-2-.7-2.3 1.9-3.2.3-3.3.9-2.8-1.7.3-2.2-3.5-3.9-3.5-2-1.6-5.2-3.3-3.2-.3-4.1-2.5-3.6-3-6.8-3.2-3.2-.3-2.6 1.3.6 1.4 1.2.6 2.2c1.2 0 1.6-2.2 1.6-2.2l1 2.2 1 2.8 3.2 4.8 1.7.3 2 4.2-.1 1.9 5.8 5.9 1 5.5 1 2.5 1.9 1.9 8.7-2.3 1.6-1.4 3.8-1.2v-1.7l4.3-2.9 1.8-3.4 1-1.7 1.4-2-2.5-3.3-3.3-2.8-1.1-2.7-1.2.3-.9 2.6-3.3.9-1.7-1.2-.6-2.5-1.2.3-1.7-3.2-1.6-.9-2-3.3 1.4-1.6 4.5 4zm-67.8-21.3l.3-1.4v-2s-.6-.5-1.1-.5c-.5 0-.8.3-.8.3v2.2c.2.2 0 1.4 0 1.4h1.6zm0-6s.1-1-1.1-1l-.5 1.5.5 1.1h1.1v-1.6zm-39.5-39.5h5.4l3-4.3h6.8l1.1-2.7 4.2-2.2c2-1.7 0-4.8 0-4.8l-8.5-1.1-8.5 1.1L125 167l-7.6 3.5s-5.5 3-6.2 2.7c-.7-.2-4.4 0-4.4 0s2.7 2.5 3.9 2.7c1.2.2 2.7 0 2.7 0s0 2.4.5 3c1.7 2-1.8 3.5-1.8 3.5v2.3s.4 4.4 1.1 4.2c.7-.2 1.9 2.3 1.9 2.3l2.3 2.5h4.1l5.2-6.2 5.1-2.2 2.1-1.9zm106.5 147.5l-.7-1.8-.8.8-.7 1.5-1.5 1-.7 2-1 2.4-3.7 1.1-1.6 2.8-.4 4.6-1.3 2.2-1.5 1.6.6 2.7 1.1 1.2-1.1 1.4 1.1.9h3.5l2-3s1.6-3.4 1.6-3.7c0-.3.8-3.4.8-3.4l2.8-3.6v-4.9h1.9l-.6-3.5.2-2.3zM47.3 257.5l-4.2-1.4s-1.2.2-2.5.5c-1 .2-2.1.5-2.9.9l6 2H46l4 3.5h2.7s2.2-1 1.5-2.7l-3.5-1.2-3.4-1.6z" clip-path="url(#SVGID_5_)" fill="url(#SVGID_6_)"/><path d="M544.2 574c1.2 0 2.4-.6 3-1.7 1-1.7.4-3.8-1.3-4.7l-18-10.4c-1.7-1-3.8-.4-4.7 1.3-1 1.7-.4 3.8 1.3 4.7l18 10.4c.5.3 1.1.4 1.7.4zm-36.1-20.8c1.2 0 2.4-.6 3-1.7 1-1.7.4-3.8-1.3-4.7l-106.3-61.3c-1.7-1-3.8-.4-4.7 1.3-1 1.7-.4 3.8 1.3 4.7l106.3 61.3c.6.3 1.2.4 1.7.4zm16.3-7.2c1.2 0 2.4-.6 3-1.7 1-1.7.4-3.8-1.3-4.7l-10.8-6.2c-1.7-1-3.8-.4-4.7 1.3-1 1.7-.4 3.8 1.3 4.7l10.8 6.2c.5.3 1.1.4 1.7.4zm-28.9-16.6c1.2 0 2.4-.6 3-1.7 1-1.7.4-3.8-1.3-4.7l-75.6-43.7c-1.7-1-3.8-.4-4.7 1.3-1 1.7-.4 3.8 1.3 4.7l75.6 43.7c.6.2 1.2.4 1.7.4zm-44.5 7.2c1.2 0 2.4-.6 3-1.7 1-1.7.4-3.8-1.3-4.7l-18-10.4c-1.7-1-3.8-.4-4.7 1.3-1 1.7-.4 3.8 1.3 4.7l18 10.4c.5.3 1.1.4 1.7.4z" fill="#bdb8e0"/><path class="st6" d="M423.3 532.4l-200.9-116c-7.9-4.5-14.3-18.4-14.3-30.7V55.5c0-12.4 6.4-18.8 14.3-14.2l200.9 116c7.9 4.5 14.3 18.4 14.3 30.7v330.1c0 12.4-6.4 18.8-14.3 14.3z"/><path class="st6" d="M415.3 535.7l-200.9-116c-7.9-4.5-14.3-18.4-14.3-30.7V58.9c0-12.4 6.4-18.8 14.3-14.2l200.9 116c7.9 4.5 14.3 18.4 14.3 30.7v330.1c0 12.3-6.5 18.7-14.3 14.2z"/><path class="st6" d="M407.1 539.9l-200.9-116c-7.9-4.5-14.3-18.4-14.3-30.7V63.1c0-12.4 6.4-18.8 14.3-14.2l200.9 116c7.9 4.5 14.3 18.4 14.3 30.7v330.1c0 12.4-6.4 18.8-14.3 14.2z"/><path d="M398.2 544.5l-200.9-116c-7.9-4.5-14.3-18.4-14.3-30.7V67.6c0-12.4 6.4-18.8 14.3-14.2l200.9 116c7.9 4.5 14.3 18.4 14.3 30.7v330.1c0 12.4-6.5 18.8-14.3 14.3z" fill="#fff" stroke="#000" stroke-width="4.564" stroke-miterlimit="10"/><path class="st8" d="M411.8 193.8v35.3L183.6 97.3V62c0-9 6.5-12.7 14.5-8.1L397.4 169c7.9 4.6 14.4 15.8 14.4 24.8z"/><ellipse transform="rotate(-30.818 205.883 78.553)" class="st9" cx="205.9" cy="78.6" rx="4.7" ry="8.2"/><ellipse transform="rotate(-30.818 227.251 90.89)" class="st9" cx="227.3" cy="90.9" rx="4.7" ry="8.2"/><ellipse transform="rotate(-30.818 248.62 103.228)" class="st9" cx="248.6" cy="103.2" rx="4.7" ry="8.2"/><path class="st10" d="M292.5 187.6l-91.7-52.9v-8.4l91.7 53zm105.9 61.1l-91.7-53v-8.3l91.7 53zm-8.8 53L212.1 199.2c-4.8-2.8-8.7-10.3-8.7-16.7v-14c0-6.4 3.9-9.4 8.7-6.6l177.5 102.5c4.8 2.8 8.7 10.3 8.7 16.7v14c.1 6.4-3.9 9.3-8.7 6.6z"/><path d="M384.1 287.5l-4.4-7.6c.8-.8 1.2-2.1 1.2-3.8 0-4.4-3.1-9.7-6.9-11.9-3.8-2.2-6.9-.4-6.9 3.9 0 4.4 3.1 9.7 6.9 11.9 1.4.8 2.8 1.1 3.9.9l4.4 7.6 1.8-1zm-15.5-18.4c0-3.4 2.4-4.8 5.4-3.1 3 1.7 5.4 5.9 5.4 9.4s-2.4 4.8-5.4 3.1c-2.9-1.8-5.4-6-5.4-9.4z"/><path class="st10" d="M398.4 523.6L203.4 411V213.6l195 112.6z"/><path d="M232.6 185.2l-3.9 11.2-2.3-1.3-2.9-11.6-3 8.3-2.3-1.3-3.9-15.7 2.3 1.3 2.9 11.9 3-8.5 2 1.2 3 12 3-8.6 2.1 1.1zm19.2 11.1l-3.9 11.2-2.3-1.3-2.9-11.6-3 8.3-2.3-1.3-3.9-15.7 2.3 1.3 2.9 11.9 3-8.5 2 1.2 3 12 3-8.6 2.1 1.1zm19.2 11.1l-3.9 11.2-2.3-1.3-2.9-11.6-3 8.3-2.3-1.3-3.9-15.7 2.3 1.3 2.9 11.9 3-8.5 2 1.2 3 12 3-8.6 2.1 1.1zm.9 13.6c-.3-.5-.4-.9-.4-1.4 0-.5.1-.8.4-.9.3-.1.6-.1 1 .1s.7.6 1 1c.3.4.4.9.4 1.4 0 .5-.1.8-.4.9-.3.1-.6.1-1-.1s-.7-.5-1-1zm106.8 123.4L220 252.8c-.5-.3-.9-1-.9-1.6 0-.6.4-.8.9-.5l158.7 91.6c.5.3.9 1 .9 1.6s-.4.8-.9.5zm-96.2-44.9L220 263.4c-.5-.3-.9-1-.9-1.6s.4-.8.9-.5l62.5 36.1c.5.3.9 1 .9 1.6s-.4.8-.9.5zm100.8 58.2l-67.2-38.8c-.5-.3-.9-1-.9-1.6 0-.6.4-.8.9-.5l67.2 38.8c.5.3.9 1 .9 1.6s-.4.7-.9.5zm-12.9 3l-139-80.2c-.5-.3-.9-1-.9-1.6 0-.6.4-.8.9-.5l139 80.2c.5.3.9 1 .9 1.6s-.4.8-.9.5zm8.3 115.2L220 384.3c-.5-.3-.9-1-.9-1.6s.4-.8.9-.5l158.7 91.6c.5.3.9 1 .9 1.6s-.4.8-.9.5zM282.5 431L220 394.9c-.5-.3-.9-1-.9-1.6s.4-.8.9-.5l62.5 36.1c.5.3.9 1 .9 1.6s-.4.7-.9.5zm100.8 58.1l-67.2-38.8c-.5-.3-.9-1-.9-1.6s.4-.8.9-.5l67.2 38.8c.5.3.9 1 .9 1.6 0 .6-.4.8-.9.5zm-12.9 3.1l-139-80.2c-.5-.3-.9-1-.9-1.6 0-.6.4-.8.9-.5l139 80.2c.5.3.9 1 .9 1.6s-.4.8-.9.5z"/><path class="st0" d="M384.1 416.6l-165-95.2v-31.9l165 95.2zm0 48l-165-95.2v-31.9l165 95.2z"/><ellipse cx="247.2" cy="501.7" rx="41.4" ry="23.9" fill="#d5dae0"/><path class="st12" d="M265.2 313c2.8 8.8-.2 18.7-7.1 20.9-1 .3-2 .4-3.1.4-4.8-.1-9.8-3.8-12.8-9.1-.8-1.4-1.4-2.8-1.9-4.4-.1-.2-.1-.4-.2-.6-.1-.5-.2-.9-.3-1.4-1.2-5.5.2-10.5 3.3-13.7 1-1 2.1-1.9 3.4-2.5.5-.2 1-.4 1.6-.6 5.3-1.7 11 .6 14.6 5.8 1 1.5 1.9 3.2 2.5 5.2z"/><path fill="none" stroke="#fbc8af" stroke-width="22.431" stroke-linecap="round" stroke-linejoin="round" stroke-miterlimit="10" d="M248.8 325.4l-1.2 11.5"/><path d="M241 306.7c8.2-13.9 19.1-8 28.4-1.9 3.3 2.2-8.1 4.8-9.2 5.6-.2 1.3 1.5 4.8 1.5 4.8s-1.9 1-2.2 3.4c-.4 3-1.5-2.1-3.5-.4-1.9 1.6.9 5.6-.8 6.5-2.5 1.4-2 7.2-8.1 6.6-6.1-.7-6.9-8.8-9.6-12.8-3.9-5.8 1.8-10.6 3.5-11.8z"/><path d="M259.6 319.6c.6 2.2-.1 4.6-1.8 5.1s-3.6-1.1-4.3-3.3c-.6-2.2.3-4.1 2-4.6 1.6-.5 3.4.6 4.1 2.8z" fill="#fbc8af"/><path d="M220.6 497l-.9 5.8s-.1 1.4.6 1.8c.8.4 2.3 1.2 4.3.9s6.4-2.5 6.4-2.5 1.2-1.7 1.4-1.7c.2.1 1.7.1 1.7.1s8.2-3.7 9.5-5.5c1.3-1.8-.6-4.1-.6-4.1s-2.4-2.2-9.7 1.1c-7.3 3.3-12.7 4.1-12.7 4.1zm26.2 13.4l-.9 5.8s-.1 1.4.6 1.8c.8.4 2.3 1.2 4.3.9s6.4-2.5 6.4-2.5 1.2-1.7 1.4-1.7c.2.1 1.7.1 1.7.1s8.2-3.7 9.5-5.5c1.3-1.8-.6-4.1-.6-4.1s-2.4-2.2-9.7 1.1c-7.2 3.3-12.7 4.1-12.7 4.1z"/><path class="st8" d="M241.8 334.9l-4.9-.5s-6-.5-8.1 1.5c-2.1 2.1-14.4 20.2-16.5 30.1s16.1 14.4 16.1 14.4l8.2-3.3 5.2-42.2z"/><path d="M244 411.6c-.4-.1-.7-.2-1.1-.4-1-.3-1.9-.7-2.8-1.1-1.1-.4-2.1-.9-3-1.4-1.2-.6-8.9-3.5-9.8-4.1 0 0 .1 26.8-1.8 50.5-1.4 16.8-4.8 31.3-5.3 37.2-.2 2.5-.2 8.6.2 8.8.3 0 3.7.4 5.2.4h.1c3.6-.6 7.8-2.5 9.9-5.6l.2-.7 8.4-38.7 3.2-31.6c-.2-.2-3.4-7.5-3.4-13.3z"/><path class="st0" d="M305.7 357.8c.5.7 1 1.5 1.3 2.3-.5.5-.9.9-1.3 1.6l-.2.1c-1.5-3.2-5.1-5.8-7.9-6.9l-.9-.3h-.1c.5-.4 1.1-1 1.5-1.5l.3-.3c.6.2 1.3.4 1.9.7 2.1.9 4.1 2.5 5.4 4.3z"/><path d="M257.2 412.4c-3.5.3-6.8 0-10-.7-1.4-.3-2.6-.6-3.9-1 0 5.8 3.2 26.4 3.6 37.8 0 .5.4 12.1.5 12.7.4 5.3.3 50.4 1.9 50.2 3.4-.5 5.7 1.5 8.8-1.9 1.4-12.8 6.4-27.8 8.3-43.8 2.3-19.8 1.6-40.8 3.6-57.8-4.1 2.7-8.5 4.1-12.8 4.5z"/><path d="M257.2 412.4c4.3-.4 8.7-1.8 12.8-4.7-1 8.2-1.7 17.2-2.4 26.6-7.1-1.1-17.3-7.1-24-11.5-.2-5.5-.3-10.1-.3-12.1 1.2.4 2.5.7 3.9 1 3.1.7 6.5 1 10 .7z"/><path class="st8" d="M306 362.6c-1.3-3.5-5.2-6.5-8.3-7.7l-.9-.3c-.9.6-1.7 1.2-2.5 1.9-.4.3-.8.7-1.2 1-.4.4-.9.8-1.3 1.2 0 .1-.1.1-.2.2-2.8 2.7-5.5 5.7-8.3 8.3 1.7-1.6-8.5-16.3-10-18-8.2-9.7-24.3-13.5-36.4-14.7-19.9-2.1-12.6 67.6-10.5 69.7.3.3 1.3 1.1 2.8 2 1.4.9 7.4 5.6 12.3 6.5 9.2 1.7 20.1 1.6 28.4-4.9.3-.3.7-.5 1.1-.8 0-1.3-2.4-29.1-2.2-37.2 1.5 1.9 6.6 11.3 8.1 13.5.9 1.3 2.3 2.3 4 2.4 1.2.1 2.4-.4 3.3-1.1 8.8-6.6 14.7-14.1 21.8-22z"/><path class="st12" d="M311.4 341.3c1.6.9 2.4 2.9 1.7 4.7l-2.6 7c-1.1 2.9-4.5 4.1-7.2 2.6-2.7-1.5-3.4-5.1-1.4-7.5l4.6-5.8c1.2-1.5 3.3-1.9 4.9-1z"/><ellipse transform="rotate(-30.306 123.547 72.996)" class="st15" cx="123.5" cy="73" rx="30.5" ry="52.8"/><ellipse transform="rotate(-30.306 120.423 74.437)" class="st15" cx="120.4" cy="74.4" rx="30.5" ry="52.8"/><ellipse transform="rotate(-30.306 115.756 77.188)" cx="115.7" cy="77.2" rx="30.5" ry="52.8" fill="#fff" stroke="#000" stroke-width="4.261" stroke-miterlimit="10"/><path class="st8" d="M101 83.4c-.9-.5-1.7-1.4-2.3-2.6L89.5 63c-1.1-2.1-.9-4.2.4-4.7s3.2.8 4.3 2.9l7.6 14.7 32.9-2.2c1.5-.1 3.3 1.6 4.1 3.7.8 2.1.3 3.9-1.2 4l-35.1 2.3c-.5.2-1 0-1.5-.3z"/><ellipse transform="rotate(-30.311 556.758 300.645)" class="st15" cx="556.8" cy="300.7" rx="35.9" ry="62.2"/><ellipse transform="rotate(-30.311 553.077 302.343)" class="st15" cx="553.1" cy="302.4" rx="35.9" ry="62.2"/><ellipse transform="rotate(-30.311 547.579 305.583)" cx="547.6" cy="305.6" rx="35.9" ry="62.2" fill="#fff" stroke="#000" stroke-width="4.657" stroke-miterlimit="10"/><path d="M515.6 293.6c-.4-.7-.6-1.4-.6-2.1 0-.7.2-1.2.6-1.4.4-.2.9-.2 1.5.2.6.3 1.1.9 1.5 1.6.4.7.6 1.4.6 2.1 0 .7-.2 1.2-.6 1.4-.4.2-.9.2-1.5-.2s-1.1-.9-1.5-1.6zm9 4.8c-1.1-1.3-2-2.8-2.7-4.4-.6-1.6-1-3.2-1-4.7s.3-2.8 1-3.6c.6-.9 1.5-1.3 2.6-1.3s2.4.4 3.9 1.2c1.4.8 2.5 1.8 3.6 3 1 1.2 1.8 2.6 2.3 4.1l-2.5.2c-.4-1-.9-1.8-1.5-2.5s-1.2-1.3-1.9-1.7c-1.2-.7-2.2-.8-3-.4-.8.4-1.2 1.4-1.2 2.9s.4 2.9 1.2 4.3c.8 1.3 1.8 2.4 3 3.1.7.4 1.4.6 1.9.6.6 0 1.1-.3 1.5-.8l2.5 3.1c-.5.9-1.3 1.3-2.3 1.4-1 .1-2.2-.3-3.5-1.1-1.5-.9-2.8-2-3.9-3.4zm14.7 8.5c-1.1-1.3-2-2.8-2.6-4.4-.6-1.6-.9-3.2-.9-4.7 0-1.6.3-2.8.9-3.6.6-.9 1.5-1.3 2.6-1.4 1.1 0 2.4.3 3.8 1.1s2.7 1.9 3.8 3.2c1.1 1.3 2 2.8 2.6 4.4.6 1.6.9 3.2.9 4.7 0 1.6-.3 2.8-.9 3.6-.6.9-1.5 1.3-2.6 1.4-1.1 0-2.4-.3-3.8-1.2-1.4-.7-2.6-1.7-3.8-3.1zm6.8.4c.8-.5 1.2-1.4 1.2-2.9s-.4-2.9-1.2-4.3c-.8-1.4-1.8-2.4-2.9-3.1-1.2-.7-2.2-.8-2.9-.3-.8.5-1.1 1.4-1.1 2.9s.4 2.9 1.1 4.2c.8 1.3 1.7 2.4 2.9 3.1 1.1.8 2.1.9 2.9.4zm29 6.8c1 1.7 1.5 3.8 1.5 6.1v9.1l-3.2-1.9v-8.6c0-1.4-.3-2.6-.8-3.6s-1.3-1.8-2.3-2.4c-1.1-.6-2-.7-2.6-.3-.7.4-1 1.4-1 2.9v8l-3.2-1.9v-8.6c0-1.4-.3-2.6-.8-3.6s-1.3-1.8-2.3-2.4c-1.1-.6-2-.7-2.6-.3-.6.4-1 1.4-1 3v8l-3.2-1.9v-15.8l3.1 1.8v2c.5-.4 1.2-.6 1.9-.5.8.1 1.6.4 2.6.9 1 .6 1.9 1.3 2.7 2.3.8.9 1.4 1.9 1.9 3.1.6-.5 1.3-.7 2.2-.7.9.1 1.9.4 3 1 1.7 1.2 3.1 2.6 4.1 4.3z"/><ellipse transform="rotate(-30.311 433.56 201.912)" class="st15" cx="433.6" cy="201.9" rx="31.6" ry="54.7"/><ellipse transform="rotate(-30.311 430.323 203.405)" class="st15" cx="430.4" cy="203.4" rx="31.6" ry="54.7"/><ellipse transform="rotate(-30.311 425.49 206.254)" cx="425.5" cy="206.3" rx="31.6" ry="54.7" fill="#fff" stroke="#000" stroke-width="4.094" stroke-miterlimit="10"/><path d="M399.9 198.7c-.4-.7-.7-1.5-.7-2.3 0-.8.2-1.3.6-1.5.4-.2 1-.2 1.6.2.6.4 1.2.9 1.6 1.7.4.7.6 1.5.6 2.3 0 .8-.2 1.3-.7 1.5-.4.2-1 .2-1.6-.2-.4-.4-.9-1-1.4-1.7zm9.6 5.1c-1.2-1.4-2.1-3-2.8-4.7-.7-1.7-1-3.4-1-5.1 0-1.7.3-3 1-3.9.7-.9 1.6-1.4 2.8-1.5 1.2 0 2.5.4 4 1.2 1.5.9 2.9 2 4.1 3.4 1.2 1.4 2.1 3 2.8 4.7.7 1.7 1 3.4 1 5 0 1.7-.3 3-1 3.9-.7.9-1.6 1.4-2.8 1.5-1.2 0-2.5-.4-4.1-1.2-1.5-.7-2.8-1.8-4-3.3zm7.1.4c.8-.5 1.2-1.5 1.2-3.1s-.4-3.1-1.2-4.5c-.8-1.4-1.9-2.5-3.1-3.3-1.3-.7-2.3-.8-3.1-.4-.8.5-1.2 1.5-1.2 3.1s.4 3.1 1.2 4.5c.8 1.4 1.9 2.5 3.1 3.3 1.3.8 2.3.9 3.1.4zm16.6-2.9v3.8c-.3-.2-.6-.4-.8-.6-1.3-.8-2.4-.9-3.1-.5-.8.5-1.1 1.5-1.1 3.2v8.2l-3.4-2v-16.9l3.3 1.9v2.5c.8-1.1 2.6-1 5.1.4zm17.4 10.3v14.3c0 5.9-2.6 7.4-7.9 4.3-1.4-.8-2.8-1.8-4-2.9-1.3-1.1-2.3-2.3-3.1-3.6l1.5-2.1c.6 1 1.5 1.9 2.4 2.9 1 .9 2 1.7 3 2.3 1.6.9 2.8 1.2 3.6.8.8-.4 1.1-1.5 1.1-3.2v-.9c-.6.4-1.3.5-2.1.4-.8-.1-1.8-.5-2.8-1-1.4-.8-2.7-1.9-3.8-3.2-1.1-1.3-2-2.8-2.7-4.4-.7-1.6-1-3.2-1-4.8 0-1.6.3-2.8 1-3.7.7-.9 1.5-1.3 2.7-1.3 1.1 0 2.4.4 3.8 1.2 1.1.6 2 1.4 2.9 2.3.9.9 1.6 1.9 2.2 3.1v-2.2l3.2 1.7zm-4.7 8.7c.8-.4 1.3-1.3 1.3-2.8 0-1.4-.4-2.8-1.3-4.2-.8-1.4-1.9-2.4-3.2-3.2-1.3-.8-2.4-.9-3.2-.5-.8.4-1.3 1.3-1.3 2.7 0 1.4.4 2.8 1.3 4.2.8 1.4 1.9 2.5 3.2 3.2 1.3.9 2.4 1 3.2.6z"/><ellipse transform="rotate(-30.311 515.588 161.055)" class="st15" cx="515.6" cy="161.1" rx="31.5" ry="54.5"/><ellipse transform="rotate(-30.311 512.362 162.544)" class="st15" cx="512.4" cy="162.6" rx="31.5" ry="54.5"/><ellipse transform="rotate(-30.311 507.544 165.384)" cx="507.6" cy="165.4" rx="31.5" ry="54.5" fill="#fff" stroke="#000" stroke-width="4.082" stroke-miterlimit="10"/><path d="M485.9 166.3c-.6-1-.9-2-.9-3.1s.3-1.7.9-2.1c.6-.3 1.3-.2 2.2.3.9.5 1.6 1.3 2.2 2.2.6 1 .9 2 .9 3.1 0 1-.3 1.7-.9 2-.6.3-1.3.2-2.2-.2-.9-.4-1.6-1.2-2.2-2.2zm10-21.1c-.6-.9-.9-1.9-.9-2.8 0-.9.3-1.5.9-1.8.6-.3 1.3-.2 2.1.3s1.6 1.2 2.1 2.1c.6.9.9 1.8.9 2.7 0 .9-.3 1.6-.8 1.9-.6.3-1.3.2-2.1-.3-.9-.4-1.7-1.1-2.2-2.1zm-.3 4.6l4.7 2.7v22.9l-4.7-2.7v-22.9zm28.2 18.5c1.5 2.6 2.3 5.5 2.3 8.8v13.1l-4.7-2.7v-12.4c0-2-.4-3.7-1.2-5.2-.8-1.5-2-2.7-3.5-3.5-1.7-1-3.1-1.2-4.1-.6-1 .6-1.5 2-1.5 4.3v11.6l-4.7-2.7v-23l4.4 2.6v3c.8-.6 1.7-.9 2.9-.7 1.2.1 2.5.6 4 1.5 2.6 1.3 4.6 3.3 6.1 5.9z"/><ellipse transform="rotate(-30.311 471.7 380.61)" class="st15" cx="471.8" cy="380.6" rx="51.6" ry="89.3"/><ellipse transform="rotate(-30.311 466.416 383.047)" class="st15" cx="466.5" cy="383.1" rx="51.6" ry="89.3"/><ellipse transform="rotate(-30.311 458.525 387.699)" cx="458.6" cy="387.7" rx="51.6" ry="89.3" fill="#fff" stroke="#000" stroke-width="6.685" stroke-miterlimit="10"/><path d="M412.1 376.6c-.8-1.3-1.2-2.7-1.2-4 0-1.4.4-2.3 1.2-2.7.8-.4 1.7-.3 2.9.4 1.1.7 2.1 1.7 2.9 3 .8 1.3 1.2 2.7 1.2 4.1 0 1.4-.4 2.3-1.2 2.7-.8.4-1.7.3-2.9-.3-1.1-.9-2.1-1.9-2.9-3.2zm35.8-5.6c2 3.4 3 7.3 3 11.6v17.3l-6.2-3.6V380c0-2.6-.5-4.9-1.6-6.9s-2.6-3.5-4.6-4.7c-2.3-1.3-4.1-1.6-5.4-.8-1.3.8-2 2.7-2 5.6v15.3L425 385v-30.2l5.9 3.4v3.9c1-.8 2.3-1.1 3.8-.9 1.5.2 3.3.8 5.2 1.9 3.4 1.9 6 4.5 8 7.9zm35.8 35L463 394.1c.4 2.4 1.3 4.7 2.8 6.9 1.5 2.2 3.4 3.9 5.7 5.2 2.9 1.7 5.3 2 7.1.8l3.3 6.3c-1.2.9-2.7 1.3-4.5 1.1-1.8-.2-3.8-1-6.1-2.3-2.9-1.7-5.4-3.8-7.6-6.4-2.2-2.6-3.9-5.4-5.1-8.5-1.2-3-1.8-6.1-1.8-9 0-2.9.6-5.3 1.7-6.9 1.2-1.7 2.8-2.6 4.9-2.7 2.1-.1 4.4.6 7 2.1 2.6 1.5 4.9 3.5 6.9 5.9 2 2.5 3.6 5.2 4.7 8.2 1.1 3 1.7 6.1 1.7 9.2.1.4 0 1.1 0 2zm-18.2-20.6c-1.4.6-2.2 1.9-2.5 3.9l14.9 8.6c-.3-2.3-1.1-4.6-2.4-6.7-1.3-2.1-3-3.8-5-4.9-2-1.1-3.7-1.4-5-.9zm40 44.4c-.7.3-1.6.3-2.6 0s-2.1-.7-3.3-1.4c-2.9-1.7-5.1-3.8-6.7-6.5-1.6-2.6-2.4-5.6-2.4-8.9v-14.5l-4.3-2.5v-5.7l4.3 2.5v-6.9l6.2 3.6v6.9l7 4.1v5.7l-7-4.1v14.4c0 1.5.3 2.8.9 3.9.6 1.1 1.5 2 2.7 2.7 1.4.8 2.5 1 3.4.7l1.8 6z"/><path class="st0" d="M160 9.5c0-4.6 3.2-6.4 7.2-4.1 4 2.3 7.2 7.9 7.2 12.5s-3.2 6.4-7.2 4.1c-4-2.3-7.2-7.9-7.2-12.5zm3.6 2.1c0 2.3 1.6 5 3.6 6.2 2 1.1 3.6.2 3.6-2s-1.6-5-3.6-6.2-3.6-.2-3.6 2zm402.7 384.7c0-4.6 3.2-6.4 7.2-4.1 4 2.3 7.2 7.9 7.2 12.5s-3.2 6.4-7.2 4.1c-4-2.3-7.2-7.9-7.2-12.5zm3.6 2.1c0 2.3 1.6 5 3.6 6.2s3.6.2 3.6-2c0-2.3-1.6-5-3.6-6.2s-3.6-.3-3.6 2zM63.2 132.3c1 .6 1.8.1 1.8-1v-19.2c0-1.2-.8-2.6-1.8-3.2-1-.6-1.8-.1-1.8 1v19.2c-.1 1.2.7 2.6 1.8 3.2z"/><path class="st0" d="M54.8 117.9l16.7 9.7c1 .6 1.8.1 1.8-1 0-1.2-.8-2.6-1.8-3.2l-16.7-9.7c-1-.6-1.8-.1-1.8 1s.8 2.6 1.8 3.2zm375.6-1.2c1 .6 1.8.1 1.8-1V96.4c0-1.2-.8-2.6-1.8-3.2s-1.8-.1-1.8 1v19.2c-.1 1.3.8 2.7 1.8 3.3z"/><path class="st0" d="M422 102.3l16.7 9.7c1 .6 1.8.1 1.8-1s-.8-2.6-1.8-3.2L422 98.1c-1-.6-1.8-.1-1.8 1 0 1.2.8 2.6 1.8 3.2z"/></g></svg>