<svg xmlns="http://www.w3.org/2000/svg" xmlns:xlink="http://www.w3.org/1999/xlink" id="Calque_1" data-name="Calque 1" viewBox="0 0 4680 3120"><defs><style>.cls-1{fill:none;}.cls-2{clip-path:url(#clip-path);}.cls-3{opacity:0;}.cls-4{fill:#fff;}.cls-5{opacity:0.8;}.cls-6{clip-path:url(#clip-path-4);}.cls-7{fill:#e9e3ff;}.cls-8{clip-path:url(#clip-path-5);}.cls-9{clip-path:url(#clip-path-6);}.cls-10{clip-path:url(#clip-path-7);}.cls-11{fill:#180031;}.cls-12{fill:#ddd1ff;}.cls-13{fill:#9e7bff;}.cls-14{fill:#fc89b3;}.cls-15{opacity:0.16;}.cls-16{clip-path:url(#clip-path-8);}.cls-17{fill:#4d1886;}.cls-18{opacity:0.33;}.cls-19{clip-path:url(#clip-path-9);}.cls-20{opacity:0.68;}.cls-21{clip-path:url(#clip-path-10);}.cls-22{fill:#1a0032;}.cls-23{opacity:0.27;}.cls-24{clip-path:url(#clip-path-11);}.cls-25{clip-path:url(#clip-path-12);}.cls-26{opacity:0.49;}.cls-27{clip-path:url(#clip-path-13);}.cls-28{fill:#602f9c;}.cls-29{clip-path:url(#clip-path-15);}.cls-30{clip-path:url(#clip-path-16);}.cls-31{fill:#16061f;}.cls-32{clip-path:url(#clip-path-18);}.cls-33{clip-path:url(#clip-path-20);}.cls-34{fill:#ff8436;}.cls-35{fill:#ffef2c;}.cls-36{fill:#ffbf40;}.cls-37{clip-path:url(#clip-path-22);}.cls-38{fill:#7e59ce;}.cls-39{fill:#2c0a56;}.cls-40{fill:#fccdc3;}.cls-41{fill:#ff9289;}.cls-42{clip-path:url(#clip-path-24);}.cls-43{fill:#c91060;}.cls-44{fill:#ff8b99;}.cls-45{opacity:0.44;}.cls-46{clip-path:url(#clip-path-26);}.cls-47{clip-path:url(#clip-path-27);}.cls-48{clip-path:url(#clip-path-29);}.cls-49{clip-path:url(#clip-path-31);}.cls-50{clip-path:url(#clip-path-32);}.cls-51{clip-path:url(#clip-path-33);}.cls-52{clip-path:url(#clip-path-35);}.cls-53{clip-path:url(#clip-path-37);}.cls-54{clip-path:url(#clip-path-39);}.cls-55{clip-path:url(#clip-path-40);}.cls-56{clip-path:url(#clip-path-41);}.cls-57{fill:#e92976;}</style><clipPath id="clip-path"><rect class="cls-1" width="4680" height="3120"></rect></clipPath><clipPath id="clip-path-4"><rect class="cls-1" x="2595.43" y="2599.77" width="1221.21" height="151.51"></rect></clipPath><clipPath id="clip-path-5"><rect class="cls-1" x="1511.79" y="2649.18" width="408.98" height="110.82"></rect></clipPath><clipPath id="clip-path-6"><rect class="cls-1" x="1392.23" y="2485.22" width="720.67" height="174.63"></rect></clipPath><clipPath id="clip-path-7"><rect class="cls-1" x="2451.76" y="2492.25" width="337.99" height="89.03"></rect></clipPath><clipPath id="clip-path-8"><rect class="cls-1" x="1355.35" y="1976.57" width="2196.32" height="291.36"></rect></clipPath><clipPath id="clip-path-9"><rect class="cls-1" x="3006.59" y="2563.92" width="798.2" height="101.03"></rect></clipPath><clipPath id="clip-path-10"><rect class="cls-1" x="3006.59" y="2064.56" width="117.64" height="74.4"></rect></clipPath><clipPath id="clip-path-11"><rect class="cls-1" x="3006.59" y="2083.86" width="275.78" height="538.91"></rect></clipPath><clipPath id="clip-path-12"><path class="cls-1" d="M3103,1976.57l-4.64,28.88s-8.06-1.11-7.79,1.39,1.12,6.12,1.12,6.12l-163.43,59.79s-14.74,5.56-18.07,15.57a119.19,119.19,0,0,0-4.18,14.74s-1.11,7,0,11.68,132.08,360.53,132.08,360.53l24.55-8.9s-54.86-277.66-66.53-304.08c-5.74-13-18.08-24.75-18.08-24.75s10,3.06,2.23-4.73l140.07-28.92,55.06-45.88-18.71-84.11Z"></path></clipPath><clipPath id="clip-path-13"><rect class="cls-1" x="2940.49" y="2012.4" width="229.64" height="455.71"></rect></clipPath><clipPath id="clip-path-15"><path class="cls-1" d="M3133.43,2012.4c-1.67,34.76,18.88,41.91,18.88,41.91l-145.73,148.4a78.65,78.65,0,0,0-21.68,43.57l-50.44,340.16,26.23,5,90.83-268.95a60.39,60.39,0,0,0,4.65-24.53c-.44-11-1.75-43.94-2.16-54.4-.06-1.55,0-9.32,2-11.31,3.77-3.78,3.1-5.93,1-9.72a222.93,222.93,0,0,0,51.41-18.23c23.75-12,118.62-77.82,137.67-91.09,1.27-.86,2.39-1.64,3.34-2.33h0c27.53-20,21.69-54.64,21.69-54.64l-12.51-67.15-123.82-25.87s.34,14.46-1.32,49.21"></path></clipPath><clipPath id="clip-path-16"><rect class="cls-1" x="2956.41" y="1973.83" width="352.68" height="638.94"></rect></clipPath><clipPath id="clip-path-18"><path class="cls-1" d="M2931.76,2600.67c-.05.24-.08.49-.13.74-.12.73-.78,3.3-4.22,6.35l-48.66,41.72s-6.39,3.89-11.11,6.39-23.23,10.6-31.33,13-10.56,7.9-10.31,11.06,3.9,7.82,12.87,9.8,46.55-2.22,51.11-3.91,23.4-15.94,26.49-17.34,5.37-2.94,9.27.34,6,4.25,10,3.88,19.57-6.2,19.57-6.2,2.94-.57,3-6.79l.13-51.17a55.19,55.19,0,0,1,.87-9.6l1.37-7.56-26.23-5Z"></path></clipPath><clipPath id="clip-path-20"><path class="cls-1" d="M3038.05,2475.16l4.38,13.82.27.7c.27.69,1,3.24-.4,7.62L3021.71,2558s-3.52,6.61-6.31,11.16-14.58,21-20.32,27.18-5,12.19-3.22,14.78,7.34,4.73,16.06,1.87,38.92-25.64,42-29.41,12-25.65,14-28.43,3.12-5.27,8.15-4.43,7.32.6,10.6-1.77,13.68-15.31,13.68-15.31,2.23-2-.9-7.36l-26-44.09a54.29,54.29,0,0,1-4.15-8.71l-2.68-7.2Z"></path></clipPath><clipPath id="clip-path-22"><path class="cls-1" d="M2951.5,1887.33c1,4.83,25.8,33.86,29,34.51s18.63-11.53,24.2-17.1c8.38-8.38,71-97.41,71-97.41L3103,1976.57,3258.24,1988l73-246.23-93.94-45.35-64.51,10-18.74-3.83-3.51-12.62s-76.05,20-83.86,26.45c-9.93,8.23-69,129.66-69,129.66l-43.18-175.82-25.53-9.43s21.62,221.7,22.59,226.54"></path></clipPath><clipPath id="clip-path-24"><path class="cls-1" d="M3139.54,1563.81c-6.77,22.58-19.68,66.45-10,80.32s37.09,6.13,37.09,6.13,1.94,31.28-16.12,39.67l12.9,16.45h9.35L3201,1704l28.81-9.85s-24.19-16.65-19.24-80a2.37,2.37,0,0,1,2.63-2.17c5.77.65,19.84,1,19.84-11.32,0,0,0-10.65-12.91-9.36-13.81,1.38-35.15-9.67-37.73-27.74,0,0-27.74,4.2-23.23-25.16,0,0-12.9,2.91-19.67,25.48"></path></clipPath><clipPath id="clip-path-26"><rect class="cls-1" x="3172.25" y="1522.7" width="74.7" height="88.14"></rect></clipPath><clipPath id="clip-path-27"><path class="cls-1" d="M1438.67,2490.76s-3.05,33.83-8.32,60.41-4.51,28.83-3.76,31.33,9.86,16.8,12.08,18.05,26,2.26,27.53,1.26,9.53-15,10-18.55-8-48.39-8-48.39l-6.42-44.11-8.62-10Z"></path></clipPath><clipPath id="clip-path-29"><path class="cls-1" d="M1532.86,2473.84l-10.25,64.29s-1.79,12,5.12,13.16,25,1.38,30,1.38,10-4.26,12.53-4.76,7.52,3.76,11.78,4.76,77.22,3,79.72,3.26,6.52-4,0-14-30.83-15.29-51.64-18-52.65-30.83-52.65-30.83-2.25-1.51-1-8,1.79-9.45,1.79-9.45l-19.59-7.59Z"></path></clipPath><clipPath id="clip-path-31"><path class="cls-1" d="M1447,1932s-9.78,35-4.52,75.21l27.83,141.76s-3.51,3.26-3,5.14a58.14,58.14,0,0,0,2.13,5.64s-26.21,33.25-28.5,62-2.29,269-2.29,269h23.12s54.8-270.76,57.81-286.55,0-38.36,0-38.36l19.3-192.53,57.41,166.21s-2.75,6-1,7.77a36.77,36.77,0,0,0,4.26,3.51s-25.32,25.82-28.83,44.63-37.88,278.4-37.88,278.4l25.38,1.69s80.09-284.83,84.6-298.93,3.39-38.92,2.82-63.17-24.15-283.14-24.15-283.14L1481,1824.65Z"></path></clipPath><clipPath id="clip-path-32"><rect class="cls-1" x="1508.6" y="1900.62" width="105.21" height="598.04"></rect></clipPath><clipPath id="clip-path-33"><rect class="cls-1" x="1409.34" y="1814.49" width="98.36" height="694.32"></rect></clipPath><clipPath id="clip-path-35"><path class="cls-1" d="M1727.11,1688.1s-1.29-5.16-3-3.87-3,5.59-3,5.59-31.83-90.31-34-95.9-14.19-23.66-18.06-25.38-65.58-20.3-65.58-20.3l-38.07,8.69-68.37-16.1L1423.47,1572l9.57,91.52,47.63,161.8,140.84,5L1654.43,1661s51.17,90.74,54.18,93.75,20.65,14.63,24.09,13.34,18.49-14.63,20.64-18.5,66.23-215,66.23-215l-16.77-20.21Z"></path></clipPath><clipPath id="clip-path-37"><path class="cls-1" d="M1559,1434.39c-.32,1.61-12.9,6.13-13.87,6.45s-1.29-14.52-1.29-14.52-3.87,16.45-4.84,17.74-14.52,4.84-14.52,4.84c-5.86-1.7-9.39.81-11.31,3.18a9.55,9.55,0,0,0-2.05,7.43c1.14,7.58,10.74,7.73,14.12,7.55a1.37,1.37,0,0,1,1.42,1.11c10.58,53.52-20.57,67.68-20.57,67.68l59.35,21.08,17.63-18.71c-16.56-15.48-14-36.34-14-36.34,42.15,7.31,39.57-17.85,38.07-27.31s-20.1-60.18-23.33-67-12.25-11-12.25-11c-8.39,14.84-12.26,36.12-12.58,37.74"></path></clipPath><clipPath id="clip-path-39"><rect class="cls-1" x="1487.68" y="1390.52" width="64.18" height="66.06"></rect></clipPath><clipPath id="clip-path-40"><path class="cls-1" d="M1807.44,2187.15v370.53c0,19.39,53.22,35.1,118.87,35.1s118.87-15.71,118.87-35.1V2187.15Z"></path></clipPath><clipPath id="clip-path-41"><rect class="cls-1" x="1779.68" y="2187.15" width="325.69" height="427.19"></rect></clipPath></defs><title>Plan de travail 1</title><g class="cls-2"><g class="cls-2"><g class="cls-3"><g class="cls-2"><rect class="cls-4" width="4680" height="3120"></rect></g></g><g class="cls-5"><g class="cls-6"><path class="cls-7" d="M3206,2599.77c-337.23,0-610.61,33.92-610.61,75.76s273.38,75.75,610.61,75.75,610.6-33.92,610.6-75.75-273.37-75.76-610.6-75.76"></path></g></g><g class="cls-5"><g class="cls-8"><path class="cls-7" d="M1716.28,2649.18c-112.94,0-204.49,24.81-204.49,55.41s91.55,55.41,204.49,55.41,204.49-24.81,204.49-55.41-91.55-55.41-204.49-55.41"></path></g></g><g class="cls-5"><g class="cls-9"><path class="cls-7" d="M1752.56,2485.22c-199,0-360.33,39.09-360.33,87.32s161.33,87.31,360.33,87.31,360.34-39.09,360.34-87.31-161.33-87.32-360.34-87.32"></path></g></g><g class="cls-5"><g class="cls-10"><path class="cls-7" d="M2620.75,2492.25c-93.33,0-169,19.93-169,44.52s75.66,44.51,169,44.51,169-19.93,169-44.51-75.67-44.52-169-44.52"></path></g></g><path class="cls-11" d="M3575.21,704.77a192.45,192.45,0,0,0-136.35-56.47H1468.16a192.71,192.71,0,0,0-192.82,192.82v1314a192.74,192.74,0,0,0,192.82,192.82h1970.7a192.71,192.71,0,0,0,192.82-192.82v-1314a192.45,192.45,0,0,0-56.47-136.35"></path><path class="cls-4" d="M3438.86,728.31H1468.16a112.81,112.81,0,0,0-112.81,112.81v1314a112.81,112.81,0,0,0,112.81,112.81h1970.7a112.81,112.81,0,0,0,112.81-112.81v-1314a112.81,112.81,0,0,0-112.81-112.81"></path><rect class="cls-12" x="2235.27" y="804.39" width="1059.28" height="92.7"></rect><rect class="cls-12" x="2235.27" y="1001.98" width="690.99" height="633.88"></rect><polygon class="cls-13" points="2618.16 1374.94 2527.07 1217.5 2398.6 1460.69 2762.93 1460.69 2673.89 1311.61 2618.16 1374.94"></polygon><path class="cls-13" d="M2441.78,1177.14a43.18,43.18,0,1,0,43.17,43.18,43.18,43.18,0,0,0-43.17-43.18"></path><rect class="cls-12" x="3023.91" y="1001.98" width="272.26" height="633.88"></rect><rect class="cls-12" x="2235.27" y="1718.97" width="1050.78" height="472.87"></rect><polygon class="cls-13" points="2798.05 2011.42 2706.97 1853.98 2578.49 2097.18 2942.82 2097.18 2853.78 1948.09 2798.05 2011.42"></polygon><path class="cls-13" d="M2621.67,1813.63a43.18,43.18,0,1,0,43.18,43.17,43.17,43.17,0,0,0-43.18-43.17"></path><path class="cls-14" d="M2112.9,1276.94V1043.37H1818.11V2267.93h334.7V1474.62c-19.72-.44-39.91-1.4-39.91-1.4Z"></path><g class="cls-15"><g class="cls-16"><path class="cls-17" d="M1355.35,2155.12a112.81,112.81,0,0,0,112.81,112.81h1970.7a112.81,112.81,0,0,0,112.81-112.81V1976.57Z"></path></g></g><rect class="cls-13" x="3006.58" y="2083.86" width="798.2" height="581.09"></rect><polygon class="cls-17" points="3007.51 2144.1 3804.79 2144.1 3804.79 2083.86 3005.66 2083.86 3007.51 2144.1"></polygon><rect class="cls-17" x="3084.35" y="2277.3" width="263.01" height="263.01"></rect><rect class="cls-17" x="3447.69" y="2475.27" width="263.01" height="65.04"></rect><polygon class="cls-4" points="3568.2 2175.3 3406.92 2175.07 3245.63 2175.31 3164.99 2175.6 3084.35 2176.11 3164.99 2176.62 3245.63 2176.91 3406.92 2177.15 3568.2 2176.91 3648.84 2176.62 3729.48 2176.11 3648.84 2175.6 3568.2 2175.3"></polygon><polygon class="cls-4" points="3568.2 2211.07 3406.92 2210.83 3245.63 2211.08 3164.99 2211.37 3084.35 2211.88 3164.99 2212.38 3245.63 2212.68 3406.92 2212.92 3568.2 2212.68 3648.84 2212.39 3729.48 2211.88 3648.84 2211.36 3568.2 2211.07"></polygon><polygon class="cls-4" points="3568.2 2246.84 3406.92 2246.6 3245.63 2246.85 3164.99 2247.14 3084.35 2247.65 3164.99 2248.15 3245.63 2248.45 3406.92 2248.69 3568.2 2248.45 3648.84 2248.16 3729.48 2247.65 3648.84 2247.14 3568.2 2246.84"></polygon><g class="cls-18"><g class="cls-19"><polygon class="cls-17" points="3804.79 2664.95 3804.79 2563.92 3006.59 2664.95 3804.79 2664.95"></polygon></g></g><g class="cls-20"><g class="cls-21"><polygon class="cls-22" points="3007.35 2138.96 3124.23 2106.92 3124.23 2064.56 3006.59 2101.76 3007.35 2138.96"></polygon></g></g><g class="cls-23"><g class="cls-24"><path class="cls-22" d="M3018,2216.86l-11.4,84.71,55,198.37-55,100.1v22.73s37.39-21.89,44.45-28.24,14.12-26.82,17.65-31.06,7.77.71,10.59,0,28.24-23.17,26.83-28.94-25.42-42.36-34.59-59.26S3051,2355.7,3051,2355.7s17.65-42.84,17.65-49.39-3.19-71.84-3.19-71.84c34.46-4.23,162.27-88.48,186.1-109.19s30.77-41.42,30.77-41.42h-38Z"></path></g></g><path class="cls-22" d="M3103,1976.57l-4.64,28.88s-8.06-1.11-7.78,1.39,1.11,6.12,1.11,6.12l-163.43,59.79s-14.74,5.56-18.07,15.57a119.19,119.19,0,0,0-4.18,14.74s-1.11,7,0,11.68,132.08,360.53,132.08,360.53l24.54-8.9s-54.84-277.66-66.52-304.08c-5.74-13-18.08-24.75-18.08-24.75s10,3.06,2.23-4.73l140.07-28.93,55.06-45.87-18.71-84.11Z"></path></g><g class="cls-25"><g class="cls-26"><g class="cls-27"><path class="cls-28" d="M3133.43,2047.44c4.45,15.85-23.92,42.13-23.92,42.13a41.17,41.17,0,0,1-19.74,8.75c-12.23,1.95-96.84,21.64-102.68,21.92s-17.79,2-42.82-11.95c0,0-5.21-2.74-3.4,4.77s17.06,15.69,26,31.14c51.46,89,92.11,323.91,92.11,323.91l22.33-7.08,88.82-415-36.7-33.65s-4.45,19.19,0,35"></path></g></g></g><g class="cls-2"><path class="cls-22" d="M3271.08,2056.21l-12.51-67.15-123.82-25.87s.35,14.46-1.32,49.21,18.89,41.91,18.89,41.91l-145.73,148.4a78.6,78.6,0,0,0-21.69,43.57l-50.44,340.16,26.23,5,90.83-268.95a60.39,60.39,0,0,0,4.65-24.53c-.44-11-1.75-43.94-2.16-54.4-.07-1.55,0-9.33,2-11.31,3.77-3.78,3.1-5.92,1-9.72a222.93,222.93,0,0,0,51.41-18.23c23.75-12,118.62-77.82,137.67-91.09,1.27-.86,2.39-1.64,3.35-2.33h0c27.52-20,21.68-54.64,21.68-54.64"></path></g><g class="cls-29"><g class="cls-26"><g class="cls-30"><path class="cls-28" d="M3249.38,1989.06s11.68,43.36,10,72.28-4.45,28.92-84,87.31c-41.24,30.29-77.88,48.23-103.59,58.48l-40.14,15.59a7.65,7.65,0,0,0-3.52,11.49c8.26,11.91,20.56,37,9.58,70.4-5.23,15.93-81.33,286-81.33,286l4.86,22.17,67.88-17.55s276.4-413.76,279.74-416-36.15-204.1-37.29-205.34-22.22,15.16-22.22,15.16"></path></g></g></g><g class="cls-2"><path d="M3030.53,2380l-2.87,8.23-2.7,8.29c-.85,2.77-1.75,5.54-2.54,8.33-1.64,5.58-3.18,11.19-4.43,16.9,2.48-5.29,4.66-10.69,6.73-16.12,1.07-2.7,2-5.44,3-8.17l2.87-8.23,2.71-8.28c.85-2.78,1.75-5.54,2.54-8.33,1.64-5.58,3.18-11.19,4.42-16.9-2.48,5.29-4.66,10.68-6.74,16.11-1.06,2.71-2,5.45-3,8.17"></path><path d="M2990,2224.8a73.79,73.79,0,0,0-4.88,13.11c-.32,1.13-.6,2.27-.83,3.41s-.47,2.29-.66,3.45c-.41,2.31-.72,4.55-1.08,6.82l-1.94,13.64c-.58,4.55-1.23,9.1-1.76,13.66-1.12,9.11-2.13,18.24-2.83,27.42,2-9,3.68-18,5.25-27.06.82-4.52,1.52-9.06,2.28-13.59l2.1-13.61c.33-2.26.63-4.57,1-6.78.16-1.12.36-2.23.6-3.32s.48-2.2.73-3.3a82.5,82.5,0,0,1,4.24-12.84,90.64,90.64,0,0,1,14.38-23.1,71.17,71.17,0,0,0-16.6,22.09"></path><path class="cls-31" d="M2934.46,2586.44l-2.7,14.23c-.05.24-.09.49-.13.74-.12.73-.78,3.3-4.22,6.35l-48.65,41.72s-6.4,3.89-11.12,6.39-23.23,10.6-31.33,13-10.56,7.9-10.31,11.06,3.9,7.82,12.87,9.8,46.55-2.22,51.11-3.91,23.4-15.94,26.49-17.34,5.37-2.94,9.27.34,6,4.25,10,3.88,19.57-6.2,19.57-6.2,2.94-.57,3-6.79l.13-51.17a55.19,55.19,0,0,1,.87-9.6l1.37-7.56Z"></path></g><g class="cls-32"><path class="cls-17" d="M2937.47,2663.72c-7.84,1.06-12.29-2.33-17.48-3.32a9.54,9.54,0,0,0-8.38,2.38s-16.71,13.53-23.72,16.17-21.17,4.2-39.76,5.2S2826,2680,2826,2680l-18,11.59,72.5,13.16,78.1-20.87,5.79-26.07-6-1.14c-4,3.2-13,6-20.86,7.09"></path></g><g class="cls-2"><path class="cls-31" d="M3038.05,2475.16l4.38,13.82.27.7c.27.69,1,3.24-.4,7.62l-20.59,60.7s-3.52,6.6-6.31,11.15-14.58,21-20.32,27.18-5,12.19-3.22,14.78,7.34,4.73,16.06,1.87,38.92-25.64,42-29.42,12-25.64,14-28.42,3.12-5.27,8.15-4.43,7.32.6,10.6-1.77,13.68-15.31,13.68-15.31,2.23-2-.9-7.36l-26-44.09a54.29,54.29,0,0,1-4.15-8.71l-2.68-7.2Z"></path></g><g class="cls-33"><path class="cls-17" d="M3093.81,2523.59c-1.82,4.8-8.12,11.81-14.33,16.72s-11.76,4.27-16.73,6.07a9.51,9.51,0,0,0-6,6.31s-7.48,20.16-12.17,26-16.08,14.4-31.55,24.74-21.18,7.68-21.18,7.68l-9.62,19.16,69.09-25.63,56.56-57.76-8.31-25.38Z"></path></g><g class="cls-2"><path class="cls-17" d="M3114.63,1988.7c-.36,1.12-.83,2.2-1.17,3.3l-1.26,3.18-.72,1.52c-.12.25-.21.52-.34.76l-.42.71a18.81,18.81,0,0,1-3.91,5.17,14.27,14.27,0,0,1-5.92,3.22,9.58,9.58,0,0,0,7.36-1.24,14.49,14.49,0,0,0,5.21-5.62,22,22,0,0,0,1.52-3.46,33.4,33.4,0,0,0,.87-3.62c.14-1.22.28-2.44.3-3.66a31.85,31.85,0,0,0-.28-3.66,35,35,0,0,0-1.24,3.4"></path><path class="cls-17" d="M3235.85,2023.67l-1.62-.71a31.66,31.66,0,0,1-3.06-1.73,27.57,27.57,0,0,1-5.49-4.3,35.11,35.11,0,0,1-7.71-11.65,54.48,54.48,0,0,1-3.63-14,34.54,34.54,0,0,0,1.34,14.84,32.57,32.57,0,0,0,3.07,7,31.58,31.58,0,0,0,4.74,6.08,30,30,0,0,0,13.24,7.5,38.23,38.23,0,0,0,14.87,1,66,66,0,0,1-14.11-3.35,15.71,15.71,0,0,1-1.64-.68"></path><path class="cls-17" d="M3134,1992.68a61.74,61.74,0,0,0-.68,8.37,42.71,42.71,0,0,0,.64,8.43c.79-2.74,1.28-5.47,1.81-8.19s.93-5.44,1.33-8.16.76-5.45,1.06-8.2.56-5.51.65-8.36a40.93,40.93,0,0,0-3.06,7.88,64.06,64.06,0,0,0-1.75,8.23"></path><path class="cls-34" d="M3240.14,1508a6.56,6.56,0,1,0,6.56,6.56,6.55,6.55,0,0,0-6.56-6.56"></path><path class="cls-35" d="M3216.1,1500.05c-33.55-10.74-57,12.5-57,12.5l35.16,24.84,56,49.11c13.65-19.8,10.94-38.28,4.81-51.82a64.25,64.25,0,0,0-39-34.63"></path><path class="cls-36" d="M3136.93,1495.29c-13.66,1.72,3.25,21.48,3.25,21.48L3247,1601.88s7.47,5.82,15.16,6.77c11,1.37,1-18.71-25.16-45s-86.37-70.1-100-68.38"></path><path class="cls-36" d="M3150.51,1689.93s-76.05,20-83.86,26.45c-9.93,8.23-69,129.66-69,129.66l-43.18-175.82-25.53-9.43s21.62,221.7,22.59,226.54,25.8,33.86,29,34.51,18.62-11.53,24.19-17.1c8.38-8.38,71-97.41,71-97.41L3103,1976.57l155.2,11.39,73-246.23-93.94-45.35-64.51,10-18.74-3.83Z"></path></g><g class="cls-37"><path class="cls-34" d="M2997.62,1899.54c-14.12,14-15.28,11.61-15.28,11.61-3.87-1.93-20.65-22.58-22.58-30.32s-30.85-220-30.85-220l6.33,256.17,73.2,29,67.24-138.65-3.45-17.12s-63,97.8-74.61,109.32"></path></g><g class="cls-2"><path class="cls-38" d="M3143.59,2010.57a42.35,42.35,0,0,0-12.57,6.9c25.26-10.78,56.51,3.5,70.64,32.72,14.49,30,5.51,64.29-20.07,76.67a45.3,45.3,0,0,1-23.66,4.28,44,44,0,0,0,27.08-.34c26.87-9.25,39.38-43.67,27.94-76.87s-42.5-52.62-69.36-43.36"></path><path class="cls-39" d="M3231.45,2016.58l-303.22-550.22c83.08-56.07,117.43-164.91,76.57-260.49a213.16,213.16,0,0,0-171.77-128l78.84,184.4a16.44,16.44,0,0,1-2.27,16.74l-64,80.11a16.45,16.45,0,0,1-14.47,6.1l-99.94-9.88a16.44,16.44,0,0,1-13.51-9.9l-78.89-184.51a213.19,213.19,0,0,0-26.1,212.66c46.3,108.29,171.62,158.54,279.91,112.24l2.11-.92L3083.9,2080.4a113.35,113.35,0,0,0,6.72,21.14c21.13,49.43,72.26,75,114.2,57s58.8-72.54,37.67-122a114.34,114.34,0,0,0-11-20m-16.58,82.81c-4.13,13.35-12.43,23.28-23.4,28s-23.88,3.83-36.39-2.41c-14.38-7.18-26.19-20.24-33.25-36.75s-8.34-34.08-3.59-49.43c4.12-13.36,12.43-23.29,23.39-28s23.89-3.83,36.39,2.41c14.38,7.19,26.19,20.24,33.25,36.76s8.34,34.07,3.6,49.43"></path><path class="cls-38" d="M2846.15,1079.76q-6.51-1.17-13.12-1.94l78.84,184.4a16.46,16.46,0,0,1,1.11,9.11l3.68-4.6a16.46,16.46,0,0,0,2.27-16.75Z"></path><path class="cls-38" d="M3211.88,2146.34c-41.94,17.93-93.07-7.6-114.2-57a114.58,114.58,0,0,1-6.72-21.14l-189.23-595.55-2.11.92c-108.29,46.3-233.61-4-279.91-112.24a212.83,212.83,0,0,1,8-184.35,213,213,0,0,0-15.07,196.59c46.3,108.29,171.62,158.54,279.91,112.24l2.11-.92,189.23,595.55a114.2,114.2,0,0,0,6.71,21.13c21.14,49.43,72.27,75,114.21,57,17.19-7.35,30.17-20.87,38-37.67a72.4,72.4,0,0,1-31,25.43"></path><path class="cls-40" d="M2938.05,1607.87c-.53-3.84-.58-13.82-.05-16.28s11.68-18.2,12.35-19.26c1.66-2.61,2.47-5.76.17-6.75s-6.77,2.88-6.77,2.88,5.64-6.42,4.2-9-5.11-.82-5.11-.82,6.73-6.34,3.84-10.07c0,0-2-3.42-9.45,3.89s-12.7,11.93-12.7,11.93,4.08-6.63,1.3-8-4.11.12-9.55,4.77-24.7,22.68-24.46,24.38,2.83,36.73,3.75,38.77,32.63,31.8,32.84,32.86.5,3.65.5,3.65l25.53,9.43c-.14-1.06-.09-30.28-.89-33s-15-25.52-15.5-29.35"></path><path class="cls-41" d="M2924.18,1564c-.76.68-18.66,16.74-20,19.58s-1,13.6-1,14a.53.53,0,0,0,.52.51h0a.52.52,0,0,0,.5-.54c0-.11-.39-10.91.89-13.55,1.08-2.21,14.66-14.65,19.8-19.26a.51.51,0,0,0,0-.74.52.52,0,0,0-.73,0"></path><path class="cls-41" d="M2942.46,1558.24c-1,1.07-24.71,26.21-25.95,28.36s-.69,10.51-.62,11.45a.52.52,0,0,0,.52.48h0a.51.51,0,0,0,.48-.56c-.18-2.47-.46-9.22.48-10.84s17.3-19.14,25.81-28.17a.52.52,0,0,0-.76-.72"></path><path class="cls-41" d="M2943.35,1568.12c-.61.74-15,18-16,20.55s-.19,10.14-.16,10.46a.53.53,0,0,0,.52.46h.06a.52.52,0,0,0,.46-.58c0-.07-.8-7.6.1-10,.76-2,11.66-15.29,15.8-20.25a.5.5,0,0,0-.07-.73.51.51,0,0,0-.73.06"></path><path class="cls-34" d="M3286.22,1756.35c-11,20.39-59.36,159.8-63.23,157.63s-138.64-122.36-138.64-122.36L3215.89,1946l51.62-22.34,63.7-181.92s-34-5.77-45,14.62"></path><path class="cls-34" d="M3184.13,1741c38.7-12.75,53.14-44.64,53.14-44.64l-64.51,10c8.8,6.53,11.37,34.64,11.37,34.64"></path><path class="cls-34" d="M3152.73,1735.57s5.22-23.71,20-29.19l-32.58-13.24s-1.21,26.37,12.55,42.43"></path><path class="cls-11" d="M3164,1517.3a7.69,7.69,0,0,1-1.83-1.58c-8.66-10.49,2.8-23.51,2.8-23.51-17.78,2.9-15.12,22.9-15.12,22.9-16.77-.64-22.25,14.84-22.25,14.84-7.75,22.9,13.32,29.71,13.32,29.71l69,68.66c9.46,13.87,25.71,2.26,25.71,2.26-13,4.33-19.61-7-21.42-10.76a.72.72,0,0,1,.73-1c20.21,2,32-16.92,32-16.92-12.63-39.4-74.62-79.36-82.94-84.58"></path><path class="cls-40" d="M3159.21,1538.33s-12.9,2.91-19.67,25.48-19.68,66.45-10,80.32,37.09,6.13,37.09,6.13,1.94,31.28-16.12,39.67l12.9,16.45h9.35L3201,1704l28.81-9.85s-24.19-16.65-19.24-80a2.37,2.37,0,0,1,2.63-2.17c5.77.65,19.84,1,19.84-11.32,0,0,0-10.65-12.9-9.36-13.82,1.38-35.16-9.67-37.74-27.74,0,0-27.74,4.2-23.23-25.16"></path></g><g class="cls-42"><path class="cls-41" d="M3166.63,1650.26l-1.65,8.38v10c23.18,1.28,22-27.73,22-27.73-7.42,5.81-20.32,9.36-20.32,9.36"></path></g><g class="cls-2"><path class="cls-43" d="M3181.64,1559.91a11.28,11.28,0,0,0,.8,3.58,40.2,40.2,0,0,1,.33-7.13c.16-1.17.34-2.34.57-3.51s.5-2.34.71-3.55a18.82,18.82,0,0,0-2.32,6.93,18.1,18.1,0,0,0-.09,3.68"></path><path class="cls-11" d="M3121.15,1545.43c-2.58-14.19,12.46-24.33,12.46-24.33s-19.55,8.52-17.62,28.2,27.3,12.7,27.3,12.7-19.56-2.38-22.14-16.57"></path><path class="cls-36" d="M3215.69,1671c-9.41,28.19-42.93,35.39-42.93,35.39,9.68,7.74,13.66,27.74,13.66,27.74,27.53-5.48,50.85-37.74,50.85-37.74-4.19-14.51-21.58-25.39-21.58-25.39"></path><path class="cls-36" d="M3160.78,1680c-12.3,1-20.6,13.19-20.6,13.19-.32,20.32,11.62,34.85,11.62,34.85,6.45-17.42,21-21.61,21-21.61-21-11.29-12-26.43-12-26.43"></path><path class="cls-36" d="M3331.21,1741.73c-25.8-5.16-40,19.35-43,26.66S3228,1928.81,3228,1928.81l-2.15-.86c-2.15-.86-2.15,3-2.15,3l-139.34-139.34-18.85,9.63s131.82,181.06,135.83,184.33,21.07,13.34,24.51,12.48,15.53-11.66,18.5-13.77,108.81-207.29,108.81-211.16-7.31-18.5-9.89-22.8-12.05-8.6-12.05-8.6"></path><path class="cls-34" d="M3230.53,1943.05a29.23,29.23,0,0,0-3.4-7.35c.72,2.6,1.31,5.17,1.83,7.76.24,1.3.49,2.59.69,3.89.08.65.2,1.29.3,1.94l.23,2c.31,2.6.54,5.22.64,7.85s.1,5.28.19,8a35.19,35.19,0,0,0,1.44-8,42.65,42.65,0,0,0-1.92-16.07"></path><path class="cls-34" d="M3001.15,1857.59c-.42-2-.92-3.91-1.48-5.84a44.76,44.76,0,0,0-2.05-5.71,44.87,44.87,0,0,0,.46,6q.4,3,1,5.93c.41,2,.89,3.91,1.47,5.83a44.9,44.9,0,0,0,2.05,5.72,43.44,43.44,0,0,0-.45-6.06c-.26-2-.62-4-1-5.92"></path><path class="cls-40" d="M3071,1745.17c-1.29-2.79-19.14-30.32-20.22-32s-4.3-4.73-6.88-3,0,7.74,0,7.74,11,24.73,11.18,26.45,1.29,7.1.65,7.74-18.06-3.22-19.36-4.3-37.41-47.31-37.41-47.31-4.52-6.23-8.17-3.87,1.29,9.81,1.29,9.81-4.73,2.88.86,13c0,0-5.59,3.87.64,15.69,0,0-3.22,2.26-.86,8.77s15.27,35.75,17.85,37,49.24,12.47,51,14.19,3.95,6.19,3.95,6.19l18.85-9.63s-4.95-6.67-5.59-8-6.45-35.69-7.74-38.49"></path><path class="cls-41" d="M2992.52,1706.07a.52.52,0,0,0-.73-.11.51.51,0,0,0-.12.72l32.69,45.46a.52.52,0,0,0,.42.22.5.5,0,0,0,.31-.1.53.53,0,0,0,.12-.73Z"></path><path class="cls-41" d="M2993.4,1719.08a.53.53,0,0,0-.73-.15.52.52,0,0,0-.15.72l26,40.21a.51.51,0,0,0,.44.24.6.6,0,0,0,.28-.08.53.53,0,0,0,.16-.72Z"></path><path class="cls-41" d="M2994.06,1734.81a.52.52,0,0,0-.71-.2.51.51,0,0,0-.2.71l17.63,31.39a.51.51,0,0,0,.46.27.47.47,0,0,0,.25-.07.52.52,0,0,0,.2-.71Z"></path><path class="cls-34" d="M3168.67,1732.54a3,3,0,1,0,3,3,3,3,0,0,0-3-3"></path><path class="cls-34" d="M3168.67,1766a3,3,0,1,0,3,3,3,3,0,0,0-3-3"></path><path class="cls-34" d="M3168.67,1799.43a3,3,0,1,0,3,3,3,3,0,0,0-3-3"></path><path class="cls-44" d="M3221.45,1599.4c-3.62.6-6.23,3-5.84,5.34s3.64,3.76,7.26,3.15,6.24-3,5.84-5.34-3.64-3.76-7.26-3.15"></path><path class="cls-39" d="M3171.44,1572.06v3.12s12.9-4.94,26.23,0v-7.42s-15.46-2.92-26.23,4.3"></path><path class="cls-39" d="M3138.67,1556.4V1561c7.87.13,13.74,7.82,13.74,7.82v-3.12c-3.44-8-13.74-9.32-13.74-9.32"></path><path d="M3156.08,1570.05a.52.52,0,0,0-.63.38c0,.15-3.68,14.47-13.08,20.57a3.85,3.85,0,0,0-1.46,4.58l2.41,6.24a.52.52,0,0,0,.49.33l.19,0a.53.53,0,0,0,.3-.68l-2.41-6.24a2.78,2.78,0,0,1,1.05-3.32c9.74-6.32,13.37-20.59,13.52-21.2a.52.52,0,0,0-.38-.63"></path><path class="cls-44" d="M3187.46,1593.78c-5.64,0-10.21,2.75-10.21,6.13s4.57,6.13,10.21,6.13,10.22-2.74,10.22-6.13-4.58-6.13-10.22-6.13"></path><path class="cls-44" d="M3132.61,1579.69c-4.36-1.31-8.53-.25-9.31,2.37s2.11,5.8,6.47,7.11,8.53.24,9.32-2.37-2.12-5.8-6.48-7.11"></path><path d="M3164.83,1611.62a.51.51,0,0,0-.72.17c-2.22,3.64-5,5.84-8.15,6.53-4.9,1.07-9.23-1.82-9.28-1.85a.51.51,0,0,0-.72.14.52.52,0,0,0,.13.72,14.84,14.84,0,0,0,7.61,2.27,11.28,11.28,0,0,0,2.47-.26c3.48-.75,6.45-3.11,8.83-7a.51.51,0,0,0-.17-.71"></path><path d="M3171.44,1582.6c8-3,19,0,19,0-11.61-10.11-19,0-19,0"></path><path d="M3177.89,1579.91a4.52,4.52,0,1,0,4.52,4.52,4.52,4.52,0,0,0-4.52-4.52"></path><path d="M3142.41,1568.09a4.51,4.51,0,1,0,4.52,4.51,4.51,4.51,0,0,0-4.52-4.51"></path><path d="M3136.93,1567.18s7.63,1.66,12.79,7.25c0,0-1.15-10.11-12.79-7.25"></path><path class="cls-36" d="M3222,1564c-6.08,33.41-17,53.6-27.72,66.62a57.44,57.44,0,0,1-43.45,20.88l-8.82.15c1,.42,1.95.8,2.93,1.15,13.7,4.8,30.14,1.56,41-5.11,36-22,45.56-72.73,45.56-72.73l-4.38-5.28Z"></path><path class="cls-34" d="M3264,1944.61l-4.27,7.76-4.11,7.83c-1.31,2.64-2.69,5.25-3.95,7.92-2.59,5.31-5.08,10.67-7.29,16.18,3.36-4.9,6.45-9.93,9.44-15,1.53-2.53,2.95-5.12,4.42-7.68l4.25-7.75,4.11-7.84c1.32-2.64,2.69-5.26,4-7.92,2.58-5.31,5.07-10.67,7.29-16.17-3.36,4.89-6.45,9.93-9.44,15-1.52,2.53-2.95,5.11-4.41,7.67"></path><polygon class="cls-41" points="3064.53 1799.43 3065.5 1801.25 3084.35 1791.62 3080.76 1786.67 3064.53 1799.43"></polygon><g class="cls-45"><g class="cls-46"><path class="cls-11" d="M3172.25,1522.7c17.17,12,56.07,43.49,66.57,88.14,0,0,5.79-5.39,8.13-9-10.52-32.79-55.2-66-74.7-79.18"></path></g></g><path class="cls-34" d="M3166.41,1936.42c-5.44-7.64-11-15.2-16.45-22.8l-16.58-22.7-16.73-22.6c-5.62-7.5-11.19-15-16.86-22.49q-16.9-22.47-34.29-44.58,15.93,23.19,32.33,46c5.43,7.64,11,15.21,16.44,22.8l16.58,22.7,16.72,22.6c5.62,7.5,11.2,15,16.87,22.5s11.32,14.94,17,22.38,11.43,14.85,17.27,22.19c-5.27-7.76-10.7-15.4-16-23.1s-10.82-15.31-16.28-22.92"></path><polygon class="cls-41" points="2928.41 1657.14 2928.91 1660.79 2954.44 1670.22 2954.32 1661.57 2928.41 1657.14"></polygon><path class="cls-31" d="M1438.67,2490.76s-3.05,33.83-8.32,60.41-4.51,28.83-3.76,31.33,9.86,16.8,12.08,18.05,26,2.26,27.53,1.26,9.53-15,10-18.56-8-48.38-8-48.38l-6.42-44.11-8.62-10Z"></path></g><g class="cls-47"><path class="cls-17" d="M1470.46,2591c-3.76,6.52-8.27,6-8.27,6s-12.53.25-19-1-16.55-13.54-16.55-13.54l-.53,27.58,44.91,2.76,21.56-31.59-15-5.77a115,115,0,0,1-7,15.55"></path><path class="cls-17" d="M1450.16,2498.66c-.85,5.07-1.33,10.15-1.67,15.23s-.55,10.18-.59,15.27.07,10.19.36,15.29a93.51,93.51,0,0,0,1.9,15.24c.28-5.12.64-10.18.83-15.26s.37-10.16.4-15.24,0-10.16-.19-15.25-.44-10.18-1-15.28"></path></g><g class="cls-2"><path class="cls-31" d="M1532.86,2473.84l-10.25,64.29s-1.79,12,5.12,13.16,25,1.38,30,1.38,10-4.26,12.53-4.76,7.52,3.76,11.78,4.76,77.22,3,79.72,3.26,6.52-4,0-14-30.83-15.29-51.64-18-52.64-30.83-52.64-30.83-2.26-1.51-1-8,1.79-9.45,1.79-9.45l-19.59-7.59Z"></path></g><g class="cls-48"><path class="cls-17" d="M1662.5,2551.42c-2.78.48-117.08-6.27-128.11-6.52s-12-3.25-12-3.25l-8.56,14.29,115.06,13,43.62-8.53-4.26-13.9s-3,4.4-5.76,4.88"></path></g><g class="cls-2"><path class="cls-22" d="M1447,1932s-9.78,35-4.52,75.21l27.83,141.76s-3.51,3.26-3,5.14a58.14,58.14,0,0,0,2.13,5.64s-26.21,33.25-28.5,62-2.29,269-2.29,269h23.12s54.8-270.76,57.81-286.55,0-38.36,0-38.36l19.3-192.53,57.41,166.21s-2.76,6-1,7.77a36.77,36.77,0,0,0,4.26,3.51s-25.32,25.82-28.83,44.63-37.88,278.4-37.88,278.4l25.38,1.69s80.09-284.83,84.6-298.93,3.39-38.92,2.82-63.17-24.15-283.14-24.15-283.14L1481,1824.65Z"></path></g><g class="cls-49"><g class="cls-26"><g class="cls-50"><path class="cls-28" d="M1559.71,1986c-4.73-17.49-7-43.47,2.51-52.5s18.3-32.84,18.3-32.84c-12.79,27.83-35.85,30.59-35.85,30.59l-5.77,42.11-30.3,486.42,25.38,38.92s22-143.83,33.28-226.18,32.72-103.21,40.61-111.11a19.75,19.75,0,0,0,5.64-17.48s-49.07-140.45-53.8-157.93"></path></g></g><g class="cls-26"><g class="cls-51"><path class="cls-28" d="M1506.47,2165.86c-16.71-.94-22.68-19.15-22.68-19.15s-14.67-67.69-25.38-133.12,31-164.69,31-164.69l10.71-34.41-30.19,6.77-27.34,66-33.27,198,6.2,423.58,27.64-18s7.33-216,10.71-239.15,11.28-71.63,28.73-69.94c13.84,1.35,22.06-9.36,24.88-13.86a1.28,1.28,0,0,0-1-1.95"></path></g></g><path class="cls-17" d="M1501.73,2168.23a12.33,12.33,0,0,1-1.54.69c-.53.18-1,.37-1.56.58a12.46,12.46,0,0,1-1.56.43,7.72,7.72,0,0,1-1.56.32c-.52.06-1,.18-1.57.19a15.84,15.84,0,0,1-6.27-.9c-.51-.17-1-.4-1.55-.58s-1-.46-1.53-.74a30.91,30.91,0,0,1-3.06-1.77,12.88,12.88,0,0,0,5.11,5.32,13.26,13.26,0,0,0,7.48,1.8,14.28,14.28,0,0,0,3.8-.79l.91-.34a3.79,3.79,0,0,0,.87-.39l1.64-1a24.45,24.45,0,0,0,2.87-2.35,29.27,29.27,0,0,0,2.26-2.89c-1.14.5-2.16,1.09-3.17,1.65Z"></path></g><g class="cls-2"><path class="cls-36" d="M1497,1540.83,1423.47,1572l9.57,91.52,47.63,161.8,140.84,5L1654.43,1661s51.17,90.74,54.18,93.75,20.65,14.63,24.09,13.34,18.49-14.63,20.64-18.5,66.24-215,66.24-215l-16.78-20.21-75.69,173.75s-1.29-5.16-3-3.87-3,5.59-3,5.59-31.83-90.31-34-95.9-14.19-23.66-18.06-25.38-65.58-20.3-65.58-20.3l-38.07,8.69Z"></path></g><g class="cls-52"><path class="cls-34" d="M1731.84,1750.46c-19.36-9.46-13.69-52.86-13.69-52.86-4.22,3.05-7.82,12.44-9.11,17.17s-5.16,12.47-8.17,10.11-43-78.06-43-78.06l-3.44,14.19,31.4,110.1,68.81,4.73,3.44,3.44,73.55-247.55h-14.4s-66,228.2-85.38,218.73"></path></g><g class="cls-2"><path class="cls-39" d="M1822.59,1521.23c-.65,1.08-4.73,14-4.73,14l-14.72-20.39-125,562.17a15.53,15.53,0,1,0,30.31,6.75L1835.59,1512c-6.81,4.66-12.73,8.77-13,9.23"></path><polygon class="cls-17" points="1727.26 842.07 1818.92 862.46 1819.83 858.38 1724.09 837.09 1703.1 931.45 1935.98 983.25 1905.3 1121.18 1909.38 1122.09 1940.96 980.08 1708.09 928.28 1727.26 842.07"></polygon><path class="cls-38" d="M2143.73,882.85l-294.17-65.42a48.36,48.36,0,0,0-21,94.42l294.17,65.43a48.37,48.37,0,1,0,21-94.43"></path><path class="cls-39" d="M1914,1088.19a15.53,15.53,0,0,0-18.53,11.79l-77,346.34c10.17-6,20.68-11.6,20.68-11.6s4.09-1.94,6,0,0,5.8-3.87,8.6c-3.47,2.51-21.46,13.45-25.85,16.58l-.21.95-.07-.06-10.65,47.9c-.11.61-.25,1.22-.4,1.79l-1,4.34,14.72,20.39s4.08-12.9,4.73-14c.27-.46,6.19-4.57,13-9.23l14.94-67.2.1-.07,75.18-338a15.53,15.53,0,0,0-11.79-18.53m-90.38,379.27a1.62,1.62,0,0,1,0-.21,2,2,0,0,0,0,.22Z"></path><path class="cls-40" d="M1861.72,1449.84c-1.07-9.68-5.59-9.68-7.09-8.39-.35.3-1.85,1.39-4,2.93l-15,67.62c9.19-6.3,20-13.59,20.76-14.21,1.29-1.07,3.87-6,4.73-8.17s.21-6.88.21-6.88,4.73-4.09,5.81-6-1.72-12.69-1.72-12.69c2.15-15.48-3.66-14.19-3.66-14.19"></path><path class="cls-40" d="M1839.14,1434.36s-10.51,5.65-20.68,11.6c-8.86,5.18-17.47,10.59-18.67,12.7-2.58,4.51,5,44.29,5,47.73a13.18,13.18,0,0,1-.23,2.3l10.65-47.9-.65-.51a6.16,6.16,0,0,1,.93-.74c4.39-3.13,22.38-14.07,25.85-16.58,3.87-2.8,5.81-6.67,3.87-8.6s-6,0-6,0"></path><path class="cls-40" d="M1858.5,1476.5c-1.51-.43-35,15.06-35,15.06s-3.23,1.93-2.8,4.51,5.59,2.37,8.6,1.29,22.8-8.17,24.52-8.6,1.29,2.8,1.29,2.8l6.23-8.82s-1.29-5.81-2.79-6.24"></path><path class="cls-40" d="M1861.29,1461.67c-3.65,1.07-40.68,20.85-40.68,20.85s-5.77,2.8-3.4,6.46c1.85,2.85,8.89,1.32,15.54-1.67L1854,1478l11.4-14s-.43-3.44-4.09-2.36"></path><path class="cls-40" d="M1850.22,1455c-9,5.2-25.63,15.32-29,17.37a6.81,6.81,0,0,0-1.65,1.37,5,5,0,0,0-1.39,4c.53,2.8,4.88,3.43,6.59,2.52l31.07-16.15,5.88-14.32s-1.5-.65-11.5,5.16"></path><path class="cls-40" d="M1826.46,1461.67c-3.65,2.69-2.8,5.8-2.8,5.8s.32,2.29,3,1.63l27.36-16.2-3.35-8.52s-20.53,14.59-24.17,17.29"></path><path class="cls-34" d="M1497,1540.83s14.85,32,59.89,55.24a90.14,90.14,0,0,1,8.48-39.14Z"></path><path class="cls-34" d="M1469.92,1596.07c-9-23.44-35.55-24.51-43.9-24.24-1.61.05-2.55.15-2.55.15l65.8,200.85,127.41,50.57,2.38-10.27s-76-36.43-87.85-47.18-50.54-141.93-61.29-169.88"></path><path class="cls-34" d="M1590.77,1589.21c10.32-18.47,12.7-41,12.7-41l-38.07,8.69c18.92,14.62,25.37,32.28,25.37,32.28"></path><path class="cls-34" d="M1490.38,1361a6.56,6.56,0,1,0,6.36,6.75,6.56,6.56,0,0,0-6.36-6.75"></path><path class="cls-35" d="M1512.24,1354.66a63.81,63.81,0,0,0-40,33.46c-6.53,13.35-9.79,31.75,3.27,51.94l57.44-47.42,41.15-20.18s-25.08-28.06-61.88-17.8"></path><path class="cls-36" d="M1515.74,1403.42s-54.19,39.68-49.19,55.16,120.22-71.49,120.22-71.49,11.72-12.8,7.6-19.52-54.3,16-78.63,35.85"></path><path class="cls-11" d="M1573.8,1379.23c-4.84,1-7.42,5.81-7.42,5.81s3.54-14.19-7.1-25.16c0,0,9,20-7.42,30.64s-51,29-64.18,57.41c0,0,14.51,21.94,26.44,26.13s11.29,16.77,2.26,17.09c0,0,10.84,1.63,12.2-8.7l60.7-50.64s13.22-24.84,12.58-28.71-23.23-24.84-28.06-23.87"></path><path class="cls-40" d="M1571.54,1396.65s9,4.19,12.25,11,21.82,57.49,23.33,67,4.08,34.62-38.07,27.31c0,0-2.58,20.86,14,36.34l-17.63,18.71-59.35-21.08s31.15-14.16,20.57-67.68a1.36,1.36,0,0,0-1.41-1.11c-3.39.19-13,0-14.13-7.55a9.55,9.55,0,0,1,2.05-7.43c1.92-2.37,5.46-4.88,11.32-3.18,0,0,13.54-3.55,14.51-4.84s4.84-17.74,4.84-17.74.32,14.84,1.29,14.52,13.55-4.84,13.87-6.45,4.19-22.9,12.58-37.74"></path></g><g class="cls-53"><path class="cls-41" d="M1549.28,1493.41s-4.27,26.21,23.19,29.56l5.19-8.91-8.61-12.18s-12.35-1.69-19.77-8.47"></path></g><g class="cls-2"><path class="cls-36" d="M1516.51,1524.61a3.19,3.19,0,0,0-3.81-.71c-8.17,4.13-15.67,16.93-15.67,16.93,7.74,18.7,55.15,48.38,55.15,48.38a76.09,76.09,0,0,1,13.22-32.28c-26.32-8.7-44-26.78-48.89-32.32"></path><path class="cls-36" d="M1581.88,1529.11a1.88,1.88,0,0,0-2.65,1.33c-1,4.93-4.28,17.16-13.83,26.49,0,0,17.1,9,25.49,21,0,0,11.29-19.68,12.58-29.68,0,0-12.33-14.79-21.59-19.13"></path><path class="cls-36" d="M1524.54,1771.11c-1.72-.43-6,.86-6,.86s-50.75-169.45-52.9-175.47-16.34-24.09-42.15-24.52c0,0-5.46,2.39-7.08,4.33s-11,16.74-11,18.9,86.44,211.59,89.89,214.6,201.7,68,201.7,68l22.37-19.36-194-80.85s.86-6-.86-6.45"></path><path class="cls-34" d="M1507.67,1783.89a25.45,25.45,0,0,0-1.92,5.52,20.79,20.79,0,0,0-.56,5.78c1.46-3.58,2.73-7.07,4.36-10.38a40.64,40.64,0,0,1,2.72-4.76,26.62,26.62,0,0,1,3.67-4.21A11.79,11.79,0,0,0,1511,1779a19.44,19.44,0,0,0-3.34,4.87"></path><path class="cls-34" d="M1713.13,1709.29a39.48,39.48,0,0,0-1,7.82,22.93,22.93,0,0,0,1.21,7.77,60.23,60.23,0,0,1,.41-7.66c.37-2.51.82-5,1.4-7.45s1.27-4.92,2-7.38l2.24-7.41a35.46,35.46,0,0,0-3.76,6.86,47.17,47.17,0,0,0-2.48,7.45"></path><path class="cls-40" d="M1719.37,1858.41,1697,1877.77s12,4.08,13.34,4.73,31.39,47.52,31.61,49-19.57,19.14-19.57,19.14-6,4.3-3,6.45,6.23-1.08,6.23-1.08l10.54-7.74c1.29,2.37,5.38,0,5.38,0s17-13.55,18.7-15.48a10,10,0,0,0,2.16-4.3s3.87-3.87,5.16-5.59,1.07-5,1.07-5,5.38-6.45,6-7.74-1.72-25.59-3.22-28.6c-.75-1.5-52-23.23-52-23.23"></path><path class="cls-41" d="M1748,1917.48a.54.54,0,0,0-.34.66c2.19,6.86,4.47,14.61,4.41,15.39-.5,1.06-10.25,9.38-16.28,14.37a.51.51,0,0,0-.07.73.52.52,0,0,0,.73.07c6.12-5.06,16.42-13.74,16.63-14.93s-3.33-12.51-4.42-16a.53.53,0,0,0-.66-.34"></path><path class="cls-41" d="M1756.52,1907.16a.51.51,0,0,0-.34.65c2.24,7.39,5.77,19.52,5.69,20.57a.53.53,0,0,0,.36.64l.15,0a.53.53,0,0,0,.5-.38c.31-1.11-3.89-15.16-5.7-21.15a.53.53,0,0,0-.66-.35"></path><path class="cls-41" d="M1764.85,1899a.53.53,0,0,0-.41.62l3.66,18.49a.52.52,0,0,0,.51.42h.1a.52.52,0,0,0,.41-.61l-3.65-18.5a.55.55,0,0,0-.62-.41"></path><path class="cls-34" d="M1568.41,1576.07a3,3,0,1,0,3,3,3,3,0,0,0-3-3"></path><path class="cls-34" d="M1571.42,1624.88a3,3,0,1,0,3,3,3,3,0,0,0-3-3"></path><path class="cls-34" d="M1574.43,1673.7a3,3,0,1,0,3,3,3,3,0,0,0-3-3"></path><path class="cls-44" d="M1521.6,1456.09c-3.25-.31-6.06,1.26-6.28,3.5s2.24,4.32,5.49,4.64,6.07-1.25,6.28-3.5-2.24-4.32-5.49-4.64"></path><path class="cls-44" d="M1549.81,1444c-4.93,0-8.93,2.41-8.93,5.38s4,5.37,8.93,5.37,8.92-2.4,8.92-5.37-4-5.38-8.92-5.38"></path><path class="cls-44" d="M1597.72,1436c-3.69,1.88-5.76,5.2-4.63,7.42s5,2.5,8.72.62,5.76-5.2,4.63-7.42-5-2.5-8.72-.62"></path><path d="M1591.51,1443.9c-8.37-4.59-15.47-18.43-15.54-18.57a.52.52,0,1,0-.93.47c.29.58,7.31,14.27,16,19a2,2,0,0,1,.88,2.45l-2.47,6.54a.52.52,0,0,0,.31.67.39.39,0,0,0,.18,0,.53.53,0,0,0,.49-.34l2.47-6.54a3.05,3.05,0,0,0-1.36-3.74"></path><path d="M1587,1472.68c-9.59.4-11-6.72-11-7a.52.52,0,0,0-1,.18c0,.08,1.48,7.91,11.27,7.91l.81,0a.53.53,0,0,0,.5-.55.5.5,0,0,0-.55-.5"></path><path class="cls-11" d="M1547.05,1428.91l1.57,4.3c7.75-4.8,19.22-2.87,19.22-2.87l-1-2.87a31.78,31.78,0,0,0-19.78,1.44"></path><path class="cls-11" d="M1584,1424.75l.73,2.44s4.46-4.51,9.83-5.77l-.94-3.41s-6.18,2-9.62,6.74"></path><path d="M1553.79,1440.06c6.3-3.27,16-1.69,16-1.69-10.16-7.54-16,1.69-16,1.69"></path><path d="M1585.85,1434.37c2.41-4.8,8-6.31,8-6.31-8.53-2.51-8,6.31-8,6.31"></path><path d="M1563.61,1436.43a3.8,3.8,0,1,0,3.8,3.8,3.8,3.8,0,0,0-3.8-3.8"></path><path d="M1590.57,1429.41a3.8,3.8,0,1,0,3.8,3.8,3.8,3.8,0,0,0-3.8-3.8"></path><path class="cls-36" d="M1536.29,1477.29c-9.12-12.51-18-31.5-23.25-60.29l-5.15,4.34-4.7,4.79s10,49.48,45.45,72.34a47,47,0,0,0,41,5.11c1-.34,2-.72,2.93-1.15l-11.08-.61a60.06,60.06,0,0,1-45.24-24.53"></path><g class="cls-45"><g class="cls-54"><path class="cls-11" d="M1487.68,1447.93l6.39,8.65c7-29.39,57.79-66.06,57.79-66.06-53.53,28-64.18,57.41-64.18,57.41"></path></g></g><path class="cls-34" d="M1509.37,1813.55l-6.79-2.48-3.39-1.25c-1-.38-2.12-.78-3.1-1.17l0,0s.1.13,0,0a.47.47,0,0,0-.12-.07l-.07,0-.05,0,.09,0,0,0,.12,0a2.33,2.33,0,0,1-.15-.23c-.13-.23-.27-.46-.4-.72-.28-.5-.54-1-.8-1.56-.53-1.07-1-2.15-1.53-3.24q-1.5-3.27-2.94-6.58-5.82-13.21-11.42-26.55l-22.66-53.23L1444.73,1690c-3.91-8.82-7.71-17.68-11.69-26.47q10.11,27.12,20.9,54t22,53.52c3.8,8.87,7.61,17.74,11.59,26.54,1,2.2,2,4.4,3.06,6.58.53,1.1,1.06,2.19,1.61,3.28.29.55.56,1.09.88,1.65.14.27.32.56.49.84a5.22,5.22,0,0,0,.33.48,2,2,0,0,0,.32.36,3.92,3.92,0,0,0,.32.25l.17.1.06,0c1.22.48,2.34.86,3.48,1.27l3.43,1.18,6.85,2.32q27.42,9.26,55.08,17.79c-9-3.48-18.07-6.77-27.09-10.17Z"></path><path class="cls-34" d="M1496.09,1808.68c.13.14,0,0,0,0l0,0-.12,0,.12.07"></path><polygon class="cls-41" points="1697 1877.77 1703.66 1880.04 1721.5 1859.32 1719.37 1858.41 1697 1877.77"></polygon><path class="cls-12" d="M1807.44,2187.15v370.54c0,19.38,53.22,35.09,118.87,35.09s118.87-15.71,118.87-35.09V2187.15Z"></path></g><g class="cls-55"><path class="cls-17" d="M1926.31,2556.34c-65.65,0-118.87-15.72-118.87-35.1v89.19h237.74v-89.19c0,19.38-53.22,35.1-118.87,35.1"></path><g class="cls-15"><g class="cls-56"><path class="cls-17" d="M1807.44,2557.69l-27.76,44.53L2069,2614.34l36.38-205.54-60.19-221.65s8.39,370.54-237.74,370.54"></path></g></g></g><g class="cls-2"><path class="cls-57" d="M1807.41,2189.91l-.22,23.42s5-6.1,6.28,8.92,7.66,13.29,10.72,6.4,3.49,2.58,3.06,8.61-4.74,33.83,17.66,25.84c14.23-5.08,21.7,3.22,25.35,11.94a38,38,0,0,1,2.78,12c.85,12,.46,22,.91,25.76,1.29,10.77,11.87,12.73,13.78-15.07,1.6-23.24,7.75-11.63,7.32-2.16s12.49,12.06,13.36-10.33,9.9-28.86,20.24-25.42,21.1,4.66,25-6.93,17.23-21.49,28.85-12.88.44,39.2,12.06,39.2-1.72-25.85,2.16-35.75,12.06-9.48,11.63,1.29-9.54,54.33,2.58,53.84c10.07-.41,8.2-37.67,7.21-60.34,0,0-1.51-19.38,4.08-10.86,3.68,5.6,6.67,6.57,9.38-1.59,3.45-10.34,3-7.63,8.19-3.82s5.16-35.09,5.16-35.09H1807.19a16.6,16.6,0,0,0,.22,3"></path><path class="cls-38" d="M1926.31,2152.05c-65.65,0-118.87,15.71-118.87,35.1s53.22,35.1,118.87,35.1,118.87-15.72,118.87-35.1-53.22-35.1-118.87-35.1"></path><path class="cls-17" d="M2024.56,2177.38c-4.72-2.93-11.92-6.35-22.53-9.56-20.73-6.28-47.62-9.74-75.72-9.74s-55,3.46-75.73,9.74c-11.14,3.37-18.52,7-23.22,10a6.93,6.93,0,0,0,0,11.65c4.7,3,12.08,6.62,23.22,10,20.73,6.28,47.62,9.74,75.73,9.74s55-3.46,75.72-9.74c10.61-3.22,17.81-6.63,22.53-9.56a7.39,7.39,0,0,0,0-12.53"></path><path class="cls-57" d="M1877,2345.36a8.83,8.83,0,1,0,8.83,8.83,8.84,8.84,0,0,0-8.83-8.83"></path><path class="cls-57" d="M1972.06,2441.79a8.83,8.83,0,1,0,8.83,8.83,8.83,8.83,0,0,0-8.83-8.83"></path><path class="cls-57" d="M1948.43,2279.68a14.81,14.81,0,1,0,14.81,14.81,14.81,14.81,0,0,0-14.81-14.81"></path><path class="cls-57" d="M1868.16,2492.65a14.81,14.81,0,1,0,14.81,14.8,14.8,14.8,0,0,0-14.81-14.8"></path><path class="cls-57" d="M2011.91,2313.92a5.5,5.5,0,1,0,5.49,5.49,5.49,5.49,0,0,0-5.49-5.49"></path><path class="cls-57" d="M2013.34,2487.16a5.49,5.49,0,1,0,5.49,5.49,5.49,5.49,0,0,0-5.49-5.49"></path><path class="cls-57" d="M1891.17,2434.66a5.49,5.49,0,1,0,5.49,5.49,5.49,5.49,0,0,0-5.49-5.49"></path><path class="cls-14" d="M1974.06,931.3c-54.38-26.4-97.19-35-138.37-32.66-23.1,1.29-41.74-14.1-41.74-14.1,2.54,8,19.85,53.82,58,45.82s56.37-.24,58.84,6.7c1.8,5.08,0,13.18,7.06,14,7.33.85,12.23-12,16-7.06s-15.3,23.29-2.83,25.88,3.53-23.53,13.18-26.12,17.42,2.35,20.24,7.77,8.94,5.17,13.88,2.11,2.83,14.36,6.36,17.65,9.18-1.64,11.76-6,5.65-8.63,7.77-6.51-2.82,9.18-7.53,15.77-.47,14.59,4.94,3.06,6.59-10.36,6.59-10.36c9.41-1.64-17.65,32.71-4.94,36s8.47-36.71,16.94-35.3,1.88,18.82,20.71,13.88,30.12,5.89,46.12,20,31.07-16.95,34.83-6.59-20.71,49.89-4.71,50.83,12.24-58.36,24.48-51.78,27-30.5,27-30.5c-18.2,25-140.14-6.17-194.52-32.56"></path><path class="cls-17" d="M2844.73,897.83,2866.36,865l-48.14-51.44L2786,834.85a142,142,0,0,0-46.21-24.35l-4.45-39.38-72.46-.64L2655,807.81c-15.11,2.2-42.83,14.32-42.83,14.32l-32.5-24.44-53.56,46.74,21,37.34c-11.17,14.66-20.52,40.39-20.52,40.39l-40.07,5.51L2482,999.1l42.26,9.61c-.23,21.1,15.71,40.71,15.71,40.71l-26.53,35.68,47.43,52.49,37.88-20.62c25.08,19.56,38.1,20.54,38.1,20.54l8.32,40.4,65.44,2.09,13.85-39.47c15.83,1.31,39.68-11.84,39.68-11.84l35,23,51.07-49.89-18.5-36.48c14.68-17.67,20.54-38.11,20.54-38.11l39.34-9,4.55-66.86-39.48-13.85c-3.28-20.38-11.84-39.68-11.84-39.68m-96.57,119a72,72,0,1,1-20.54-99.69,72,72,0,0,1,20.54,99.69"></path><path class="cls-13" d="M3149.46,824.88,3163.19,804l-30.56-32.66-20.47,13.52a90.21,90.21,0,0,0-29.34-15.46l-2.82-25-46-.4-5,23.69c-9.59,1.4-27.19,9.09-27.19,9.09l-20.63-15.51-34,29.67,13.31,23.71c-7.09,9.3-13,25.64-13,25.64l-25.44,3.5-2.86,45.34,26.83,6.1c-.15,13.4,10,25.85,10,25.85l-16.84,22.65,30.12,33.33,24-13.09c15.93,12.41,24.19,13,24.19,13l5.28,25.66,41.55,1.32,8.79-25.06c10.05.84,25.19-7.51,25.19-7.51l22.19,14.61,32.42-31.67-11.74-23.16a74.92,74.92,0,0,0,13-24.19l25-5.73,2.89-42.44L3157,850.08a117.34,117.34,0,0,0-7.52-25.2m-61.31,75.56a45.7,45.7,0,1,1-13-63.3,45.7,45.7,0,0,1,13,63.3"></path><path class="cls-12" d="M2939.1,635.73l10-15.19-22.28-23.81-14.92,9.85a65.9,65.9,0,0,0-21.39-11.27l-2.06-18.22-33.54-.3-3.64,17.28c-7,1-19.83,6.62-19.83,6.62l-15-11.31L2791.62,611l9.7,17.28c-5.17,6.78-9.5,18.69-9.5,18.69l-18.54,2.55-2.09,33.06,19.56,4.45c-.11,9.77,7.27,18.84,7.27,18.84l-12.28,16.52,22,24.29,17.52-9.54c11.61,9.05,17.64,9.5,17.64,9.5l3.85,18.7,30.29,1,6.41-18.27c7.33.61,18.36-5.48,18.36-5.48L2918,753.24l23.64-23.1L2933,713.26a54.57,54.57,0,0,0,9.5-17.64l18.21-4.17,2.1-30.94-18.27-6.41a85.88,85.88,0,0,0-5.47-18.37m-44.71,55.08a33.31,33.31,0,1,1-9.5-46.14,33.31,33.31,0,0,1,9.5,46.14"></path><polygon class="cls-17" points="1539.45 2677.52 1696.94 2732.72 1902.79 2694.77 1799.86 2651.07 1539.45 2677.52"></polygon><polygon class="cls-13" points="1696.94 2749.97 1902.79 2707.42 1902.79 2694.77 1696.94 2732.72 1696.94 2749.97"></polygon><polygon class="cls-38" points="1539.45 2690.16 1696.94 2749.97 1696.94 2732.72 1539.45 2677.52 1539.45 2690.16"></polygon><path class="cls-14" d="M1724.52,2412.14l-112.39,255.69a6.57,6.57,0,0,0-1.9,4.34c0,13,50.07,30.94,111.83,30.94s111.84-18,111.84-30.94a6.43,6.43,0,0,0-1.75-4.16Z"></path><path class="cls-57" d="M1722.06,2573.55c-24.89,0-47.89-1.71-66.47-4.6l-24.2,55.07c20.41,5.68,54.19,14.38,90.67,14.38,38.61,0,71.78-8.58,91.88-14.82l-23.58-54.92c-18.89,3.07-42.58,4.89-68.3,4.89"></path><path class="cls-14" d="M1722.06,2513.17c-14.56,0-28.47-.59-41.22-1.65L1655.59,2569s74,22.44,134.77-.29l-24.15-57.4c-13.54,1.22-28.47,1.9-44.15,1.9"></path><path class="cls-57" d="M1722.94,2454.5c-5.19,0-16.19-1.93-16.19-1.93l-25.91,58.95s44.25,12.2,85.37-.25l-24.75-58.84s-11.9,2.07-18.52,2.07"></path><polygon class="cls-17" points="2468.35 2531.7 2639.92 2563.33 2771.19 2517.33 2554.14 2495.28 2468.35 2531.7"></polygon><polygon class="cls-13" points="2468.35 2542.25 2639.92 2577.71 2639.92 2563.33 2468.35 2531.7 2468.35 2542.25"></polygon><polygon class="cls-38" points="2639.92 2577.71 2771.19 2527.87 2771.19 2517.33 2639.92 2563.33 2639.92 2577.71"></polygon><path class="cls-57" d="M2616.94,2296.14l-89.72,213.26a5.41,5.41,0,0,0-1.45,3.47c0,10.8,41.73,25.79,93.21,25.79s93.21-15,93.21-25.79a5.44,5.44,0,0,0-1.58-3.61Z"></path><path class="cls-14" d="M2619,2430.67c-21.43,0-41.18-1.52-56.92-4.07l-19.65,45.77c16.75,5.21,44.39,12.35,76.57,12.35,30.41,0,58.56-7.25,75.58-12l-20.18-45.9a370.27,370.27,0,0,1-55.4,3.83"></path><path class="cls-57" d="M2619,2380.35c-13.07,0-25.51-.57-36.8-1.59l-20.12,47.84c50.63,19,112.32.24,112.32.24l-21-47.87c-10.63.89-22.22,1.38-34.36,1.38"></path><path class="cls-14" d="M2618.25,2331.45c-5.52,0-15.44-1.72-15.44-1.72l-20.63,49c34.28,10.38,71.16.21,71.16.21l-21.59-49.13s-9.17,1.61-13.5,1.61"></path><path class="cls-14" d="M3342.07,856.42a11.18,11.18,0,1,0,11.18,11.18,11.19,11.19,0,0,0-11.18-11.18"></path><path class="cls-14" d="M3392.64,856.42a11.18,11.18,0,1,0,11.18,11.18,11.19,11.19,0,0,0-11.18-11.18"></path><path class="cls-14" d="M3443.21,856.42a11.18,11.18,0,1,0,11.18,11.18,11.19,11.19,0,0,0-11.18-11.18"></path><path class="cls-14" d="M3493.78,856.42A11.18,11.18,0,1,0,3505,867.6a11.19,11.19,0,0,0-11.18-11.18"></path><path class="cls-14" d="M3342.07,901.89a11.18,11.18,0,1,0,11.18,11.18,11.19,11.19,0,0,0-11.18-11.18"></path><path class="cls-14" d="M3392.64,901.89a11.18,11.18,0,1,0,11.18,11.18,11.19,11.19,0,0,0-11.18-11.18"></path><path class="cls-14" d="M3443.21,901.89a11.18,11.18,0,1,0,11.18,11.18,11.19,11.19,0,0,0-11.18-11.18"></path><path class="cls-14" d="M3493.78,901.89A11.18,11.18,0,1,0,3505,913.07a11.19,11.19,0,0,0-11.18-11.18"></path><path class="cls-14" d="M3342.07,947.37a11.18,11.18,0,1,0,11.18,11.18,11.18,11.18,0,0,0-11.18-11.18"></path><path class="cls-14" d="M3392.64,947.37a11.18,11.18,0,1,0,11.18,11.18,11.18,11.18,0,0,0-11.18-11.18"></path><path class="cls-14" d="M3443.21,947.37a11.18,11.18,0,1,0,11.18,11.18,11.18,11.18,0,0,0-11.18-11.18"></path><path class="cls-14" d="M3493.78,947.37A11.18,11.18,0,1,0,3505,958.55a11.18,11.18,0,0,0-11.18-11.18"></path><path class="cls-14" d="M3342.07,992.84a11.18,11.18,0,1,0,11.18,11.18,11.19,11.19,0,0,0-11.18-11.18"></path><path class="cls-14" d="M3392.64,992.84a11.18,11.18,0,1,0,11.18,11.18,11.19,11.19,0,0,0-11.18-11.18"></path><path class="cls-14" d="M3443.21,992.84a11.18,11.18,0,1,0,11.18,11.18,11.19,11.19,0,0,0-11.18-11.18"></path><path class="cls-14" d="M3493.78,992.84A11.18,11.18,0,1,0,3505,1004a11.19,11.19,0,0,0-11.18-11.18"></path><path class="cls-13" d="M1143,2367.61a9.75,9.75,0,1,0,9.75,9.74,9.74,9.74,0,0,0-9.75-9.74"></path><path class="cls-13" d="M1187.07,2367.61a9.75,9.75,0,1,0,9.74,9.74,9.75,9.75,0,0,0-9.74-9.74"></path><path class="cls-13" d="M1231.14,2367.61a9.75,9.75,0,1,0,9.75,9.74,9.74,9.74,0,0,0-9.75-9.74"></path><path class="cls-13" d="M1275.22,2367.61a9.75,9.75,0,1,0,9.74,9.74,9.75,9.75,0,0,0-9.74-9.74"></path><path class="cls-13" d="M1143,2407.24a9.75,9.75,0,1,0,9.75,9.74,9.74,9.74,0,0,0-9.75-9.74"></path><path class="cls-13" d="M1187.07,2407.24a9.75,9.75,0,1,0,9.74,9.74,9.75,9.75,0,0,0-9.74-9.74"></path><path class="cls-13" d="M1231.14,2407.24a9.75,9.75,0,1,0,9.75,9.74,9.74,9.74,0,0,0-9.75-9.74"></path><path class="cls-13" d="M1275.22,2407.24A9.75,9.75,0,1,0,1285,2417a9.75,9.75,0,0,0-9.74-9.74"></path><path class="cls-13" d="M1143,2446.87a9.75,9.75,0,1,0,9.75,9.75,9.74,9.74,0,0,0-9.75-9.75"></path><path class="cls-13" d="M1187.07,2446.87a9.75,9.75,0,1,0,9.74,9.75,9.75,9.75,0,0,0-9.74-9.75"></path><path class="cls-13" d="M1231.14,2446.87a9.75,9.75,0,1,0,9.75,9.75,9.74,9.74,0,0,0-9.75-9.75"></path><path class="cls-13" d="M1275.22,2446.87a9.75,9.75,0,1,0,9.74,9.75,9.75,9.75,0,0,0-9.74-9.75"></path><path class="cls-13" d="M1143,2486.5a9.75,9.75,0,1,0,9.75,9.75,9.75,9.75,0,0,0-9.75-9.75"></path><path class="cls-13" d="M1187.07,2486.5a9.75,9.75,0,1,0,9.74,9.75,9.76,9.76,0,0,0-9.74-9.75"></path><path class="cls-13" d="M1231.14,2486.5a9.75,9.75,0,1,0,9.75,9.75,9.75,9.75,0,0,0-9.75-9.75"></path><path class="cls-13" d="M1275.22,2486.5a9.75,9.75,0,1,0,9.74,9.75,9.76,9.76,0,0,0-9.74-9.75"></path><path class="cls-38" d="M3738.68,1814.24a9.75,9.75,0,1,0,9.74,9.75,9.75,9.75,0,0,0-9.74-9.75"></path><path class="cls-38" d="M3782.75,1814.24a9.75,9.75,0,1,0,9.74,9.75,9.75,9.75,0,0,0-9.74-9.75"></path><path class="cls-38" d="M3826.82,1814.24a9.75,9.75,0,1,0,9.75,9.75,9.75,9.75,0,0,0-9.75-9.75"></path><path class="cls-38" d="M3870.9,1814.24a9.75,9.75,0,1,0,9.74,9.75,9.76,9.76,0,0,0-9.74-9.75"></path><path class="cls-38" d="M3738.68,1853.88a9.74,9.74,0,1,0,9.74,9.74,9.74,9.74,0,0,0-9.74-9.74"></path><path class="cls-38" d="M3782.75,1853.88a9.74,9.74,0,1,0,9.74,9.74,9.74,9.74,0,0,0-9.74-9.74"></path><path class="cls-38" d="M3826.82,1853.88a9.74,9.74,0,1,0,9.75,9.74,9.74,9.74,0,0,0-9.75-9.74"></path><path class="cls-38" d="M3870.9,1853.88a9.74,9.74,0,1,0,9.74,9.74,9.75,9.75,0,0,0-9.74-9.74"></path><path class="cls-38" d="M3738.68,1893.51a9.75,9.75,0,1,0,9.74,9.74,9.74,9.74,0,0,0-9.74-9.74"></path><path class="cls-38" d="M3782.75,1893.51a9.75,9.75,0,1,0,9.74,9.74,9.74,9.74,0,0,0-9.74-9.74"></path><path class="cls-38" d="M3826.82,1893.51a9.75,9.75,0,1,0,9.75,9.74,9.74,9.74,0,0,0-9.75-9.74"></path><path class="cls-38" d="M3870.9,1893.51a9.75,9.75,0,1,0,9.74,9.74,9.75,9.75,0,0,0-9.74-9.74"></path><path class="cls-38" d="M3738.68,1933.14a9.75,9.75,0,1,0,9.74,9.74,9.74,9.74,0,0,0-9.74-9.74"></path><path class="cls-38" d="M3782.75,1933.14a9.75,9.75,0,1,0,9.74,9.74,9.74,9.74,0,0,0-9.74-9.74"></path><path class="cls-38" d="M3826.82,1933.14a9.75,9.75,0,1,0,9.75,9.74,9.74,9.74,0,0,0-9.75-9.74"></path><path class="cls-38" d="M3870.9,1933.14a9.75,9.75,0,1,0,9.74,9.74,9.75,9.75,0,0,0-9.74-9.74"></path><path class="cls-12" d="M842.64,680.57a12.67,12.67,0,1,0,12.66,12.66,12.66,12.66,0,0,0-12.66-12.66"></path><path class="cls-12" d="M899.91,680.57a12.67,12.67,0,1,0,12.66,12.66,12.66,12.66,0,0,0-12.66-12.66"></path><path class="cls-12" d="M957.18,680.57a12.67,12.67,0,1,0,12.67,12.66,12.66,12.66,0,0,0-12.67-12.66"></path><path class="cls-12" d="M1014.45,680.57a12.67,12.67,0,1,0,12.67,12.66,12.66,12.66,0,0,0-12.67-12.66"></path><path class="cls-12" d="M842.64,732.07a12.66,12.66,0,1,0,12.66,12.66,12.66,12.66,0,0,0-12.66-12.66"></path><path class="cls-12" d="M899.91,732.07a12.66,12.66,0,1,0,12.66,12.66,12.66,12.66,0,0,0-12.66-12.66"></path><path class="cls-12" d="M957.18,732.07a12.66,12.66,0,1,0,12.67,12.66,12.66,12.66,0,0,0-12.67-12.66"></path><path class="cls-12" d="M1014.45,732.07a12.66,12.66,0,1,0,12.67,12.66,12.66,12.66,0,0,0-12.67-12.66"></path><path class="cls-12" d="M842.64,783.57a12.66,12.66,0,1,0,12.66,12.66,12.66,12.66,0,0,0-12.66-12.66"></path><path class="cls-12" d="M899.91,783.57a12.66,12.66,0,1,0,12.66,12.66,12.66,12.66,0,0,0-12.66-12.66"></path><path class="cls-12" d="M957.18,783.57a12.66,12.66,0,1,0,12.67,12.66,12.66,12.66,0,0,0-12.67-12.66"></path><path class="cls-12" d="M1014.45,783.57a12.66,12.66,0,1,0,12.67,12.66,12.66,12.66,0,0,0-12.67-12.66"></path><path class="cls-12" d="M842.64,835.07a12.66,12.66,0,1,0,12.66,12.66,12.66,12.66,0,0,0-12.66-12.66"></path><path class="cls-12" d="M899.91,835.07a12.66,12.66,0,1,0,12.66,12.66,12.66,12.66,0,0,0-12.66-12.66"></path><path class="cls-12" d="M957.18,835.07a12.66,12.66,0,1,0,12.67,12.66,12.66,12.66,0,0,0-12.67-12.66"></path><path class="cls-12" d="M1014.45,835.07a12.66,12.66,0,1,0,12.67,12.66,12.66,12.66,0,0,0-12.67-12.66"></path><path class="cls-14" d="M1133.25,1756a19.82,19.82,0,1,0,19.82,19.82,19.81,19.81,0,0,0-19.82-19.82"></path><path class="cls-14" d="M3454.39,1584.41a38,38,0,1,0,38,37.95,37.95,37.95,0,0,0-38-37.95"></path><path class="cls-14" d="M3742,1304a31.29,31.29,0,1,0,31.29,31.29A31.29,31.29,0,0,0,3742,1304"></path><path class="cls-14" d="M2532.77,520.1A33.85,33.85,0,1,0,2566.62,554a33.85,33.85,0,0,0-33.85-33.85"></path><path class="cls-14" d="M3253.78,360a20.58,20.58,0,1,0,20.58,20.58A20.57,20.57,0,0,0,3253.78,360"></path><path class="cls-14" d="M1204.74,567.21a20.58,20.58,0,1,0,20.58,20.58,20.59,20.59,0,0,0-20.58-20.58"></path><path class="cls-14" d="M726.15,1086.5a23.39,23.39,0,1,0,23.39,23.39,23.39,23.39,0,0,0-23.39-23.39"></path><path class="cls-14" d="M3961.6,1590.4a15.64,15.64,0,1,0,15.64,15.64,15.65,15.65,0,0,0-15.64-15.64"></path><polygon class="cls-17" points="2089.38 436.48 2058.7 466.98 2028.03 497.47 2069.78 508.79 2111.52 520.1 2100.45 478.29 2089.38 436.48"></polygon><polygon class="cls-17" points="2296.61 2384.92 2265.94 2415.41 2235.27 2445.91 2277.01 2457.22 2318.76 2468.54 2307.69 2426.73 2296.61 2384.92"></polygon><polygon class="cls-17" points="3868.43 986.23 3843.99 1007.95 3819.55 1029.67 3850.58 1039.98 3881.61 1050.29 3875.02 1018.26 3868.43 986.23"></polygon><polygon class="cls-17" points="1027.12 1374.67 1049.84 1396.34 1072.56 1418.01 1079.97 1387.5 1087.37 1356.98 1057.24 1365.83 1027.12 1374.67"></polygon></g></g></svg>