<?xml version="1.0" encoding="utf-8"?>
<!-- Generator: Adobe Illustrator 23.0.5, SVG Export Plug-In . SVG Version: 6.00 Build 0)  -->
<svg version="1.1" id="Calque_1" xmlns="http://www.w3.org/2000/svg" xmlns:xlink="http://www.w3.org/1999/xlink" x="0px" y="0px"
	 viewBox="0 0 4680 3120" style="enable-background:new 0 0 4680 3120;" xml:space="preserve">
<style type="text/css">
	.st0{clip-path:url(#SVGID_2_);}
	.st1{clip-path:url(#SVGID_4_);}
	.st2{opacity:0;}
	.st3{clip-path:url(#SVGID_6_);}
	.st4{fill:#FFFFFF;}
	.st5{opacity:0.8;}
	.st6{clip-path:url(#SVGID_8_);}
	.st7{fill:#E9E3FF;}
	.st8{clip-path:url(#SVGID_10_);}
	.st9{clip-path:url(#SVGID_12_);}
	.st10{clip-path:url(#SVGID_14_);}
	.st11{fill:#180031;}
	.st12{fill:#FF9999;}
	.st13{fill:#993333;}
	.st14{fill:#FC89B3;}
	.st15{opacity:0.16;}
	.st16{clip-path:url(#SVGID_16_);}
	.st17{fill:#4D1886;}
	.st18{fill:#CC6666;}
	.st19{fill:#660000;}
	.st20{opacity:0.33;}
	.st21{clip-path:url(#SVGID_18_);}
	.st22{opacity:0.68;}
	.st23{clip-path:url(#SVGID_20_);}
	.st24{fill:#1A0032;}
	.st25{opacity:0.27;}
	.st26{clip-path:url(#SVGID_22_);}
	.st27{clip-path:url(#SVGID_24_);}
	.st28{opacity:0.49;}
	.st29{clip-path:url(#SVGID_26_);}
	.st30{fill:#602F9C;}
	.st31{clip-path:url(#SVGID_28_);}
	.st32{clip-path:url(#SVGID_30_);}
	.st33{clip-path:url(#SVGID_32_);}
	.st34{clip-path:url(#SVGID_34_);}
	.st35{fill:#16061F;}
	.st36{clip-path:url(#SVGID_36_);}
	.st37{clip-path:url(#SVGID_38_);}
	.st38{clip-path:url(#SVGID_40_);}
	.st39{clip-path:url(#SVGID_42_);}
	.st40{fill:#FF8436;}
	.st41{fill:#FFEF2C;}
	.st42{fill:#FFBF40;}
	.st43{clip-path:url(#SVGID_44_);}
	.st44{clip-path:url(#SVGID_46_);}
	.st45{fill:#330000;}
	.st46{fill:#FCCDC3;}
	.st47{fill:#FF9289;}
	.st48{clip-path:url(#SVGID_48_);}
	.st49{clip-path:url(#SVGID_50_);}
	.st50{fill:#C91060;}
	.st51{fill:#FF8B99;}
	.st52{fill:#2C0A56;}
	.st53{opacity:0.44;}
	.st54{clip-path:url(#SVGID_52_);}
	.st55{clip-path:url(#SVGID_54_);}
	.st56{clip-path:url(#SVGID_56_);}
	.st57{clip-path:url(#SVGID_58_);}
	.st58{clip-path:url(#SVGID_60_);}
	.st59{clip-path:url(#SVGID_62_);}
	.st60{clip-path:url(#SVGID_64_);}
	.st61{clip-path:url(#SVGID_66_);}
	.st62{clip-path:url(#SVGID_68_);}
	.st63{clip-path:url(#SVGID_70_);}
	.st64{clip-path:url(#SVGID_72_);}
	.st65{clip-path:url(#SVGID_74_);}
	.st66{clip-path:url(#SVGID_76_);}
	.st67{clip-path:url(#SVGID_78_);}
	.st68{fill:#DDD1FF;}
	.st69{clip-path:url(#SVGID_80_);}
	.st70{clip-path:url(#SVGID_82_);}
	.st71{clip-path:url(#SVGID_84_);}
	.st72{fill:#E92976;}
	.st73{fill:#CC3333;}
	.st74{fill:#720303;}
	.st75{fill:#B53C3C;}
	.st76{fill:#990000;}
	.st77{display:none;fill:#FC89B3;}
</style>
<title>Plan de travail 1</title>
<g>
	<defs>
		<rect id="SVGID_1_" x="-731.3" y="-528.6" width="6142.6" height="4095.1"/>
	</defs>
	<clipPath id="SVGID_2_">
		<use xlink:href="#SVGID_1_"  style="overflow:visible;"/>
	</clipPath>
	<g class="st0">
		<g>
			<defs>
				<rect id="SVGID_3_" x="-731.3" y="-528.6" width="6142.6" height="4095.1"/>
			</defs>
			<clipPath id="SVGID_4_">
				<use xlink:href="#SVGID_3_"  style="overflow:visible;"/>
			</clipPath>
			<g class="st1">
				<g class="st2">
					<g>
						<defs>
							<rect id="SVGID_5_" x="-731.3" y="-528.6" width="6142.6" height="4095.1"/>
						</defs>
						<clipPath id="SVGID_6_">
							<use xlink:href="#SVGID_5_"  style="overflow:visible;"/>
						</clipPath>
						<g class="st3">
							<rect x="-731.3" y="-528.6" class="st4" width="6142.6" height="4095.1"/>
						</g>
					</g>
				</g>
				<g class="st5">
					<g>
						<defs>
							<rect id="SVGID_7_" x="2675.3" y="2883.6" width="1602.9" height="198.9"/>
						</defs>
						<clipPath id="SVGID_8_">
							<use xlink:href="#SVGID_7_"  style="overflow:visible;"/>
						</clipPath>
						<g class="st6">
							<path class="st7" d="M3476.6,2883.6c-442.6,0-801.4,44.5-801.4,99.4c0,54.9,358.8,99.4,801.4,99.4s801.4-44.5,801.4-99.4
								C4278.1,2928.2,3919.3,2883.6,3476.6,2883.6"/>
						</g>
					</g>
				</g>
				<g class="st5">
					<g>
						<defs>
							<rect id="SVGID_9_" x="1253" y="2948.5" width="536.8" height="145.5"/>
						</defs>
						<clipPath id="SVGID_10_">
							<use xlink:href="#SVGID_9_"  style="overflow:visible;"/>
						</clipPath>
						<g class="st8">
							<path class="st7" d="M1521.4,2948.5c-148.2,0-268.4,32.6-268.4,72.7s120.2,72.7,268.4,72.7s268.4-32.6,268.4-72.7
								S1669.6,2948.5,1521.4,2948.5"/>
						</g>
					</g>
				</g>
				<g class="st5">
					<g>
						<defs>
							<rect id="SVGID_11_" x="1096" y="2733.3" width="945.9" height="229.2"/>
						</defs>
						<clipPath id="SVGID_12_">
							<use xlink:href="#SVGID_11_"  style="overflow:visible;"/>
						</clipPath>
						<g class="st9">
							<path class="st7" d="M1569,2733.3c-261.2,0-472.9,51.3-472.9,114.6s211.7,114.6,472.9,114.6s473-51.3,473-114.6
								C2041.9,2784.6,1830.2,2733.3,1569,2733.3"/>
						</g>
					</g>
				</g>
				<g class="st5">
					<g>
						<defs>
							<rect id="SVGID_13_" x="2486.7" y="2742.5" width="443.6" height="116.9"/>
						</defs>
						<clipPath id="SVGID_14_">
							<use xlink:href="#SVGID_13_"  style="overflow:visible;"/>
						</clipPath>
						<g class="st10">
							<path class="st7" d="M2708.5,2742.5c-122.5,0-221.8,26.2-221.8,58.4s99.3,58.4,221.8,58.4c122.5,0,221.8-26.2,221.8-58.4
								S2831,2742.5,2708.5,2742.5"/>
						</g>
					</g>
				</g>
				<path class="st11" d="M3961.2,396.4c-47.4-47.5-111.8-74.2-179-74.1H1195.7c-139.7-0.1-253,113.1-253.1,252.8c0,0.1,0,0.2,0,0.3
					V2300c-0.1,139.7,113.2,253,252.9,253.1c0.1,0,0.1,0,0.2,0h2586.6c139.7,0.1,253-113.1,253.1-252.8c0-0.1,0-0.2,0-0.3V575.4
					C4035.4,508.2,4008.7,443.9,3961.2,396.4"/>
				<path class="st4" d="M3782.3,427.3H1195.7c-81.8,0-148.1,66.3-148.1,148.1V2300c0,81.8,66.3,148.1,148.1,148.1h0h2586.6
					c81.8,0,148.1-66.3,148.1-148.1l0,0V575.4C3930.3,493.6,3864,427.3,3782.3,427.3L3782.3,427.3"/>
				<rect x="2202.5" y="527.2" class="st12" width="1390.3" height="121.7"/>
				<rect x="2202.5" y="786.5" class="st12" width="906.9" height="832"/>
				<polygon class="st13" points="2705.1,1276 2585.5,1069.4 2416.9,1388.6 2895.1,1388.6 2778.2,1192.9 				"/>
				<path class="st13" d="M2473.6,1016.4c-31.3,0-56.7,25.4-56.7,56.7c0,31.3,25.4,56.7,56.7,56.7c31.3,0,56.7-25.4,56.7-56.7
					c0,0,0,0,0,0C2530.2,1041.8,2504.9,1016.4,2473.6,1016.4"/>
				<rect x="3237.6" y="786.5" class="st12" width="357.3" height="832"/>
				<rect x="2202.5" y="1727.6" class="st12" width="1379.2" height="620.7"/>
				<polygon class="st13" points="2941.2,2111.4 2821.7,1904.8 2653,2224 3131.2,2224 3014.3,2028.3 				"/>
				<path class="st13" d="M2709.7,1851.8c-31.3,0-56.7,25.4-56.7,56.7c0,31.3,25.4,56.7,56.7,56.7s56.7-25.4,56.7-56.7c0,0,0,0,0,0
					C2766.4,1877.2,2741,1851.8,2709.7,1851.8C2709.7,1851.8,2709.7,1851.8,2709.7,1851.8"/>
				<path class="st14" d="M2041.9,1147.4V840.8H1655v1607.3h439.3V1406.9c-25.9-0.6-52.4-1.8-52.4-1.8L2041.9,1147.4z"/>
				<g class="st15">
					<g>
						<defs>
							<rect id="SVGID_15_" x="1047.6" y="2065.7" width="2882.7" height="382.4"/>
						</defs>
						<clipPath id="SVGID_16_">
							<use xlink:href="#SVGID_15_"  style="overflow:visible;"/>
						</clipPath>
						<g class="st16">
							<path class="st17" d="M1047.6,2300c0,81.8,66.3,148.1,148.1,148.1h2586.6c81.8,0,148.1-66.3,148.1-148.1l0,0v-234.4
								L1047.6,2300z"/>
						</g>
					</g>
				</g>
				<rect x="3214.9" y="2206.5" class="st18" width="1047.7" height="762.7"/>
				<polygon class="st19" points="3216.1,2285.6 4262.6,2285.6 4262.6,2206.5 3213.7,2206.5 				"/>
				<rect x="3317" y="2460.4" class="st19" width="345.2" height="345.2"/>
				<rect x="3793.9" y="2720.2" class="st19" width="345.2" height="85.4"/>
				<polygon class="st4" points="3952,2326.5 3740.4,2326.2 3528.7,2326.5 3422.8,2326.9 3317,2327.6 3422.8,2328.2 3528.7,2328.6 
					3740.4,2328.9 3952,2328.6 4057.9,2328.2 4163.7,2327.6 4057.9,2326.9 				"/>
				<polygon class="st4" points="3952,2373.5 3740.4,2373.1 3528.7,2373.5 3422.8,2373.9 3317,2374.5 3422.8,2375.2 3528.7,2375.6 
					3740.4,2375.9 3952,2375.6 4057.9,2375.2 4163.7,2374.5 4057.9,2373.8 				"/>
				<polygon class="st4" points="3952,2420.4 3740.4,2420.1 3528.7,2420.4 3422.8,2420.8 3317,2421.5 3422.8,2422.1 3528.7,2422.5 
					3740.4,2422.8 3952,2422.5 4057.9,2422.1 4163.7,2421.5 4057.9,2420.8 				"/>
				<g class="st20">
					<g>
						<defs>
							<rect id="SVGID_17_" x="3214.9" y="2836.6" width="1047.7" height="132.6"/>
						</defs>
						<clipPath id="SVGID_18_">
							<use xlink:href="#SVGID_17_"  style="overflow:visible;"/>
						</clipPath>
						<g class="st21">
							<polygon class="st17" points="4262.6,2969.2 4262.6,2836.6 3214.9,2969.2 							"/>
						</g>
					</g>
				</g>
				<g class="st22">
					<g>
						<defs>
							<rect id="SVGID_19_" x="3214.9" y="2181.2" width="154.4" height="97.7"/>
						</defs>
						<clipPath id="SVGID_20_">
							<use xlink:href="#SVGID_19_"  style="overflow:visible;"/>
						</clipPath>
						<g class="st23">
							<polygon class="st24" points="3215.9,2278.8 3369.3,2236.8 3369.3,2181.2 3214.9,2230 							"/>
						</g>
					</g>
				</g>
				<g class="st25">
					<g>
						<defs>
							<rect id="SVGID_21_" x="3214.9" y="2206.5" width="362" height="707.3"/>
						</defs>
						<clipPath id="SVGID_22_">
							<use xlink:href="#SVGID_21_"  style="overflow:visible;"/>
						</clipPath>
						<g class="st26">
							<path class="st24" d="M3229.9,2381.1l-15,111.2l72.2,260.4l-72.2,131.4v29.8c0,0,49.1-28.7,58.3-37.1
								c9.3-8.3,18.5-35.2,23.2-40.8c4.6-5.6,10.2,0.9,13.9,0s37.1-30.4,35.2-38s-33.4-55.6-45.4-77.8
								c-12-22.2-26.9-156.9-26.9-156.9s23.2-56.2,23.2-64.8c0-8.6-4.2-94.3-4.2-94.3c45.2-5.6,213-116.1,244.3-143.3
								c31.3-27.2,40.4-54.4,40.4-54.4H3527L3229.9,2381.1z"/>
						</g>
					</g>
				</g>
				<path class="st24" d="M3341.5,2065.7l-6.1,37.9c0,0-10.6-1.5-10.2,1.8c0.4,3.3,1.5,8,1.5,8l-214.5,78.5c0,0-19.3,7.3-23.7,20.4
					c-2.2,6.3-4.1,12.8-5.5,19.3c0,0-1.5,9.2,0,15.3s173.4,473.2,173.4,473.2l32.2-11.7c0,0-72-364.4-87.3-399.1
					c-7.5-17.1-23.7-32.5-23.7-32.5s13.1,4,2.9-6.2l183.8-38l72.3-60.2l-24.6-110.4L3341.5,2065.7z"/>
			</g>
		</g>
		<g>
			<defs>
				<path id="SVGID_23_" d="M3341.5,2065.7l-6.1,37.9c0,0-10.6-1.5-10.2,1.8c0.4,3.3,1.5,8,1.5,8l-214.5,78.5
					c0,0-19.3,7.3-23.7,20.4c-2.2,6.3-4.1,12.8-5.5,19.3c0,0-1.5,9.2,0,15.3s173.4,473.2,173.4,473.2l32.2-11.7
					c0,0-72-364.4-87.3-399.1c-7.5-17.1-23.7-32.5-23.7-32.5s13.1,4,2.9-6.2l183.8-38l72.3-60.2l-24.6-110.4L3341.5,2065.7z"/>
			</defs>
			<clipPath id="SVGID_24_">
				<use xlink:href="#SVGID_23_"  style="overflow:visible;"/>
			</clipPath>
			<g class="st27">
				<g class="st28">
					<g>
						<defs>
							<rect id="SVGID_25_" x="3128.2" y="2112.7" width="301.4" height="598.1"/>
						</defs>
						<clipPath id="SVGID_26_">
							<use xlink:href="#SVGID_25_"  style="overflow:visible;"/>
						</clipPath>
						<g class="st29">
							<path class="st30" d="M3381.4,2158.7c5.8,20.8-31.4,55.3-31.4,55.3c-7.5,6.1-16.4,10-25.9,11.5
								c-16.1,2.6-127.1,28.4-134.8,28.8c-7.7,0.4-23.3,2.6-56.2-15.7c0,0-6.8-3.6-4.5,6.3c2.4,9.9,22.4,20.6,34.1,40.9
								c67.5,116.8,120.9,425.1,120.9,425.1l29.3-9.3l116.6-544.7l-48.2-44.2C3381.4,2112.7,3375.6,2137.9,3381.4,2158.7"/>
						</g>
					</g>
				</g>
			</g>
		</g>
		<g>
			<defs>
				<rect id="SVGID_27_" x="-731.3" y="-528.6" width="6142.6" height="4095.1"/>
			</defs>
			<clipPath id="SVGID_28_">
				<use xlink:href="#SVGID_27_"  style="overflow:visible;"/>
			</clipPath>
			<g class="st31">
				<path class="st24" d="M3562.1,2170.2l-16.4-88.1l-162.5-34c0,0,0.5,19-1.7,64.6c-2.2,45.6,24.8,55,24.8,55l-191.3,194.8
					c-15.3,15.6-25.3,35.6-28.5,57.2l-66.2,446.5l34.4,6.6l119.2-353c4.3-10.2,6.3-21.2,6.1-32.2c-0.6-14.4-2.3-57.7-2.8-71.4
					c-0.1-2,0-12.2,2.6-14.8c4.9-5,4.1-7.8,1.3-12.8c23.4-5.2,46-13.2,67.5-23.9c31.2-15.8,155.7-102.1,180.7-119.6
					c1.7-1.1,3.1-2.2,4.4-3.1l0,0C3569.8,2215.7,3562.1,2170.2,3562.1,2170.2"/>
			</g>
		</g>
		<g>
			<defs>
				<path id="SVGID_29_" d="M3381.4,2112.7c-2.2,45.6,24.8,55,24.8,55l-191.3,194.8c-15.3,15.6-25.3,35.6-28.5,57.2l-66.2,446.5
					l34.4,6.6l119.2-353c4.3-10.2,6.3-21.2,6.1-32.2c-0.6-14.4-2.3-57.7-2.8-71.4c-0.1-2,0-12.2,2.6-14.8c4.9-5,4.1-7.8,1.3-12.8
					c23.4-5.2,46-13.2,67.5-23.9c31.2-15.8,155.7-102.1,180.7-119.6c1.7-1.1,3.1-2.2,4.4-3.1l0,0c36.1-26.3,28.5-71.7,28.5-71.7
					l-16.4-88.1l-162.5-34C3383.2,2048.2,3383.6,2067.1,3381.4,2112.7"/>
			</defs>
			<clipPath id="SVGID_30_">
				<use xlink:href="#SVGID_29_"  style="overflow:visible;"/>
			</clipPath>
			<g class="st32">
				<g class="st28">
					<g>
						<defs>
							<rect id="SVGID_31_" x="3149" y="2062.1" width="462.9" height="838.6"/>
						</defs>
						<clipPath id="SVGID_32_">
							<use xlink:href="#SVGID_31_"  style="overflow:visible;"/>
						</clipPath>
						<g class="st33">
							<path class="st30" d="M3533.6,2082.1c0,0,15.3,56.9,13.1,94.9c-2.2,38-5.8,38-110.3,114.6c-54.1,39.8-102.2,63.3-136,76.8
								l-52.7,20.5c-5.2,2-7.7,7.8-5.7,13c0.3,0.7,0.7,1.4,1.1,2.1c10.8,15.6,27,48.6,12.6,92.4c-6.9,20.9-106.7,375.4-106.7,375.4
								l6.4,29.1l89.1-23c0,0,362.8-543.1,367.2-546c4.4-2.9-47.4-267.9-48.9-269.5C3561.2,2060.5,3533.5,2082.1,3533.6,2082.1"/>
						</g>
					</g>
				</g>
			</g>
		</g>
		<g>
			<defs>
				<rect id="SVGID_33_" x="-731.3" y="-528.6" width="6142.6" height="4095.1"/>
			</defs>
			<clipPath id="SVGID_34_">
				<use xlink:href="#SVGID_33_"  style="overflow:visible;"/>
			</clipPath>
			<g class="st34">
				<path d="M3246.3,2595.2l-3.8,10.8l-3.5,10.9c-1.1,3.6-2.3,7.3-3.3,10.9c-2.2,7.3-4.2,14.7-5.8,22.2c3.3-6.9,6.1-14,8.8-21.2
					c1.4-3.5,2.6-7.1,3.9-10.7l3.8-10.8l3.6-10.9c1.1-3.6,2.3-7.3,3.3-10.9c2.2-7.3,4.2-14.7,5.8-22.2c-3.3,6.9-6.1,14-8.8,21.1
					C3248.9,2588,3247.6,2591.6,3246.3,2595.2"/>
				<path d="M3193.1,2391.5c-2.7,5.5-4.8,11.3-6.4,17.2c-0.4,1.5-0.8,3-1.1,4.5s-0.6,3-0.9,4.5c-0.5,3-0.9,6-1.4,9l-2.5,17.9
					c-0.8,6-1.6,11.9-2.3,17.9c-1.5,12-2.8,23.9-3.7,36c2.6-11.8,4.8-23.6,6.9-35.5c1.1-5.9,2-11.9,3-17.8l2.8-17.9
					c0.4-3,0.8-6,1.3-8.9c0.2-1.5,0.5-2.9,0.8-4.4c0.3-1.4,0.6-2.9,1-4.3c1.4-5.8,3.3-11.4,5.6-16.9c4.7-11,11.1-21.2,18.9-30.3
					C3205.8,2370.6,3198.4,2380.5,3193.1,2391.5"/>
				<path class="st35" d="M3120.2,2866.1l-3.5,18.7c-0.1,0.3-0.1,0.6-0.2,1c-0.2,1-1,4.3-5.5,8.3l-63.9,54.8c0,0-8.4,5.1-14.6,8.4
					s-30.5,13.9-41.1,17.1s-13.9,10.4-13.5,14.5c0.3,4.1,5.1,10.3,16.9,12.9c11.8,2.6,61.1-2.9,67.1-5.1c6-2.2,30.7-20.9,34.8-22.8
					c4.1-1.8,7-3.9,12.2,0.4c5.1,4.3,7.9,5.6,13.1,5.1c5.3-0.5,25.7-8.1,25.7-8.1s3.9-0.7,3.9-8.9l0.2-67.2c0-4.2,0.4-8.4,1.1-12.6
					l1.8-9.9L3120.2,2866.1z"/>
			</g>
		</g>
		<g>
			<defs>
				<path id="SVGID_35_" d="M3116.7,2884.8c-0.1,0.3-0.1,0.6-0.2,1c-0.2,1-1,4.3-5.5,8.3l-63.9,54.8c0,0-8.4,5.1-14.6,8.4
					s-30.5,13.9-41.1,17.1s-13.9,10.4-13.5,14.5c0.3,4.1,5.1,10.3,16.9,12.9c11.8,2.6,61.1-2.9,67.1-5.1c6-2.2,30.7-20.9,34.8-22.8
					c4.1-1.8,7-3.9,12.2,0.4c5.1,4.3,7.9,5.6,13.1,5.1c5.3-0.5,25.7-8.1,25.7-8.1s3.9-0.7,3.9-8.9l0.2-67.2c0-4.2,0.4-8.4,1.1-12.6
					l1.8-9.9l-34.4-6.6L3116.7,2884.8z"/>
			</defs>
			<clipPath id="SVGID_36_">
				<use xlink:href="#SVGID_35_"  style="overflow:visible;"/>
			</clipPath>
			<g class="st36">
				<path class="st17" d="M3124.2,2967.6c-10.3,1.4-16.1-3.1-22.9-4.4c-4-0.8-8,0.4-11,3.1c0,0-21.9,17.8-31.1,21.2
					c-9.2,3.5-27.8,5.5-52.2,6.8s-29-5.4-29-5.4l-23.6,15.2l95.2,17.3l102.5-27.4l7.6-34.2l-7.9-1.5
					C3146.4,2962.5,3134.6,2966.2,3124.2,2967.6"/>
			</g>
		</g>
		<g>
			<defs>
				<rect id="SVGID_37_" x="-731.3" y="-528.6" width="6142.6" height="4095.1"/>
			</defs>
			<clipPath id="SVGID_38_">
				<use xlink:href="#SVGID_37_"  style="overflow:visible;"/>
			</clipPath>
			<g class="st37">
				<path class="st35" d="M3256.2,2720.1l5.7,18.1l0.4,0.9c0.4,0.9,1.3,4.3-0.5,10l-27,79.7c0,0-4.6,8.7-8.3,14.6
					s-19.1,27.6-26.7,35.7c-7.5,8.1-6.6,16-4.2,19.4c2.3,3.4,9.6,6.2,21.1,2.5c11.4-3.8,51.1-33.7,55.1-38.6
					c4-5,15.8-33.7,18.4-37.3c2.6-3.6,4.1-6.9,10.7-5.8c6.6,1.1,9.6,0.8,13.9-2.3s18-20.1,18-20.1s2.9-2.6-1.2-9.7l-34.1-57.9
					c-2.2-3.6-4-7.5-5.4-11.4l-3.5-9.4L3256.2,2720.1z"/>
			</g>
		</g>
		<g>
			<defs>
				<path id="SVGID_39_" d="M3256.2,2720.1l5.7,18.1l0.4,0.9c0.4,0.9,1.3,4.3-0.5,10l-27,79.7c0,0-4.6,8.7-8.3,14.6
					c-3.7,6-19.1,27.6-26.7,35.7c-7.5,8.1-6.6,16-4.2,19.4c2.3,3.4,9.6,6.2,21.1,2.5c11.4-3.8,51.1-33.7,55.1-38.6
					c4-4.9,15.8-33.7,18.4-37.3c2.6-3.6,4.1-6.9,10.7-5.8c6.6,1.1,9.6,0.8,13.9-2.3c4.3-3.1,18-20.1,18-20.1s2.9-2.6-1.2-9.7
					l-34.1-57.9c-2.2-3.6-4-7.5-5.4-11.4l-3.5-9.5L3256.2,2720.1z"/>
			</defs>
			<clipPath id="SVGID_40_">
				<use xlink:href="#SVGID_39_"  style="overflow:visible;"/>
			</clipPath>
			<g class="st38">
				<path class="st17" d="M3329.4,2783.7c-2.4,6.3-10.7,15.5-18.8,21.9c-8.2,6.4-15.4,5.6-22,8c-3.8,1.3-6.7,4.4-7.9,8.3
					c0,0-9.8,26.5-16,34.1c-6.2,7.7-21.1,18.9-41.4,32.5c-20.3,13.6-27.8,10.1-27.8,10.1l-12.6,25.1l90.7-33.6l74.2-75.8l-10.9-33.3
					L3329.4,2783.7z"/>
			</g>
		</g>
		<g>
			<defs>
				<rect id="SVGID_41_" x="-731.3" y="-528.6" width="6142.6" height="4095.1"/>
			</defs>
			<clipPath id="SVGID_42_">
				<use xlink:href="#SVGID_41_"  style="overflow:visible;"/>
			</clipPath>
			<g class="st39">
				<path class="st17" d="M3356.7,2081.6c-0.5,1.5-1.1,2.9-1.5,4.3l-1.7,4.2l-0.9,2c-0.2,0.3-0.3,0.7-0.4,1l-0.6,0.9
					c-1.3,2.5-3,4.8-5.1,6.8c-2.2,2-4.9,3.5-7.8,4.2c3.3,0.8,6.8,0.2,9.7-1.6c2.9-1.8,5.3-4.3,6.8-7.4c0.8-1.5,1.5-3,2-4.5
					c0.5-1.6,0.9-3.1,1.1-4.8c0.2-1.6,0.4-3.2,0.4-4.8c0-1.6-0.2-3.2-0.4-4.8C3357.7,2078.6,3357.2,2080.1,3356.7,2081.6"/>
				<path class="st17" d="M3515.8,2127.5l-2.1-0.9c-1.4-0.7-2.7-1.4-4-2.3c-2.6-1.6-5.1-3.5-7.2-5.6c-4.4-4.4-7.8-9.6-10.1-15.3
					c-2.4-5.9-4-12.1-4.8-18.4c-0.8,6.5-0.2,13.2,1.8,19.5c1,3.2,2.3,6.3,4,9.2c1.7,2.9,3.8,5.6,6.2,8c4.9,4.7,10.8,8.1,17.4,9.8
					c6.4,1.7,13,2.2,19.5,1.3c-6.3-0.8-12.5-2.3-18.5-4.4C3517.2,2128.1,3516.5,2127.8,3515.8,2127.5"/>
				<path class="st17" d="M3382.1,2086.8c-0.5,3.6-0.8,7.3-0.9,11c-0.1,3.7,0.2,7.4,0.8,11.1c1-3.6,1.7-7.2,2.4-10.7
					c0.7-3.6,1.2-7.1,1.7-10.7c0.5-3.6,1-7.2,1.4-10.8c0.4-3.6,0.7-7.2,0.9-11c-1.7,3.3-3,6.8-4,10.3
					C3383.4,2079.6,3382.7,2083.2,3382.1,2086.8"/>
				<path class="st40" d="M3521.5,1450.7c-4.8,0-8.6,3.9-8.6,8.6c0,4.8,3.9,8.6,8.6,8.6s8.6-3.9,8.6-8.6
					C3530.1,1454.5,3526.2,1450.7,3521.5,1450.7C3521.5,1450.7,3521.5,1450.7,3521.5,1450.7"/>
				<path class="st41" d="M3489.9,1440.2c-44-14.1-74.8,16.4-74.8,16.4l46.1,32.6l73.5,64.5c17.9-26,14.4-50.2,6.3-68
					C3531.2,1464,3512.6,1447.5,3489.9,1440.2"/>
				<path class="st42" d="M3386,1434c-17.9,2.3,4.3,28.2,4.3,28.2l140.2,111.7c0,0,9.8,7.6,19.9,8.9c14.4,1.8,1.3-24.6-33-59.1
					C3483,1489.2,3404,1431.7,3386,1434"/>
				<path class="st42" d="M3403.8,1689.5c0,0-99.8,26.3-110.1,34.7c-13,10.8-90.6,170.2-90.6,170.2l-56.7-230.8l-33.5-12.4
					c0,0,28.4,291,29.6,297.3c1.3,6.4,33.9,44.4,38.1,45.3s24.4-15.1,31.7-22.4c11-11,93.2-127.9,93.2-127.9l35.8,222.1l203.7,14.9
					l95.8-323.2l-123.3-59.5L3433,1711l-24.6-5L3403.8,1689.5z"/>
			</g>
		</g>
		<g>
			<defs>
				<path id="SVGID_43_" d="M3142.6,1948.5c1.3,6.3,33.9,44.4,38.1,45.3c4.2,0.9,24.5-15.1,31.8-22.4c11-11,93.2-127.9,93.2-127.9
					l35.8,222.1l203.8,15l95.8-323.2l-123.3-59.5l-84.7,13.1l-24.6-5l-4.6-16.6c0,0-99.8,26.3-110.1,34.7
					c-13,10.8-90.6,170.2-90.6,170.2l-56.7-230.8l-33.5-12.4C3113,1651.3,3141.4,1942.2,3142.6,1948.5"/>
			</defs>
			<clipPath id="SVGID_44_">
				<use xlink:href="#SVGID_43_"  style="overflow:visible;"/>
			</clipPath>
			<g class="st43">
				<path class="st40" d="M3203.1,1964.6c-18.5,18.4-20.1,15.2-20.1,15.2c-5.1-2.5-27.1-29.6-29.6-39.8
					c-2.5-10.2-40.5-288.8-40.5-288.8l8.3,336.2l96.1,38.1l88.3-182l-4.5-22.5C3301.1,1821.1,3218.4,1949.5,3203.1,1964.6"/>
			</g>
		</g>
		<g>
			<defs>
				<rect id="SVGID_45_" x="-731.3" y="-528.6" width="6142.6" height="4095.1"/>
			</defs>
			<clipPath id="SVGID_46_">
				<use xlink:href="#SVGID_45_"  style="overflow:visible;"/>
			</clipPath>
			<g class="st44">
				<path class="st18" d="M3394.7,2110.3c-6,2.1-11.6,5.1-16.5,9.1c33.2-14.1,74.2,4.6,92.7,42.9c19,39.4,7.2,84.4-26.3,100.6
					c-9.7,4.6-20.4,6.6-31.1,5.6c11.6,3.6,24,3.4,35.5-0.4c35.3-12.1,51.7-57.3,36.7-100.9S3430,2098.2,3394.7,2110.3"/>
				<path class="st45" d="M3510,2118.2l-398-722.2c109-73.6,154.1-216.4,100.5-341.9c-39.5-92.4-125.6-156.6-225.5-168l103.5,242
					c3.1,7.3,2,15.8-3,22l-84,105.1c-4.6,5.7-11.7,8.7-19,8l-131.2-13c-7.8-0.8-14.6-5.8-17.7-13l-103.5-242.2
					c-60.7,80.1-73.8,186.7-34.3,279.1c60.8,142.1,225.3,208.1,367.4,147.3l2.8-1.2l248.3,781.6c2,9.5,5,18.8,8.8,27.7
					c27.7,64.9,94.8,98.4,149.9,74.8c55-23.6,77.2-95.2,49.4-160.1C3520.6,2135.2,3515.8,2126.4,3510,2118.2 M3488.3,2226.8
					c-5.4,17.5-16.3,30.6-30.7,36.8c-14.4,6.2-31.3,5-47.8-3.2c-18.9-9.4-34.4-26.6-43.6-48.2c-9.3-21.7-10.9-44.7-4.7-64.9
					c5.4-17.5,16.3-30.6,30.7-36.8s31.4-5,47.8,3.2c18.9,9.4,34.4,26.6,43.6,48.2C3492.9,2183.6,3494.6,2206.7,3488.3,2226.8"/>
				<path class="st18" d="M3004.3,888.6c-5.7-1-11.4-1.9-17.2-2.5l103.5,242c1.6,3.8,2.1,7.9,1.5,12l4.8-6c5-6.2,6.1-14.7,3-22
					L3004.3,888.6z"/>
				<path class="st18" d="M3484.4,2288.5c-55,23.5-122.2-10-149.9-74.8c-3.8-8.9-6.8-18.2-8.8-27.7l-248.4-781.7l-2.8,1.2
					c-142.1,60.8-306.6-5.3-367.4-147.3c-33.5-78.1-29.6-167.1,10.5-242c-48.4,77.6-55.8,174-19.8,258
					c60.8,142.1,225.3,208.1,367.4,147.3l2.8-1.2l248.4,781.7c2,9.5,5,18.8,8.8,27.7c27.7,64.9,94.9,98.4,149.9,74.8
					c22.6-9.6,39.6-27.4,49.9-49.4C3514.8,2269.8,3500.7,2281.4,3484.4,2288.5"/>
				<path class="st46" d="M3125,1581.8c-0.7-5-0.8-18.1-0.1-21.4c0.7-3.2,15.3-23.9,16.2-25.3c2.2-3.4,3.2-7.6,0.2-8.9
					c-3-1.3-8.9,3.8-8.9,3.8s7.4-8.4,5.5-11.8s-6.7-1.1-6.7-1.1s8.8-8.3,5-13.2c0,0-2.6-4.5-12.4,5.1c-9.8,9.6-16.7,15.7-16.7,15.7
					s5.4-8.7,1.7-10.5c-3.6-1.8-5.4,0.2-12.5,6.3c-7.1,6.1-32.4,29.8-32.1,32c0.3,2.2,3.7,48.2,4.9,50.9
					c1.2,2.7,42.8,41.7,43.1,43.1c0.3,1.4,0.7,4.8,0.7,4.8l33.5,12.4c-0.2-1.4-0.1-39.7-1.2-43.3
					C3144.2,1616.7,3125.6,1586.8,3125,1581.8"/>
				<path class="st47" d="M3106.7,1524.2c-1,0.9-24.5,22-26.3,25.7c-1.8,3.7-1.3,17.9-1.3,18.4c0,0.4,0.3,0.7,0.7,0.7l0,0
					c0.4,0,0.7-0.3,0.7-0.7c0,0,0,0,0,0c0-0.1-0.5-14.3,1.2-17.8c1.4-2.9,19.2-19.2,26-25.3c0.3-0.3,0.3-0.7,0-0.9c0,0,0,0,0,0
					C3107.4,1523.9,3107,1523.9,3106.7,1524.2"/>
				<path class="st47" d="M3130.7,1516.6c-1.3,1.4-32.4,34.4-34.1,37.2c-1.6,2.8-0.9,13.8-0.8,15c0,0.4,0.3,0.6,0.7,0.6l0,0
					c0.4,0,0.7-0.3,0.6-0.7c0,0,0,0,0,0c-0.2-3.2-0.6-12.1,0.6-14.2c1.2-2.1,22.7-25.1,33.9-37c0.3-0.3,0.2-0.7,0-1
					C3131.4,1516.3,3130.9,1516.3,3130.7,1516.6"/>
				<path class="st47" d="M3131.9,1529.6c-0.8,1-19.7,23.6-21,27c-1.3,3.3-0.2,13.3-0.2,13.7c0,0.3,0.3,0.6,0.7,0.6h0.1
					c0.4,0,0.6-0.4,0.6-0.8c0,0,0,0,0,0c0-0.1-1.1-10,0.1-13.1c1-2.6,15.3-20.1,20.7-26.6c0.2-0.3,0.2-0.7-0.1-0.9c0,0,0,0,0,0
					C3132.6,1529.2,3132.1,1529.2,3131.9,1529.6C3131.9,1529.5,3131.9,1529.5,3131.9,1529.6"/>
				<path class="st40" d="M3581.9,1776.6c-14.4,26.8-77.9,209.7-83,206.9c-5.1-2.8-182-160.6-182-160.6l172.6,202.6l67.8-29.3
					l83.6-238.8C3641,1757.5,3596.4,1749.9,3581.9,1776.6"/>
				<path class="st40" d="M3447.9,1756.5c50.8-16.7,69.7-58.6,69.7-58.6L3433,1711C3444.6,1719.6,3447.9,1756.5,3447.9,1756.5"/>
				<path class="st40" d="M3406.7,1749.4c0,0,6.9-31.1,26.3-38.3l-42.8-17.4C3390.2,1693.7,3388.6,1728.3,3406.7,1749.4"/>
				<path class="st11" d="M3421.5,1462.9c-0.9-0.6-1.7-1.3-2.4-2.1c-11.4-13.8,3.7-30.9,3.7-30.9c-23.3,3.8-19.8,30.1-19.8,30.1
					c-22-0.8-29.2,19.5-29.2,19.5c-10.2,30.1,17.5,39,17.5,39l90.6,90.1c12.4,18.2,33.7,3,33.7,3c-17.1,5.7-25.7-9.2-28.1-14.1
					c-0.2-0.5,0-1,0.5-1.2c0.1-0.1,0.3-0.1,0.5-0.1c26.5,2.6,42-22.2,42-22.2C3513.8,1522.2,3432.4,1469.8,3421.5,1462.9"/>
				<path class="st46" d="M3415.2,1490.5c0,0-16.9,3.8-25.8,33.4c-8.9,29.6-25.8,87.2-13.1,105.4c12.7,18.2,48.7,8,48.7,8
					s2.5,41.1-21.2,52.1l16.9,21.6h12.3l37.1-3.1l37.8-12.9c0,0-31.7-21.9-25.3-105c0.1-1.7,1.6-3,3.3-2.9c0,0,0.1,0,0.1,0
					c7.6,0.9,26,1.3,26-14.9c0,0,0-14-16.9-12.3c-18.1,1.8-46.1-12.7-49.5-36.4C3445.7,1523.6,3409.3,1529.1,3415.2,1490.5"/>
			</g>
		</g>
		<g>
			<defs>
				<path id="SVGID_47_" d="M3389.4,1523.9c-8.9,29.6-25.8,87.2-13.1,105.4c12.7,18.2,48.7,8,48.7,8s2.5,41.1-21.2,52.1l16.9,21.6
					h12.3l37.1-3.1l37.8-12.9c0,0-31.7-21.9-25.3-105c0.1-1.7,1.6-3,3.3-2.9c0,0,0.1,0,0.1,0c7.6,0.9,26,1.3,26-14.9
					c0,0,0-14-16.9-12.3c-18.1,1.8-46.1-12.7-49.5-36.4c0,0-36.4,5.5-30.5-33C3415.2,1490.6,3398.2,1494.4,3389.4,1523.9"/>
			</defs>
			<clipPath id="SVGID_48_">
				<use xlink:href="#SVGID_47_"  style="overflow:visible;"/>
			</clipPath>
			<g class="st48">
				<path class="st47" d="M3425,1637.4l-2.2,11v13.1c30.4,1.7,28.9-36.4,28.9-36.4C3441.9,1632.7,3425,1637.4,3425,1637.4"/>
			</g>
		</g>
		<g>
			<defs>
				<rect id="SVGID_49_" x="-731.3" y="-528.6" width="6142.6" height="4095.1"/>
			</defs>
			<clipPath id="SVGID_50_">
				<use xlink:href="#SVGID_49_"  style="overflow:visible;"/>
			</clipPath>
			<g class="st49">
				<path class="st50" d="M3444.7,1518.8c0.1,1.6,0.4,3.2,1.1,4.7c-0.1-3.1,0-6.3,0.4-9.4c0.2-1.5,0.4-3.1,0.7-4.6
					c0.3-1.5,0.7-3.1,0.9-4.7c-1.6,2.8-2.6,5.9-3,9.1C3444.6,1515.6,3444.5,1517.2,3444.7,1518.8"/>
				<path class="st11" d="M3365.3,1499.8c-3.4-18.6,16.4-31.9,16.4-31.9s-25.7,11.2-23.1,37c2.5,25.8,35.8,16.7,35.8,16.7
					S3368.7,1518.4,3365.3,1499.8"/>
				<path class="st42" d="M3489.4,1664.6c-12.4,37-56.3,46.5-56.3,46.5c12.7,10.2,17.9,36.4,17.9,36.4c36.1-7.2,66.7-49.5,66.7-49.5
					C3512.2,1678.9,3489.4,1664.6,3489.4,1664.6"/>
				<path class="st42" d="M3417.3,1676.4c-16.1,1.3-27,17.3-27,17.3c-0.4,26.7,15.3,45.7,15.3,45.7c8.5-22.9,27.6-28.4,27.6-28.4
					C3405.5,1696.3,3417.3,1676.4,3417.3,1676.4"/>
				<path class="st42" d="M3641,1757.4c-33.9-6.8-52.5,25.4-56.4,35c-3.9,9.6-79,210.6-79,210.6l-2.8-1.1c-2.8-1.1-2.8,3.9-2.8,3.9
					L3317,1822.9l-24.7,12.6c0,0,173,237.6,178.3,241.9c5.3,4.3,27.7,17.5,32.2,16.4c4.5-1.1,20.4-15.3,24.3-18.1
					c3.9-2.8,142.8-272.1,142.8-277.2s-9.6-24.3-13-29.9C3653.4,1763.1,3641,1757.4,3641,1757.4"/>
				<path class="st40" d="M3508.8,2021.7c-1-3.4-2.5-6.7-4.5-9.6c0.9,3.4,1.7,6.8,2.4,10.2c0.3,1.7,0.6,3.4,0.9,5.1
					c0.1,0.9,0.3,1.7,0.4,2.5l0.3,2.6c0.4,3.4,0.7,6.9,0.8,10.3c0.1,3.5,0.1,6.9,0.2,10.5c1-3.4,1.7-6.9,1.9-10.5
					C3511.9,2035.7,3511,2028.5,3508.8,2021.7"/>
				<path class="st40" d="M3207.8,1909.5c-0.6-2.6-1.2-5.1-1.9-7.7c-0.7-2.6-1.6-5.1-2.7-7.5c0,2.6,0.2,5.3,0.6,7.9
					c0.3,2.6,0.8,5.2,1.3,7.8c0.5,2.6,1.2,5.1,1.9,7.7c0.7,2.6,1.6,5.1,2.7,7.5c0-2.7-0.2-5.3-0.6-8
					C3208.7,1914.6,3208.3,1912,3207.8,1909.5"/>
				<path class="st46" d="M3299.5,1762c-1.7-3.7-25.1-39.8-26.5-42c-1.4-2.2-5.6-6.2-9-3.9c-3.4,2.3,0,10.2,0,10.2
					s14.4,32.5,14.7,34.7c0.2,2.3,1.7,9.3,0.9,10.2c-0.8,0.8-23.7-4.2-25.4-5.6c-1.7-1.4-49.1-62.1-49.1-62.1s-5.9-8.2-10.7-5.1
					c-4.8,3.1,1.7,12.9,1.7,12.9s-6.2,3.8,1.1,17.1c0,0-7.3,5.1,0.8,20.6c0,0-4.2,3-1.1,11.5c3.1,8.5,20,46.9,23.4,48.6
					c3.4,1.6,64.6,16.4,66.9,18.6c2.3,2.3,5.2,8.1,5.2,8.1l24.7-12.6c0,0-6.5-8.8-7.3-10.5C3308.8,1810.7,3301.2,1765.6,3299.5,1762
					"/>
				<path class="st47" d="M3196.4,1710.6c-0.2-0.3-0.6-0.4-1-0.1c0,0,0,0,0,0c-0.3,0.2-0.4,0.6-0.2,0.9c0,0,0,0,0,0l42.9,59.7
					c0.1,0.2,0.3,0.3,0.6,0.3c0.1,0,0.3,0,0.4-0.1c0.3-0.2,0.4-0.6,0.2-1L3196.4,1710.6z"/>
				<path class="st47" d="M3197.6,1727.7c-0.2-0.3-0.6-0.4-1-0.2c-0.3,0.2-0.4,0.6-0.2,0.9l0,0l34.1,52.8c0.1,0.2,0.3,0.3,0.6,0.3
					c0.1,0,0.3,0,0.4-0.1c0.3-0.2,0.4-0.6,0.2-0.9L3197.6,1727.7z"/>
				<path class="st47" d="M3198.5,1748.4c-0.2-0.3-0.6-0.4-0.9-0.3c0,0,0,0,0,0c-0.3,0.2-0.5,0.6-0.3,0.9c0,0,0,0,0,0l23.1,41.2
					c0.1,0.2,0.4,0.4,0.6,0.4c0.1,0,0.2,0,0.3-0.1c0.3-0.2,0.4-0.6,0.3-0.9c0,0,0,0,0,0L3198.5,1748.4z"/>
				<path class="st40" d="M3427.6,1745.4c-2.2,0-3.9,1.8-3.9,3.9c0,2.2,1.8,3.9,3.9,3.9c2.2,0,3.9-1.8,3.9-3.9
					C3431.6,1747.1,3429.8,1745.4,3427.6,1745.4"/>
				<path class="st40" d="M3427.6,1789.3c-2.2,0-3.9,1.8-3.9,3.9s1.8,3.9,3.9,3.9c2.2,0,3.9-1.8,3.9-3.9
					S3429.8,1789.3,3427.6,1789.3"/>
				<path class="st40" d="M3427.6,1833.2c-2.2,0-3.9,1.8-3.9,3.9s1.8,3.9,3.9,3.9c2.2,0,3.9-1.8,3.9-3.9
					S3429.8,1833.2,3427.6,1833.2"/>
				<path class="st51" d="M3496.9,1570.6c-4.8,0.8-8.2,3.9-7.7,7s4.8,4.9,9.5,4.1c4.8-0.8,8.2-3.9,7.7-7
					C3505.9,1571.7,3501.7,1569.8,3496.9,1570.6"/>
				<path class="st52" d="M3431.3,1534.8v4.1c0,0,16.9-6.5,34.4,0v-9.7C3465.7,1529.1,3445.4,1525.3,3431.3,1534.8"/>
				<path class="st52" d="M3388.3,1514.2v6c10.3,0.2,18,10.3,18,10.3v-4.1C3401.8,1515.9,3388.3,1514.2,3388.3,1514.2"/>
				<path d="M3411.1,1532.1c-0.4-0.1-0.7,0.1-0.8,0.5c0,0,0,0,0,0c0,0.2-4.8,19-17.2,27c-2,1.3-2.8,3.8-1.9,6l3.2,8.2
					c0.1,0.3,0.4,0.4,0.6,0.4h0.2c0.4-0.1,0.5-0.5,0.4-0.9l-3.2-8.2c-0.6-1.6,0-3.4,1.4-4.4c12.8-8.3,17.5-27,17.7-27.8
					C3411.7,1532.6,3411.5,1532.2,3411.1,1532.1C3411.1,1532.2,3411.1,1532.2,3411.1,1532.1"/>
				<path class="st51" d="M3452.3,1563.3c-7.4,0-13.4,3.6-13.4,8c0,4.4,6,8,13.4,8c7.4,0,13.4-3.6,13.4-8
					S3459.7,1563.3,3452.3,1563.3"/>
				<path class="st51" d="M3380.3,1544.8c-5.7-1.7-11.2-0.3-12.2,3.1c-1,3.4,2.8,7.6,8.5,9.3c5.7,1.7,11.2,0.3,12.2-3.1
					S3386,1546.5,3380.3,1544.8"/>
				<path d="M3422.6,1586.7c-0.3-0.2-0.7-0.1-0.9,0.2c0,0,0,0,0,0c-2.9,4.8-6.6,7.7-10.7,8.6c-6.4,1.4-12.1-2.4-12.2-2.4
					c-0.3-0.2-0.7-0.1-0.9,0.2c0,0,0,0,0,0c-0.2,0.3-0.1,0.7,0.2,0.9c3,1.9,6.4,2.9,10,3c1.1,0,2.2-0.1,3.2-0.3
					c4.6-1,8.5-4.1,11.6-9.2C3423,1587.3,3422.9,1586.9,3422.6,1586.7C3422.6,1586.7,3422.6,1586.7,3422.6,1586.7"/>
				<path d="M3431.3,1548.6c10.5-3.9,24.9,0,24.9,0C3441,1535.3,3431.3,1548.6,3431.3,1548.6"/>
				<path d="M3439.7,1545.1c-3.3,0-5.9,2.7-5.9,5.9c0,3.3,2.7,5.9,5.9,5.9c3.3,0,5.9-2.7,5.9-5.9
					C3445.7,1547.7,3443,1545.1,3439.7,1545.1L3439.7,1545.1"/>
				<path d="M3393.2,1529.5c-3.3,0-5.9,2.7-5.9,5.9s2.7,5.9,5.9,5.9c3.3,0,5.9-2.7,5.9-5.9
					C3399.1,1532.2,3396.5,1529.5,3393.2,1529.5C3393.2,1529.5,3393.2,1529.5,3393.2,1529.5"/>
				<path d="M3386,1528.3c0,0,10,2.2,16.8,9.5C3402.8,1537.9,3401.3,1524.6,3386,1528.3"/>
				<path class="st42" d="M3497.6,1524.2c-8,43.9-22.3,70.4-36.4,87.4c-14.1,17.1-34.9,27.1-57,27.4l-11.6,0.2
					c1.3,0.6,2.6,1.1,3.8,1.5c18,6.3,39.6,2,53.8-6.7c47.3-28.9,59.8-95.5,59.8-95.5l-5.7-6.9L3497.6,1524.2z"/>
				<path class="st40" d="M3552.8,2023.7l-5.6,10.2l-5.4,10.3c-1.7,3.5-3.5,6.9-5.2,10.4c-3.4,7-6.7,14-9.6,21.2
					c4.4-6.4,8.5-13,12.4-19.7c2-3.3,3.9-6.7,5.8-10.1l5.6-10.2l5.4-10.3c1.7-3.5,3.5-6.9,5.3-10.4c3.4-7,6.7-14,9.6-21.2
					c-4.4,6.4-8.5,13-12.4,19.7C3556.6,2017,3554.7,2020.4,3552.8,2023.7"/>
				<polygon class="st47" points="3291,1833.2 3292.2,1835.6 3317,1822.9 3312.3,1816.4 				"/>
				<g class="st53">
					<g>
						<defs>
							<rect id="SVGID_51_" x="3432.3" y="1470" width="98" height="115.7"/>
						</defs>
						<clipPath id="SVGID_52_">
							<use xlink:href="#SVGID_51_"  style="overflow:visible;"/>
						</clipPath>
						<g class="st54">
							<path class="st11" d="M3432.3,1470c22.5,15.8,73.6,57.1,87.4,115.7c0,0,7.6-7.1,10.7-11.8
								C3516.6,1530.8,3457.9,1487.2,3432.3,1470"/>
						</g>
					</g>
				</g>
				<path class="st40" d="M3424.7,2013c-7.1-10-14.4-20-21.6-29.9l-21.8-29.8l-22-29.7c-7.4-9.8-14.7-19.7-22.1-29.5
					c-14.8-19.7-29.8-39.2-45-58.5c13.9,20.3,28.1,40.4,42.4,60.4c7.1,10,14.4,20,21.6,29.9l21.8,29.8l21.9,29.7
					c7.4,9.8,14.7,19.7,22.1,29.5c7.4,9.8,14.9,19.6,22.3,29.4c7.5,9.8,15,19.5,22.7,29.1c-6.9-10.2-14-20.2-21-30.3
					C3439.1,2032.9,3431.9,2022.9,3424.7,2013"/>
				<polygon class="st47" points="3112.3,1646.4 3113,1651.2 3146.5,1663.6 3146.3,1652.2 				"/>
				<path class="st35" d="M1157,2740.6c0,0-4,44.4-10.9,79.3s-5.9,37.8-4.9,41.1c1,3.3,12.9,22.1,15.9,23.7c2.9,1.6,34.1,3,36.1,1.7
					s12.5-19.7,13.1-24.4s-10.5-63.5-10.5-63.5l-8.4-57.9l-11.3-13.1L1157,2740.6z"/>
			</g>
		</g>
		<g>
			<defs>
				<path id="SVGID_53_" d="M1157,2740.6c0,0-4,44.4-10.9,79.3s-5.9,37.8-4.9,41.1c1,3.3,12.9,22.1,15.9,23.7
					c2.9,1.6,34.1,3,36.1,1.7s12.5-19.7,13.1-24.3c0.6-4.7-10.5-63.5-10.5-63.5l-8.4-57.9l-11.3-13.1L1157,2740.6z"/>
			</defs>
			<clipPath id="SVGID_54_">
				<use xlink:href="#SVGID_53_"  style="overflow:visible;"/>
			</clipPath>
			<g class="st55">
				<path class="st17" d="M1198.7,2872.1c-4.9,8.6-10.9,7.9-10.9,7.9s-16.4,0.3-24.9-1.3s-21.7-17.8-21.7-17.8l-0.7,36.2l58.9,3.6
					l28.3-41.5l-19.7-7.6c-2.6,7-5.6,13.8-9.2,20.4"/>
				<path class="st17" d="M1172.1,2750.9c-1.1,6.7-1.7,13.3-2.2,20c-0.4,6.7-0.7,13.4-0.8,20c-0.1,6.7,0.1,13.4,0.5,20.1
					c0.3,6.7,1.1,13.4,2.5,20c0.4-6.7,0.8-13.4,1.1-20s0.5-13.3,0.5-20s0-13.3-0.2-20C1173.2,2764.3,1172.9,2757.6,1172.1,2750.9"/>
			</g>
		</g>
		<g>
			<defs>
				<rect id="SVGID_55_" x="-731.3" y="-528.6" width="6142.6" height="4095.1"/>
			</defs>
			<clipPath id="SVGID_56_">
				<use xlink:href="#SVGID_55_"  style="overflow:visible;"/>
			</clipPath>
			<g class="st56">
				<path class="st35" d="M1280.6,2718.4l-13.5,84.4c0,0-2.3,15.8,6.7,17.3c9.1,1.5,32.8,1.8,39.4,1.8s13.1-5.6,16.4-6.2
					c3.3-0.7,9.9,4.9,15.5,6.2c5.6,1.3,101.4,3.9,104.6,4.3c3.3,0.3,8.6-5.3,0-18.4s-40.5-20.1-67.8-23.6s-69.1-40.5-69.1-40.5
					s-3-2-1.3-10.5s2.3-12.4,2.3-12.4l-25.7-10L1280.6,2718.4z"/>
			</g>
		</g>
		<g>
			<defs>
				<path id="SVGID_57_" d="M1280.6,2718.4l-13.5,84.4c0,0-2.3,15.8,6.7,17.3c9.1,1.5,32.8,1.8,39.4,1.8s13.1-5.6,16.4-6.2
					c3.3-0.7,9.9,4.9,15.5,6.2c5.6,1.3,101.4,3.9,104.6,4.3c3.3,0.3,8.6-5.3,0-18.4s-40.5-20.1-67.8-23.6s-69.1-40.5-69.1-40.5
					s-3-2-1.3-10.5s2.3-12.4,2.3-12.4l-25.7-10L1280.6,2718.4z"/>
			</defs>
			<clipPath id="SVGID_58_">
				<use xlink:href="#SVGID_57_"  style="overflow:visible;"/>
			</clipPath>
			<g class="st57">
				<path class="st17" d="M1450.8,2820.2c-3.6,0.6-153.7-8.2-168.1-8.6s-15.8-4.3-15.8-4.3l-11.2,18.8l151,17.1l57.3-11.2l-5.6-18.2
					C1458.3,2813.7,1454.4,2819.5,1450.8,2820.2"/>
			</g>
		</g>
		<g>
			<defs>
				<rect id="SVGID_59_" x="-731.3" y="-528.6" width="6142.6" height="4095.1"/>
			</defs>
			<clipPath id="SVGID_60_">
				<use xlink:href="#SVGID_59_"  style="overflow:visible;"/>
			</clipPath>
			<g class="st58">
				<path class="st24" d="M1167.9,2007.2c0,0-12.8,45.9-5.9,98.7l36.5,186.1c0,0-4.6,4.3-3.9,6.7c0.8,2.5,1.7,5,2.8,7.4
					c0,0-34.4,43.6-37.4,81.4c-3,37.7-3,353.1-3,353.1h30.3c0,0,71.9-355.4,75.9-376.1c4-20.7,0-50.3,0-50.3l25.3-252.7l75.4,218.2
					c0,0-3.6,7.9-1.3,10.2c1.7,1.7,3.6,3.2,5.6,4.6c0,0-33.2,33.9-37.8,58.6c-4.6,24.7-49.7,365.4-49.7,365.4l33.3,2.2
					c0,0,105.1-373.8,111-392.4c5.9-18.5,4.4-51.1,3.7-82.9c-0.7-31.8-31.7-371.6-31.7-371.6l-184.4-7.4L1167.9,2007.2z"/>
			</g>
		</g>
		<g>
			<defs>
				<path id="SVGID_61_" d="M1167.9,2007.2c0,0-12.8,45.9-5.9,98.7l36.5,186.1c0,0-4.6,4.3-3.9,6.7c0.8,2.5,1.7,5,2.8,7.4
					c0,0-34.4,43.6-37.4,81.4c-3,37.7-3,353.1-3,353.1h30.3c0,0,71.9-355.4,75.9-376.1c4-20.7,0-50.3,0-50.3l25.3-252.7l75.4,218.2
					c0,0-3.6,7.9-1.3,10.2c1.7,1.7,3.6,3.2,5.6,4.6c0,0-33.2,33.9-37.8,58.6c-4.6,24.7-49.7,365.4-49.7,365.4l33.3,2.2
					c0,0,105.1-373.8,111-392.4c5.9-18.5,4.4-51.1,3.7-82.9c-0.7-31.8-31.7-371.6-31.7-371.6l-184.4-7.4L1167.9,2007.2z"/>
			</defs>
			<clipPath id="SVGID_62_">
				<use xlink:href="#SVGID_61_"  style="overflow:visible;"/>
			</clipPath>
			<g class="st59">
				<g class="st28">
					<g>
						<defs>
							<rect id="SVGID_63_" x="1248.8" y="1966" width="138.1" height="784.9"/>
						</defs>
						<clipPath id="SVGID_64_">
							<use xlink:href="#SVGID_63_"  style="overflow:visible;"/>
						</clipPath>
						<g class="st60">
							<path class="st30" d="M1315.9,2078.1c-6.2-23-9.2-57.1,3.3-68.9c12.5-11.9,24-43.1,24-43.1c-16.8,36.5-47.1,40.1-47.1,40.1
								l-7.6,55.3l-39.8,638.4l33.3,51.1c0,0,28.9-188.8,43.7-296.9c14.8-108.1,42.9-135.5,53.3-145.8c6.1-6,8.9-14.5,7.4-22.9
								C1386.5,2285.3,1322.1,2101,1315.9,2078.1"/>
						</g>
					</g>
				</g>
				<g class="st28">
					<g>
						<defs>
							<rect id="SVGID_65_" x="1118.5" y="1852.9" width="129.1" height="911.3"/>
						</defs>
						<clipPath id="SVGID_66_">
							<use xlink:href="#SVGID_65_"  style="overflow:visible;"/>
						</clipPath>
						<g class="st61">
							<path class="st30" d="M1246,2314.1c-21.9-1.2-29.8-25.1-29.8-25.1s-19.3-88.8-33.3-174.7s40.7-216.2,40.7-216.2l14.1-45.2
								l-39.6,8.9l-35.9,86.6l-43.7,259.9l8.1,556l36.3-23.6c0,0,9.6-283.5,14.1-313.9s14.8-94,37.7-91.8
								c18.2,1.8,29-12.3,32.7-18.2c0.5-0.8,0.2-1.8-0.5-2.3c-0.2-0.1-0.5-0.2-0.8-0.2"/>
						</g>
					</g>
				</g>
				<path class="st17" d="M1239.8,2317.2c-0.7,0.3-1.3,0.7-2,0.9c-0.7,0.2-1.3,0.5-2,0.8c-0.7,0.2-1.4,0.4-2,0.6
					c-0.7,0.2-1.4,0.4-2,0.4c-0.7,0.1-1.3,0.2-2.1,0.2c-2.8,0.2-5.6-0.2-8.2-1.2c-0.7-0.2-1.3-0.5-2-0.8c-0.7-0.2-1.3-0.6-2-1
					c-1.4-0.7-2.7-1.5-4-2.3c1.5,2.9,3.8,5.4,6.7,7c3,1.7,6.4,2.6,9.8,2.4c1.7-0.1,3.4-0.5,5-1l1.2-0.4c0.4-0.1,0.8-0.3,1.1-0.5
					l2.2-1.3c1.3-0.9,2.6-2,3.8-3.1c1.1-1.2,2.1-2.5,3-3.8c-1.5,0.7-2.8,1.4-4.2,2.2L1239.8,2317.2z"/>
			</g>
		</g>
		<g>
			<defs>
				<rect id="SVGID_67_" x="-731.3" y="-528.6" width="6142.6" height="4095.1"/>
			</defs>
			<clipPath id="SVGID_68_">
				<use xlink:href="#SVGID_67_"  style="overflow:visible;"/>
			</clipPath>
			<g class="st62">
				<path class="st42" d="M1233.5,1493.8l-96.5,40.9l12.6,120.1l62.5,212.4l184.9,6.6l43.2-222.2c0,0,67.2,119.1,71.1,123
					s27.1,19.2,31.6,17.5c4.5-1.7,24.3-19.2,27.1-24.3c2.8-5.1,86.9-282.2,86.9-282.2l-22-26.5l-99.3,228.1c0,0-1.7-6.8-3.9-5.1
					c-2.2,1.7-3.9,7.3-3.9,7.3s-41.8-118.5-44.6-125.9c-2.8-7.3-18.6-31.1-23.7-33.3c-5.1-2.3-86.1-26.6-86.1-26.6l-50,11.4
					L1233.5,1493.8z"/>
			</g>
		</g>
		<g>
			<defs>
				<path id="SVGID_69_" d="M1535.6,1687.1c0,0-1.7-6.8-3.9-5.1c-2.2,1.7-3.9,7.3-3.9,7.3s-41.8-118.5-44.6-125.9
					c-2.8-7.3-18.6-31.1-23.7-33.3c-5.1-2.3-86.1-26.6-86.1-26.6l-50,11.4l-89.7-21.1l-96.5,40.9l12.6,120.1l62.5,212.4l184.9,6.6
					l43.2-222.2c0,0,67.2,119.1,71.1,123s27.1,19.2,31.6,17.5c4.5-1.7,24.3-19.2,27.1-24.3c2.8-5.1,86.9-282.2,86.9-282.2l-22-26.5
					L1535.6,1687.1z"/>
			</defs>
			<clipPath id="SVGID_70_">
				<use xlink:href="#SVGID_69_"  style="overflow:visible;"/>
			</clipPath>
			<g class="st63">
				<path class="st40" d="M1541.8,1768.9c-25.4-12.4-18-69.4-18-69.4c-5.5,4-10.3,16.3-12,22.5s-6.8,16.4-10.7,13.3
					c-4-3.1-56.4-102.5-56.4-102.5l-4.5,18.6l41.2,144.5l90.3,6.2l4.5,4.5l96.5-324.9h-18.9
					C1653.9,1481.8,1567.2,1781.3,1541.8,1768.9"/>
			</g>
		</g>
		<g>
			<defs>
				<rect id="SVGID_71_" x="-731.3" y="-528.6" width="6142.6" height="4095.1"/>
			</defs>
			<clipPath id="SVGID_72_">
				<use xlink:href="#SVGID_71_"  style="overflow:visible;"/>
			</clipPath>
			<g class="st64">
				<path class="st52" d="M1660.9,1468c-0.9,1.4-6.2,18.4-6.2,18.4l-19.3-26.8l-164.1,737.9c-2.7,10.9,4,22,14.9,24.7
					c10.9,2.7,22-4,24.7-14.9c0.1-0.3,0.1-0.6,0.2-0.9l166.9-750.4C1669,1462,1661.2,1467.4,1660.9,1468"/>
				<polygon class="st17" points="1535.8,576.6 1656.1,603.4 1657.3,598 1531.6,570.1 1504.1,693.9 1809.7,761.9 1769.4,943 
					1774.8,944.2 1816.3,757.8 1510.6,689.8 				"/>
				<path class="st18" d="M2082.4,630.2l-386.1-85.9c-34.2-7.6-68.1,14-75.7,48.2c-7.6,34.2,14,68.1,48.2,75.7l386.1,85.9
					c34.2,7.9,68.3-13.4,76.1-47.6s-13.4-68.3-47.6-76.1C2083.1,630.3,2082.7,630.2,2082.4,630.2"/>
				<path class="st52" d="M1780.9,899.7c-11-2.4-21.9,4.5-24.3,15.5v0l-101.1,454.6c13.3-7.9,27.1-15.2,27.1-15.2s5.4-2.5,7.9,0
					c2.5,2.5,0,7.6-5.1,11.3c-4.6,3.3-28.2,17.7-33.9,21.8l-0.3,1.2l-0.1-0.1l-14,62.9c-0.1,0.8-0.3,1.6-0.5,2.3l-1.3,5.7l19.3,26.8
					c0,0,5.4-16.9,6.2-18.4c0.4-0.6,8.1-6,17.1-12.1l19.6-88.2l0.1-0.1l98.7-443.6C1798.8,913,1791.8,902.1,1780.9,899.7
					L1780.9,899.7 M1662.2,1397.4c0-0.1,0-0.2,0-0.3C1662.2,1397.3,1662.2,1397.4,1662.2,1397.4L1662.2,1397.4z"/>
				<path class="st46" d="M1712.2,1374.3c-1.4-12.7-7.3-12.7-9.3-11c-0.5,0.4-2.4,1.8-5.3,3.8l-19.7,88.8
					c12.1-8.3,26.3-17.8,27.2-18.7c1.7-1.4,5.1-7.9,6.2-10.7c1.1-2.8,0.3-9,0.3-9s6.2-5.4,7.6-7.9c1.4-2.5-2.3-16.7-2.3-16.7
					C1719.9,1372.7,1712.3,1374.4,1712.2,1374.3"/>
				<path class="st46" d="M1682.6,1354c0,0-13.8,7.4-27.1,15.2c-11.6,6.8-22.9,13.9-24.5,16.7c-3.4,5.9,6.6,58.1,6.6,62.6
					c0,1-0.1,2-0.3,3l14-62.9l-0.9-0.7c0.4-0.4,0.8-0.7,1.2-1c5.8-4.1,29.4-18.5,33.9-21.8c5.1-3.7,7.6-8.8,5.1-11.3
					S1682.7,1354,1682.6,1354"/>
				<path class="st46" d="M1708,1409.3c-2-0.6-45.9,19.8-45.9,19.8s-4.2,2.5-3.7,5.9c0.6,3.4,7.3,3.1,11.3,1.7s29.9-10.7,32.2-11.3
					c2.3-0.6,1.7,3.7,1.7,3.7l8.2-11.6C1711.7,1417.5,1710.1,1409.9,1708,1409.3"/>
				<path class="st46" d="M1711.7,1389.9c-4.8,1.4-53.4,27.4-53.4,27.4s-7.6,3.7-4.5,8.5c2.4,3.7,11.7,1.7,20.4-2.2l27.9-12.2
					l15-18.4C1717.1,1392.9,1716.5,1388.4,1711.7,1389.9"/>
				<path class="st46" d="M1697.2,1381.1c-11.8,6.8-33.6,20.1-38.1,22.8c-0.8,0.5-1.5,1.1-2.2,1.8c-1.4,1.4-2,3.3-1.8,5.3
					c0.7,3.7,6.4,4.5,8.6,3.3l40.8-21.2l7.7-18.8C1712.2,1374.3,1710.3,1373.4,1697.2,1381.1"/>
				<path class="st46" d="M1666,1389.9c-4.8,3.5-3.7,7.6-3.7,7.6s0.4,3,3.9,2.1l35.9-21.3l-4.4-11.2
					C1697.7,1367.2,1670.8,1386.3,1666,1389.9"/>
				<path class="st40" d="M1233.5,1493.8c0,0,19.5,42,78.6,72.5c-0.2-17.7,3.6-35.3,11.1-51.4L1233.5,1493.8z"/>
				<path class="st40" d="M1198,1566.3c-11.8-30.8-46.7-32.2-57.6-31.8c-2.1,0.1-3.3,0.2-3.3,0.2l86.4,263.6l167.2,66.4l3.1-13.5
					c0,0-99.8-47.8-115.3-61.9S1212.1,1602.9,1198,1566.3"/>
				<path class="st40" d="M1356.6,1557.3c13.5-24.2,16.7-53.8,16.7-53.8l-50,11.4C1348.2,1534,1356.6,1557.2,1356.6,1557.3"/>
				<path class="st40" d="M1224.9,1257.7c-4.8-0.1-8.7,3.6-8.9,8.3c-0.1,4.8,3.6,8.7,8.3,8.9c4.8,0.1,8.7-3.6,8.9-8.3c0,0,0,0,0,0
					C1233.3,1261.8,1229.6,1257.9,1224.9,1257.7"/>
				<path class="st41" d="M1253.5,1249.4c-23,6.5-42.1,22.5-52.5,43.9c-8.6,17.5-12.8,41.7,4.3,68.2l75.4-62.2l54-26.5
					C1334.7,1272.8,1301.8,1235.9,1253.5,1249.4"/>
				<path class="st42" d="M1258.1,1313.4c0,0-71.1,52.1-64.6,72.4s157.8-93.8,157.8-93.8s15.4-16.8,10-25.6
					C1355.9,1257.5,1290.1,1287.4,1258.1,1313.4"/>
				<path class="st11" d="M1334.3,1281.7c-6.4,1.3-9.7,7.6-9.7,7.6s4.6-18.6-9.3-33c0,0,11.8,26.3-9.7,40.2s-66.9,38.1-84.2,75.4
					c0,0,19,28.8,34.7,34.3c15.7,5.5,14.8,22,3,22.4c0,0,14.2,2.1,16-11.4l79.7-66.5c0,0,17.4-32.6,16.5-37.7
					C1370.3,1307.9,1340.7,1280.4,1334.3,1281.7"/>
				<path class="st46" d="M1331.4,1304.5c0,0,11.8,5.5,16.1,14.4c4.3,8.9,28.6,75.5,30.6,87.9s5.4,45.4-50,35.8
					c0,0-3.4,27.4,18.4,47.7l-23.1,24.6l-77.9-27.7c0,0,40.9-18.6,27-88.8c-0.2-0.9-1-1.5-1.9-1.5c-4.4,0.2-17.1,0-18.5-9.9
					c-0.5-3.5,0.5-7,2.7-9.8c2.5-3.1,7.2-6.4,14.9-4.2c0,0,17.8-4.7,19-6.4s6.4-23.3,6.4-23.3s0.4,19.5,1.7,19.1
					c1.3-0.4,17.8-6.4,18.2-8.5c0.4-2.1,5.5-30.1,16.5-49.5"/>
			</g>
		</g>
		<g>
			<defs>
				<path id="SVGID_73_" d="M1314.9,1354.1c-0.4,2.1-16.9,8-18.2,8.5s-1.7-19.1-1.7-19.1s-5.1,21.6-6.4,23.3
					c-1.3,1.7-19.1,6.4-19.1,6.4c-7.7-2.2-12.3,1.1-14.8,4.2c-2.2,2.7-3.2,6.3-2.7,9.8c1.5,9.9,14.1,10.1,18.5,9.9
					c0.9,0,1.7,0.6,1.9,1.5c13.9,70.2-27,88.8-27,88.8l77.9,27.7l23.1-24.6c-21.7-20.3-18.4-47.7-18.4-47.7
					c55.3,9.6,51.9-23.4,50-35.8s-26.4-79-30.6-87.9c-4.2-9-16.1-14.4-16.1-14.4c-11,19.5-16.1,47.4-16.5,49.5"/>
			</defs>
			<clipPath id="SVGID_74_">
				<use xlink:href="#SVGID_73_"  style="overflow:visible;"/>
			</clipPath>
			<g class="st65">
				<path class="st47" d="M1302.2,1431.5c0,0-5.6,34.4,30.4,38.8l6.8-11.7l-11.3-16C1328.1,1442.6,1311.9,1440.4,1302.2,1431.5"/>
			</g>
		</g>
		<g>
			<defs>
				<rect id="SVGID_75_" x="-731.3" y="-528.6" width="6142.6" height="4095.1"/>
			</defs>
			<clipPath id="SVGID_76_">
				<use xlink:href="#SVGID_75_"  style="overflow:visible;"/>
			</clipPath>
			<g class="st66">
				<path class="st42" d="M1259.2,1472.5c-1.3-1.4-3.3-1.8-5-0.9c-10.7,5.4-20.6,22.2-20.6,22.2c10.2,24.5,72.4,63.5,72.4,63.5
					c2.4-15.3,8.4-29.8,17.4-42.4C1288.8,1503.5,1265.6,1479.7,1259.2,1472.5"/>
				<path class="st42" d="M1345,1478.4c-1.2-0.6-2.7-0.1-3.3,1.2c-0.1,0.2-0.2,0.4-0.2,0.6c-1.3,6.5-5.6,22.5-18.2,34.8
					c0,0,22.4,11.8,33.5,27.6c0,0,14.8-25.8,16.5-39C1373.3,1503.5,1357.1,1484.1,1345,1478.4"/>
				<path class="st42" d="M1269.7,1796c-2.3-0.6-7.9,1.1-7.9,1.1s-66.6-222.4-69.4-230.3c-2.8-7.9-21.4-31.6-55.3-32.2
					c0,0-7.2,3.1-9.3,5.7c-2.1,2.5-14.4,22-14.4,24.8s113.5,277.7,118,281.7c4.5,4,264.7,89.3,264.7,89.3l29.4-25.4l-254.6-106.1
					C1270.8,1804.5,1271.9,1796.7,1269.7,1796"/>
				<path class="st40" d="M1247.6,1812.8c-1.1,2.3-2,4.7-2.5,7.2c-0.6,2.5-0.8,5-0.7,7.6c1.9-4.7,3.6-9.3,5.7-13.6
					c1-2.2,2.2-4.2,3.6-6.2c1.4-2,3-3.9,4.8-5.5c-2.5,0.8-4.7,2.2-6.5,4.1C1250.1,1808.3,1248.7,1810.4,1247.6,1812.8"/>
				<path class="st40" d="M1517.2,1714.9c-0.8,3.4-1.2,6.8-1.3,10.3c-0.1,3.5,0.5,6.9,1.6,10.2c0-3.4,0.1-6.7,0.5-10.1
					c0.5-3.3,1.1-6.6,1.8-9.8c0.8-3.2,1.7-6.5,2.6-9.7l2.9-9.7c-2,2.8-3.6,5.8-4.9,9C1519.1,1708.3,1518.1,1711.5,1517.2,1714.9"/>
				<path class="st46" d="M1525.4,1910.6l-29.4,25.4c0,0,15.8,5.4,17.5,6.2c1.8,0.9,41.2,62.4,41.5,64.3
					c0.3,1.9-25.7,25.1-25.7,25.1s-7.9,5.6-3.9,8.5c3.9,2.8,8.2-1.4,8.2-1.4l13.8-10.2c1.7,3.1,7.1,0,7.1,0s22.3-17.8,24.5-20.3
					c1.4-1.6,2.4-3.6,2.8-5.6c0,0,5.1-5.1,6.8-7.3c1.7-2.3,1.4-6.6,1.4-6.6s7.1-8.5,7.9-10.2c0.8-1.7-2.3-33.6-4.2-37.5
					c-1-2-68.3-30.5-68.3-30.5"/>
				<path class="st47" d="M1563,1988.1c-0.4,0.1-0.6,0.5-0.4,0.9c2.9,9,5.9,19.2,5.8,20.2c-0.7,1.4-13.5,12.3-21.4,18.9
					c-0.3,0.2-0.3,0.7-0.1,0.9c0,0,0,0,0,0c0.2,0.3,0.7,0.3,1,0.1c8-6.6,21.6-18,21.8-19.6c0.3-1.6-4.4-16.4-5.8-21
					C1563.7,1988.1,1563.4,1987.9,1563,1988.1"/>
				<path class="st47" d="M1574.2,1974.6c-0.4,0.1-0.6,0.5-0.5,0.8c0,0,0,0,0,0c2.9,9.7,7.6,25.6,7.5,27c-0.1,0.4,0.1,0.7,0.5,0.8
					h0.2c0.3,0,0.6-0.2,0.7-0.5c0.4-1.5-5.1-19.9-7.5-27.8C1574.9,1974.6,1574.5,1974.4,1574.2,1974.6"/>
				<path class="st47" d="M1585.1,1963.9c-0.4,0.1-0.6,0.4-0.5,0.8l4.8,24.3c0.1,0.3,0.3,0.6,0.7,0.6h0.1c0.4-0.1,0.6-0.4,0.5-0.8
					l-4.8-24.3C1585.8,1964.1,1585.5,1963.8,1585.1,1963.9"/>
				<path class="st40" d="M1327.3,1540c-2.2,0-3.9,1.8-3.9,3.9s1.8,3.9,3.9,3.9c2.2,0,3.9-1.8,3.9-3.9S1329.4,1540,1327.3,1540"/>
				<path class="st40" d="M1331.2,1604.1c-2.2,0-3.9,1.8-3.9,3.9s1.8,3.9,3.9,3.9c2.2,0,3.9-1.8,3.9-3.9
					S1333.4,1604.1,1331.2,1604.1"/>
				<path class="st40" d="M1335.2,1668.2c-2.2,0-3.9,1.8-3.9,3.9c0,2.2,1.8,3.9,3.9,3.9s3.9-1.8,3.9-3.9
					C1339.1,1669.9,1337.3,1668.2,1335.2,1668.2"/>
				<path class="st51" d="M1265.8,1382.5c-4.3-0.4-8,1.7-8.2,4.6c-0.3,2.9,2.9,5.7,7.2,6.1c4.3,0.4,8-1.6,8.2-4.6
					C1273.3,1385.7,1270.1,1383,1265.8,1382.5"/>
				<path class="st51" d="M1302.9,1366.7c-6.5,0-11.7,3.2-11.7,7.1c0,3.9,5.3,7,11.7,7c6.5,0,11.7-3.2,11.7-7
					C1314.6,1369.8,1309.3,1366.7,1302.9,1366.7"/>
				<path class="st51" d="M1365.7,1356.2c-4.8,2.5-7.6,6.8-6.1,9.7s6.6,3.3,11.4,0.8c4.9-2.5,7.6-6.8,6.1-9.7
					S1370.6,1353.7,1365.7,1356.2"/>
				<path d="M1357.6,1366.5c-11-6-20.3-24.2-20.4-24.4c-0.2-0.3-0.6-0.5-0.9-0.3c-0.3,0.2-0.5,0.6-0.3,0.9c0.4,0.8,9.6,18.7,21,24.9
					c1.1,0.6,1.6,2,1.2,3.2l-3.2,8.6c-0.1,0.4,0,0.7,0.4,0.9c0,0,0,0,0,0c0.1,0,0.2,0,0.2,0c0.3,0,0.5-0.2,0.6-0.4l3.2-8.6
					C1360.1,1369.5,1359.4,1367.4,1357.6,1366.5"/>
				<path d="M1351.7,1404.3c-12.6,0.5-14.4-8.8-14.4-9.2c-0.1-0.3-0.5-0.5-0.9-0.4c-0.2,0.1-0.4,0.3-0.4,0.6
					c0,0.1,1.9,10.4,14.8,10.4h1.1c0.4,0,0.7-0.3,0.7-0.7c0-0.4-0.3-0.7-0.7-0.7C1351.8,1404.4,1351.7,1404.4,1351.7,1404.3"/>
				<path class="st11" d="M1299.2,1346.9l2.1,5.6c10.2-6.3,25.2-3.8,25.2-3.8l-1.3-3.8C1316.6,1342.8,1307.5,1343.5,1299.2,1346.9"
					/>
				<path class="st11" d="M1347.7,1341.4l1,3.2c0,0,5.9-5.9,12.9-7.6l-1.2-4.5C1360.4,1332.6,1352.3,1335.2,1347.7,1341.4"/>
				<path d="M1308.1,1361.5c8.3-4.3,21-2.2,21-2.2C1315.7,1349.4,1308.1,1361.5,1308.1,1361.5"/>
				<path d="M1350.2,1354c3.2-6.3,10.5-8.3,10.5-8.3C1349.5,1342.5,1350.2,1354,1350.2,1354"/>
				<path d="M1321,1356.7c-2.8,0-5,2.2-5,5c0,2.8,2.2,5,5,5c2.8,0,5-2.2,5-5C1326,1359,1323.7,1356.7,1321,1356.7L1321,1356.7"/>
				<path d="M1356.4,1347.5c-2.8,0-5,2.2-5,5s2.2,5,5,5c2.8,0,5-2.2,5-5S1359.1,1347.5,1356.4,1347.5L1356.4,1347.5"/>
				<path class="st42" d="M1285.1,1410.4c-12-16.4-23.6-41.3-30.5-79.1l-6.8,5.7l-6.2,6.3c0,0,13.1,64.9,59.7,94.9
					c15.9,10.4,35.8,12.9,53.8,6.7c1.3-0.4,2.6-0.9,3.8-1.5l-14.5-0.8C1320.8,1441.3,1299,1429.5,1285.1,1410.4"/>
				<g class="st53">
					<g>
						<defs>
							<rect id="SVGID_77_" x="1221.3" y="1296.5" width="84.2" height="86.7"/>
						</defs>
						<clipPath id="SVGID_78_">
							<use xlink:href="#SVGID_77_"  style="overflow:visible;"/>
						</clipPath>
						<g class="st67">
							<path class="st11" d="M1221.3,1371.8l8.4,11.4c9.2-38.6,75.9-86.7,75.9-86.7C1235.3,1333.2,1221.3,1371.8,1221.3,1371.8"/>
						</g>
					</g>
				</g>
				<path class="st40" d="M1249.8,1851.7l-8.9-3.3l-4.4-1.6c-1.3-0.5-2.8-1-4.1-1.5l0,0c0,0,0.1,0.2,0,0c0,0-0.1-0.1-0.2-0.1h-0.1
					h-0.1h0.1l0,0h0.2c-0.1-0.1-0.1-0.2-0.2-0.3c-0.2-0.3-0.4-0.6-0.5-0.9c-0.4-0.7-0.7-1.3-1.1-2c-0.7-1.4-1.3-2.8-2-4.3
					c-1.3-2.9-2.6-5.7-3.9-8.6c-5.1-11.6-10.1-23.2-15-34.8l-29.7-69.9l-15-34.7c-5.1-11.6-10.1-23.2-15.3-34.7
					c8.8,23.7,18,47.4,27.4,70.9s19.1,46.9,28.9,70.2c5,11.6,10,23.3,15.2,34.8c1.3,2.9,2.6,5.8,4,8.6c0.7,1.4,1.4,2.9,2.1,4.3
					c0.4,0.7,0.7,1.4,1.2,2.2c0.2,0.4,0.4,0.7,0.6,1.1c0.1,0.2,0.3,0.4,0.4,0.6c0.1,0.2,0.3,0.3,0.4,0.5c0.1,0.1,0.3,0.2,0.4,0.3
					l0.2,0.1h0.1c1.6,0.6,3.1,1.1,4.6,1.7l4.5,1.5l9,3c24,8.1,48.1,15.9,72.3,23.3c-11.8-4.6-23.7-8.9-35.6-13.3L1249.8,1851.7z"/>
				<path class="st40" d="M1232.4,1845.3C1232.5,1845.5,1232.4,1845.3,1232.4,1845.3L1232.4,1845.3h-0.2H1232.4"/>
				<polygon class="st47" points="1496.1,1936 1504.8,1939 1528.2,1911.8 1525.4,1910.6 				"/>
				<path class="st68" d="M1641,2342.1v486.3c0,25.4,69.9,46.1,156,46.1c86.2,0,156-20.6,156-46.1v-486.3H1641z"/>
			</g>
		</g>
		<g>
			<defs>
				<path id="SVGID_79_" d="M1641,2342.1v486.3c0,25.4,69.9,46.1,156,46.1c86.2,0,156-20.6,156-46.1v-486.3H1641z"/>
			</defs>
			<clipPath id="SVGID_80_">
				<use xlink:href="#SVGID_79_"  style="overflow:visible;"/>
			</clipPath>
			<g class="st69">
				<path class="st13" d="M1797,2826.6c-86.2,0-156-20.6-156-46.1v117.1h312v-117.1C1953,2806,1883.2,2826.6,1797,2826.6"/>
				<g class="st15">
					<g>
						<defs>
							<rect id="SVGID_81_" x="1604.6" y="2342.1" width="427.5" height="560.7"/>
						</defs>
						<use xlink:href="#SVGID_81_"  style="overflow:visible;fill:#993333;"/>
						<clipPath id="SVGID_82_">
							<use xlink:href="#SVGID_81_"  style="overflow:visible;"/>
						</clipPath>
						<g class="st70">
							<path class="st13" d="M1641,2828.4l-36.4,58.4l379.7,15.9l47.7-269.8l-79-290.9C1953.1,2342.1,1964.1,2828.4,1641,2828.4"/>
						</g>
					</g>
				</g>
			</g>
		</g>
		<g>
			<defs>
				<rect id="SVGID_83_" x="-731.3" y="-528.6" width="6142.6" height="4095.1"/>
			</defs>
			<clipPath id="SVGID_84_">
				<use xlink:href="#SVGID_83_"  style="overflow:visible;"/>
			</clipPath>
			<g class="st71">
				<path class="st72" d="M1641,2345.7l-0.3,30.7c0,0,6.6-8,8.2,11.7s10.1,17.4,14.1,8.4s4.6,3.4,4,11.3s-6.2,44.4,23.2,33.9
					c18.7-6.7,28.5,4.2,33.3,15.7c2.1,5,3.3,10.3,3.6,15.8c1.1,15.8,0.6,28.9,1.2,33.8c1.7,14.1,15.6,16.7,18.1-19.8
					c2.1-30.5,10.2-15.3,9.6-2.8s16.4,15.8,17.5-13.6c1.1-29.4,13-37.9,26.6-33.4c13.6,4.5,27.7,6.1,32.8-9.1
					c5.1-15.2,22.6-28.2,37.9-16.9c15.3,11.3,0.6,51.5,15.8,51.5c15.3,0-2.3-33.9,2.8-46.9c5.1-13,15.8-12.4,15.3,1.7
					c-0.6,14.1-12.5,71.3,3.4,70.7c13.2-0.5,10.8-49.4,9.5-79.2c0,0-2-25.4,5.4-14.3c4.8,7.4,8.8,8.6,12.3-2.1
					c4.5-13.6,3.9-10,10.7-5s6.8-46.1,6.8-46.1h-312.1C1640.7,2343,1640.8,2344.4,1641,2345.7"/>
				<path class="st73" d="M1797,2296c-86.2,0-156,20.6-156,46.1c0,25.4,69.9,46.1,156,46.1s156-20.6,156-46.1
					C1953,2316.6,1883.2,2296,1797,2296"/>
				<path class="st19" d="M1926,2329.2c-6.2-3.8-15.6-8.3-29.6-12.5c-27.2-8.2-62.5-12.8-99.4-12.8s-72.2,4.5-99.4,12.8
					c-14.6,4.4-24.3,9.2-30.5,13.1c-4.2,2.7-5.4,8.4-2.7,12.6c0.7,1.1,1.6,2,2.7,2.7c6.2,3.9,15.9,8.7,30.5,13.1
					c27.2,8.2,62.5,12.8,99.4,12.8s72.2-4.5,99.4-12.8c13.9-4.2,23.4-8.7,29.6-12.5c4.5-2.8,5.9-8.8,3.1-13.4
					C1928.3,2331.1,1927.2,2330,1926,2329.2"/>
				<path class="st72" d="M1732.3,2549.7c-6.4,0-11.6,5.2-11.6,11.6c0,6.4,5.2,11.6,11.6,11.6c6.4,0,11.6-5.2,11.6-11.6
					C1743.9,2554.9,1738.7,2549.7,1732.3,2549.7"/>
				<path class="st72" d="M1857.1,2676.3c-6.4,0-11.6,5.2-11.6,11.6s5.2,11.6,11.6,11.6c6.4,0,11.6-5.2,11.6-11.6
					C1868.7,2681.5,1863.5,2676.3,1857.1,2676.3L1857.1,2676.3"/>
				<path class="st72" d="M1826.1,2463.5c-10.7,0-19.4,8.7-19.4,19.4c0,10.7,8.7,19.4,19.4,19.4c10.7,0,19.4-8.7,19.4-19.4
					C1845.5,2472.2,1836.8,2463.5,1826.1,2463.5L1826.1,2463.5"/>
				<path class="st72" d="M1720.7,2743c-10.7,0-19.4,8.7-19.4,19.4c0,10.7,8.7,19.4,19.4,19.4c10.7,0,19.4-8.7,19.4-19.4
					c0,0,0,0,0,0C1740.1,2751.7,1731.4,2743,1720.7,2743C1720.7,2743,1720.7,2743,1720.7,2743"/>
				<path class="st72" d="M1909.4,2508.5c-4,0-7.2,3.2-7.2,7.2c0,4,3.2,7.2,7.2,7.2c4,0,7.2-3.2,7.2-7.2c0,0,0,0,0,0
					C1916.6,2511.7,1913.4,2508.5,1909.4,2508.5"/>
				<path class="st72" d="M1911.3,2735.8c-4,0-7.2,3.2-7.2,7.2s3.2,7.2,7.2,7.2c4,0,7.2-3.2,7.2-7.2l0,0
					C1918.5,2739.1,1915.2,2735.8,1911.3,2735.8"/>
				<path class="st72" d="M1750.9,2666.9c-4,0-7.2,3.2-7.2,7.2s3.2,7.2,7.2,7.2c4,0,7.2-3.2,7.2-7.2l0,0
					C1758.1,2670.2,1754.9,2666.9,1750.9,2666.9"/>
				<path class="st14" d="M1859.7,693.7c-71.4-34.7-127.6-45.9-181.6-42.9c-30.3,1.7-54.8-18.5-54.8-18.5
					c3.3,10.5,26.1,70.6,76.1,60.1c50.1-10.5,74-0.3,77.2,8.8c2.4,6.7,0,17.3,9.3,18.4c9.6,1.1,16.1-15.8,21-9.3
					c4.9,6.5-20.1,30.6-3.7,34c16.4,3.4,4.6-30.9,17.3-34.3c12.7-3.4,22.9,3.1,26.6,10.2c3.7,7.1,11.7,6.8,18.2,2.8
					c6.5-4,3.7,18.8,8.3,23.2c4.6,4.3,12-2.2,15.4-7.9c3.4-5.7,7.4-11.3,10.2-8.5c2.8,2.8-3.7,12-9.9,20.7c-6.2,8.6-0.6,19.1,6.5,4
					c7.1-15.1,8.6-13.6,8.6-13.6c12.4-2.2-23.2,42.9-6.5,47.3c16.7,4.3,11.1-48.2,22.2-46.3c11.1,1.9,2.5,24.7,27.2,18.2
					c24.7-6.5,39.5,7.7,60.5,26.3c21,18.5,40.8-22.2,45.7-8.6c4.9,13.6-27.2,65.5-6.2,66.7c21,1.2,16.1-76.6,32.1-68
					c16.1,8.6,35.4-40,35.4-40C2091.2,769.2,1931.2,728.3,1859.7,693.7"/>
				<path class="st74" d="M3002.5,649.8l28.4-43.1l-63.2-67.5l-42.3,27.9c-18.1-14.3-38.6-25.1-60.7-32l-5.8-51.7l-95.1-0.8
					l-10.3,49c-19.8,2.9-56.2,18.8-56.2,18.8l-42.7-32.1l-70.3,61.3l27.6,49c-14.7,19.2-26.9,53-26.9,53l-52.6,7.2l-5.9,93.8
					l55.5,12.6c-0.3,27.7,20.6,53.4,20.6,53.4l-34.8,46.8l62.3,68.9l49.7-27.1c32.9,25.7,50,27,50,27l10.9,53l85.9,2.7l18.2-51.8
					c20.8,1.7,52.1-15.5,52.1-15.5l45.9,30.2l67-65.5l-24.3-47.9c19.3-23.2,27-50,27-50l51.6-11.8l6-87.8l-51.8-18.2
					c-4.3-26.7-15.5-52.1-15.5-52.1 M2875.8,806c-28.7,43.6-87.3,55.7-130.9,27c-43.6-28.7-55.7-87.3-27-130.9s87.3-55.7,130.9-27
					c0,0,0,0,0.1,0C2892.4,703.8,2904.5,762.4,2875.8,806"/>
				<path class="st75" d="M3402.4,554.1l18-27.4l-40.1-42.9l-26.9,17.7c-11.5-9.1-24.5-16-38.5-20.3l-3.7-32.8l-60.4-0.5l-6.6,31.1
					c-12.6,1.8-35.7,11.9-35.7,11.9l-27.1-20.4l-44.6,38.9l17.5,31.1c-9.3,12.2-17.1,33.7-17.1,33.7l-33.4,4.6l-3.8,59.5l35.2,8
					c-0.2,17.6,13.1,33.9,13.1,33.9l-22.1,29.7l39.5,43.7l31.5-17.2c20.9,16.3,31.7,17.1,31.7,17.1l6.9,33.7l54.5,1.7l11.5-32.9
					c13.2,1.1,33.1-9.9,33.1-9.9l29.1,19.2L3407,724l-15.4-30.4c7.6-9.4,13.4-20.2,17.1-31.7l32.8-7.5l3.8-55.7l-32.9-11.4
					C3410.3,575.8,3407,564.7,3402.4,554.1 M3322,653.2c-18.2,27.7-55.4,35.3-83.1,17.1c-27.7-18.2-35.3-55.4-17.1-83.1
					c18.2-27.7,55.4-35.3,83.1-17.1c0,0,0,0,0,0C3332.6,588.4,3340.2,625.6,3322,653.2"/>
				<path class="st18" d="M3126.3,305.8l13.1-19.9l-29.2-31.3l-19.6,12.9c-8.4-6.6-17.9-11.6-28.1-14.8l-2.7-23.9l-44-0.4l-4.8,22.7
					c-9.2,1.3-26,8.7-26,8.7l-19.7-14.8l-32.6,28.4l12.7,22.7c-6.8,8.9-12.5,24.5-12.5,24.5l-24.3,3.3l-2.7,43.4l25.7,5.8
					c-0.1,12.8,9.5,24.7,9.5,24.7l-16.1,21.7l28.9,31.9l23-12.5c15.2,11.9,23.2,12.5,23.2,12.5l5.1,24.5l39.8,1.3l8.4-24
					c9.6,0.8,24.1-7.2,24.1-7.2l21.2,14l31-30.3l-11.3-22.2c5.5-6.9,9.8-14.7,12.5-23.2l23.9-5.5l2.8-40.6l-24-8.4
					C3132,321.6,3129.6,313.5,3126.3,305.8 M3067.6,378.1c-13.3,20.2-40.4,25.7-60.6,12.5s-25.7-40.4-12.5-60.6
					c13.3-20.2,40.4-25.7,60.6-12.5C3075.3,330.8,3080.9,357.9,3067.6,378.1C3067.6,378.1,3067.6,378.1,3067.6,378.1"/>
				<polygon class="st76" points="1289.3,2985.7 1496,3058.1 1766.2,3008.3 1631.1,2951 				"/>
				<polygon class="st19" points="1496,3080.8 1766.2,3024.9 1766.2,3008.3 1496,3058.1 				"/>
				<polygon class="st19" points="1289.3,3002.3 1496,3080.8 1496,3058.1 1289.3,2985.7 				"/>
				<path class="st14" d="M1532.2,2637.4L1384.7,2973c-1.5,1.5-2.4,3.6-2.5,5.7c0,17.1,65.7,40.6,146.8,40.6s146.8-23.6,146.8-40.6
					c-0.1-2-0.9-4-2.3-5.5L1532.2,2637.4z"/>
				<path class="st72" d="M1528.9,2849.2c-32.7,0-62.9-2.2-87.2-6l-31.8,72.3c26.8,7.5,71.1,18.9,119,18.9
					c50.7,0,94.2-11.3,120.6-19.5l-30.9-72.1C1593.8,2846.8,1562.7,2849.2,1528.9,2849.2"/>
				<path class="st14" d="M1528.9,2770c-19.1,0-37.4-0.8-54.1-2.2l-33.1,75.4c0,0,97.1,29.5,176.9-0.4l-31.7-75.3
					C1569.1,2769.1,1549.5,2770,1528.9,2770"/>
				<path class="st72" d="M1530.1,2693c-6.8,0-21.2-2.5-21.2-2.5l-34,77.4c0,0,58.1,16,112-0.3l-32.5-77.2
					C1554.4,2690.3,1538.8,2693,1530.1,2693"/>
				<polygon class="st19" points="2508.5,2794.3 2733.7,2835.8 2905.9,2775.4 2621.1,2746.5 				"/>
				<polygon class="st13" points="2508.5,2808.1 2733.7,2854.7 2733.7,2835.8 2508.5,2794.3 				"/>
				<polygon class="st13" points="2733.7,2854.7 2905.9,2789.3 2905.9,2775.4 2733.7,2835.8 				"/>
				<path class="st72" d="M2703.5,2485.1L2585.7,2765c-1.2,1.2-1.8,2.9-1.9,4.6c0,14.2,54.8,33.8,122.3,33.8s122.3-19.7,122.3-33.8
					c-0.1-1.8-0.8-3.5-2.1-4.7L2703.5,2485.1z"/>
				<path class="st14" d="M2706.2,2661.7c-28.1,0-54-2-74.7-5.3l-25.8,60.1c22,6.8,58.3,16.2,100.5,16.2c39.9,0,76.9-9.5,99.2-15.8
					l-26.5-60.2C2754.8,2660.1,2730.5,2661.8,2706.2,2661.7"/>
				<path class="st72" d="M2706.2,2595.6c-17.2,0-33.5-0.7-48.3-2.1l-26.4,62.8c66.5,24.9,147.4,0.3,147.4,0.3l-27.6-62.8
					C2737.4,2595,2722.2,2595.6,2706.2,2595.6"/>
				<path class="st14" d="M2705.2,2531.5c-7.2,0-20.3-2.3-20.3-2.3l-27.1,64.3c45,13.6,93.4,0.3,93.4,0.3l-28.3-64.5
					C2722.9,2529.3,2710.9,2531.4,2705.2,2531.5"/>
				<path class="st14" d="M3655.2,595.5c-8.1,0-14.7,6.6-14.7,14.7c0,8.1,6.6,14.7,14.7,14.7c8.1,0,14.7-6.6,14.7-14.7v0
					C3669.9,602,3663.3,595.5,3655.2,595.5"/>
				<path class="st14" d="M3721.6,595.5c-8.1,0-14.7,6.6-14.7,14.7c0,8.1,6.6,14.7,14.7,14.7c8.1,0,14.7-6.6,14.7-14.7v0
					C3736.3,602,3729.7,595.5,3721.6,595.5"/>
				<path class="st14" d="M3788,595.5c-8.1,0-14.7,6.6-14.7,14.7c0,8.1,6.6,14.7,14.7,14.7c8.1,0,14.7-6.6,14.7-14.7v0
					C3802.7,602,3796.1,595.5,3788,595.5"/>
				<path class="st14" d="M3854.4,595.5c-8.1,0-14.7,6.6-14.6,14.7c0,8.1,6.6,14.7,14.7,14.6c8.1,0,14.6-6.6,14.6-14.7
					C3869.1,602,3862.5,595.5,3854.4,595.5"/>
				<path class="st14" d="M3655.2,655.1c-8.1,0-14.7,6.6-14.7,14.7c0,8.1,6.6,14.7,14.7,14.7c8.1,0,14.7-6.6,14.7-14.7v0
					C3669.9,661.7,3663.3,655.1,3655.2,655.1"/>
				<path class="st14" d="M3721.6,655.1c-8.1,0-14.7,6.6-14.7,14.7c0,8.1,6.6,14.7,14.7,14.7c8.1,0,14.7-6.6,14.7-14.7v0
					C3736.3,661.7,3729.7,655.1,3721.6,655.1"/>
				<path class="st14" d="M3788,655.1c-8.1,0-14.7,6.6-14.7,14.7c0,8.1,6.6,14.7,14.7,14.7c8.1,0,14.7-6.6,14.7-14.7v0
					C3802.7,661.7,3796.1,655.1,3788,655.1"/>
				<path class="st14" d="M3854.4,655.1c-8.1,0-14.7,6.6-14.6,14.7c0,8.1,6.6,14.7,14.7,14.6c8.1,0,14.6-6.6,14.6-14.7
					C3869.1,661.7,3862.5,655.1,3854.4,655.1"/>
				<path class="st14" d="M3655.2,714.8c-8.1,0-14.7,6.6-14.7,14.7c0,8.1,6.6,14.7,14.7,14.7c8.1,0,14.7-6.6,14.7-14.7v0
					C3669.9,721.4,3663.3,714.8,3655.2,714.8"/>
				<path class="st14" d="M3721.6,714.8c-8.1,0-14.7,6.6-14.7,14.7c0,8.1,6.6,14.7,14.7,14.7c8.1,0,14.7-6.6,14.7-14.7v0
					C3736.3,721.4,3729.7,714.8,3721.6,714.8"/>
				<path class="st14" d="M3788,714.8c-8.1,0-14.7,6.6-14.7,14.7c0,8.1,6.6,14.7,14.7,14.7c8.1,0,14.7-6.6,14.7-14.7v0
					C3802.7,721.4,3796.1,714.8,3788,714.8"/>
				<path class="st14" d="M3854.4,714.8c-8.1,0-14.7,6.6-14.6,14.7c0,8.1,6.6,14.7,14.7,14.6c8.1,0,14.6-6.6,14.6-14.7
					C3869.1,721.4,3862.5,714.8,3854.4,714.8"/>
				<path class="st14" d="M3655.2,774.5c-8.1,0-14.7,6.6-14.7,14.7c0,8.1,6.6,14.7,14.7,14.7c8.1,0,14.7-6.6,14.7-14.7v0
					C3669.9,781.1,3663.3,774.5,3655.2,774.5"/>
				<path class="st14" d="M3721.6,774.5c-8.1,0-14.7,6.6-14.7,14.7c0,8.1,6.6,14.7,14.7,14.7c8.1,0,14.7-6.6,14.7-14.7v0
					C3736.3,781.1,3729.7,774.5,3721.6,774.5"/>
				<path class="st14" d="M3788,774.5c-8.1,0-14.7,6.6-14.7,14.7c0,8.1,6.6,14.7,14.7,14.7c8.1,0,14.7-6.6,14.7-14.7v0
					C3802.7,781.1,3796.1,774.5,3788,774.5"/>
				<path class="st14" d="M3854.4,774.5c-8.1,0-14.7,6.6-14.6,14.7c0,8.1,6.6,14.7,14.7,14.6c8.1,0,14.6-6.6,14.6-14.7
					C3869.1,781.1,3862.5,774.5,3854.4,774.5"/>
				<path class="st18" d="M768.9,2578.9c-7.1,0-12.8,5.7-12.8,12.8s5.7,12.8,12.8,12.8c7.1,0,12.8-5.7,12.8-12.8c0,0,0,0,0,0
					C781.7,2584.6,776,2578.9,768.9,2578.9C768.9,2578.9,768.9,2578.9,768.9,2578.9"/>
				<path class="st18" d="M826.8,2578.9c-7.1,0-12.8,5.7-12.8,12.8s5.7,12.8,12.8,12.8c7.1,0,12.8-5.7,12.8-12.8c0,0,0,0,0,0
					C839.5,2584.7,833.8,2578.9,826.8,2578.9"/>
				<path class="st18" d="M884.6,2578.9c-7.1,0-12.8,5.7-12.8,12.8s5.7,12.8,12.8,12.8c7.1,0,12.8-5.7,12.8-12.8c0,0,0,0,0,0
					C897.4,2584.6,891.7,2578.9,884.6,2578.9C884.6,2578.9,884.6,2578.9,884.6,2578.9"/>
				<path class="st18" d="M942.5,2578.9c-7.1,0-12.8,5.7-12.8,12.8s5.7,12.8,12.8,12.8c7.1,0,12.8-5.7,12.8-12.8c0,0,0,0,0,0
					C955.2,2584.7,949.5,2578.9,942.5,2578.9"/>
				<path class="st18" d="M768.9,2630.9c-7.1,0-12.8,5.7-12.8,12.8s5.7,12.8,12.8,12.8c7.1,0,12.8-5.7,12.8-12.8c0,0,0,0,0,0
					C781.7,2636.7,776,2630.9,768.9,2630.9C768.9,2630.9,768.9,2630.9,768.9,2630.9"/>
				<path class="st18" d="M826.8,2630.9c-7.1,0-12.8,5.7-12.8,12.8c0,7.1,5.7,12.8,12.8,12.8c7.1,0,12.8-5.7,12.8-12.8c0,0,0,0,0,0
					C839.5,2636.7,833.8,2630.9,826.8,2630.9"/>
				<path class="st18" d="M884.6,2630.9c-7.1,0-12.8,5.7-12.8,12.8s5.7,12.8,12.8,12.8c7.1,0,12.8-5.7,12.8-12.8c0,0,0,0,0,0
					C897.4,2636.7,891.7,2630.9,884.6,2630.9C884.6,2630.9,884.6,2630.9,884.6,2630.9"/>
				<path class="st18" d="M942.5,2630.9c-7.1,0-12.8,5.8-12.8,12.8c0,7.1,5.8,12.8,12.8,12.8c7,0,12.8-5.7,12.8-12.8
					C955.3,2636.7,949.6,2631,942.5,2630.9"/>
				<path class="st18" d="M768.9,2683c-7.1,0-12.8,5.7-12.8,12.8s5.7,12.8,12.8,12.8c7.1,0,12.8-5.7,12.8-12.8l0,0
					C781.7,2688.7,776,2683,768.9,2683C768.9,2683,768.9,2683,768.9,2683"/>
				<path class="st18" d="M826.8,2683c-7.1,0-12.8,5.7-12.8,12.8s5.7,12.8,12.8,12.8c7.1,0,12.8-5.7,12.8-12.8c0,0,0,0,0,0
					C839.5,2688.7,833.8,2683,826.8,2683"/>
				<path class="st18" d="M884.6,2683c-7.1,0-12.8,5.7-12.8,12.8s5.7,12.8,12.8,12.8c7.1,0,12.8-5.7,12.8-12.8l0,0
					C897.4,2688.7,891.7,2683,884.6,2683C884.6,2683,884.6,2683,884.6,2683"/>
				<path class="st18" d="M942.5,2683c-7.1,0-12.8,5.7-12.8,12.8s5.7,12.8,12.8,12.8c7.1,0,12.8-5.7,12.8-12.8c0,0,0,0,0,0
					C955.2,2688.7,949.5,2683,942.5,2683"/>
				<path class="st18" d="M768.9,2735c-7.1,0-12.8,5.7-12.8,12.8s5.7,12.8,12.8,12.8c7.1,0,12.8-5.7,12.8-12.8S776,2735,768.9,2735
					L768.9,2735"/>
				<path class="st18" d="M826.8,2735c-7.1,0-12.8,5.7-12.8,12.8s5.7,12.8,12.8,12.8c7.1,0,12.8-5.7,12.8-12.8c0,0,0,0,0,0
					C839.5,2740.7,833.8,2735,826.8,2735"/>
				<path class="st18" d="M884.6,2735c-7.1,0-12.8,5.7-12.8,12.8s5.7,12.8,12.8,12.8c7.1,0,12.8-5.7,12.8-12.8
					S891.7,2735,884.6,2735L884.6,2735"/>
				<path class="st18" d="M942.5,2735c-7.1,0-12.8,5.7-12.8,12.8s5.7,12.8,12.8,12.8c7.1,0,12.8-5.7,12.8-12.8c0,0,0,0,0,0
					C955.2,2740.7,949.5,2735,942.5,2735"/>
				<path class="st73" d="M4175.8,1852.6c-7.1,0-12.8,5.7-12.8,12.8s5.7,12.8,12.8,12.8c7.1,0,12.8-5.7,12.8-12.8c0,0,0,0,0,0
					C4188.6,1858.4,4182.9,1852.6,4175.8,1852.6"/>
				<path class="st73" d="M4233.6,1852.6c-7.1,0-12.8,5.7-12.8,12.8c0,7.1,5.7,12.8,12.8,12.8c7.1,0,12.8-5.7,12.8-12.8c0,0,0,0,0,0
					C4246.4,1858.4,4240.7,1852.6,4233.6,1852.6"/>
				<path class="st73" d="M4291.5,1852.6c-7.1,0-12.8,5.7-12.8,12.8s5.7,12.8,12.8,12.8c7.1,0,12.8-5.7,12.8-12.8
					S4298.5,1852.6,4291.5,1852.6L4291.5,1852.6"/>
				<path class="st73" d="M4349.3,1852.6c-7.1,0-12.8,5.7-12.8,12.8s5.7,12.8,12.8,12.8c7.1,0,12.8-5.7,12.8-12.8c0,0,0,0,0,0
					C4362.1,1858.4,4356.4,1852.6,4349.3,1852.6"/>
				<path class="st73" d="M4175.8,1904.6c-7.1,0-12.8,5.7-12.8,12.8s5.7,12.8,12.8,12.8c7.1,0,12.8-5.7,12.8-12.8l0,0
					C4188.6,1910.4,4182.9,1904.6,4175.8,1904.6"/>
				<path class="st73" d="M4233.6,1904.6c-7.1,0-12.8,5.7-12.8,12.8s5.7,12.8,12.8,12.8c7.1,0,12.8-5.7,12.8-12.8l0,0
					C4246.4,1910.4,4240.7,1904.6,4233.6,1904.6"/>
				<path class="st73" d="M4291.5,1904.6c-7.1,0-12.8,5.7-12.8,12.8c0,7.1,5.7,12.8,12.8,12.8c7.1,0,12.8-5.7,12.8-12.8
					C4304.3,1910.4,4298.6,1904.6,4291.5,1904.6C4291.5,1904.6,4291.5,1904.6,4291.5,1904.6"/>
				<path class="st73" d="M4349.3,1904.6c-7.1,0-12.8,5.7-12.8,12.8s5.7,12.8,12.8,12.8s12.8-5.7,12.8-12.8l0,0
					C4362.1,1910.4,4356.4,1904.7,4349.3,1904.6"/>
				<path class="st73" d="M4175.8,1956.7c-7.1,0-12.8,5.7-12.8,12.8s5.7,12.8,12.8,12.8c7.1,0,12.8-5.7,12.8-12.8c0,0,0,0,0,0
					C4188.6,1962.4,4182.9,1956.7,4175.8,1956.7"/>
				<path class="st73" d="M4233.6,1956.7c-7.1,0-12.8,5.7-12.8,12.8c0,7.1,5.7,12.8,12.8,12.8c7.1,0,12.8-5.7,12.8-12.8c0,0,0,0,0,0
					C4246.4,1962.4,4240.7,1956.7,4233.6,1956.7"/>
				<path class="st73" d="M4291.5,1956.7c-7.1,0-12.8,5.7-12.8,12.8c0,7.1,5.7,12.8,12.8,12.8c7.1,0,12.8-5.7,12.8-12.8c0,0,0,0,0,0
					C4304.3,1962.4,4298.6,1956.7,4291.5,1956.7C4291.5,1956.7,4291.5,1956.7,4291.5,1956.7"/>
				<path class="st73" d="M4349.3,1956.7c-7.1,0-12.8,5.7-12.8,12.8s5.7,12.8,12.8,12.8c7.1,0,12.8-5.7,12.8-12.8c0,0,0,0,0,0
					C4362.1,1962.4,4356.4,1956.7,4349.3,1956.7"/>
				<path class="st73" d="M4175.8,2008.7c-7.1,0-12.8,5.7-12.8,12.8s5.7,12.8,12.8,12.8c7.1,0,12.8-5.7,12.8-12.8c0,0,0,0,0,0
					C4188.6,2014.4,4182.9,2008.7,4175.8,2008.7"/>
				<path class="st73" d="M4233.6,2008.7c-7.1,0-12.8,5.7-12.8,12.8c0,7.1,5.7,12.8,12.8,12.8c7.1,0,12.8-5.7,12.8-12.8c0,0,0,0,0,0
					C4246.4,2014.4,4240.7,2008.7,4233.6,2008.7"/>
				<path class="st73" d="M4291.5,2008.7c-7.1,0-12.8,5.7-12.8,12.8c0,7.1,5.7,12.8,12.8,12.8c7.1,0,12.8-5.7,12.8-12.8c0,0,0,0,0,0
					C4304.3,2014.4,4298.6,2008.7,4291.5,2008.7C4291.5,2008.7,4291.5,2008.7,4291.5,2008.7"/>
				<path class="st73" d="M4349.3,2008.7c-7.1,0-12.8,5.7-12.8,12.8s5.7,12.8,12.8,12.8c7.1,0,12.8-5.7,12.8-12.8c0,0,0,0,0,0
					C4362.1,2014.4,4356.4,2008.7,4349.3,2008.7"/>
				<path class="st12" d="M374.7,364.7c-9.2,0-16.6,7.4-16.6,16.6c0,9.2,7.4,16.6,16.6,16.6c9.2,0,16.6-7.4,16.6-16.6c0,0,0,0,0,0
					C391.3,372.1,383.9,364.7,374.7,364.7"/>
				<path class="st12" d="M449.9,364.7c-9.2,0-16.6,7.4-16.6,16.6c0,9.2,7.4,16.6,16.6,16.6c9.2,0,16.6-7.4,16.6-16.6c0,0,0,0,0,0
					C466.5,372.1,459,364.7,449.9,364.7"/>
				<path class="st12" d="M525,364.7c-9.2,0-16.6,7.4-16.6,16.6c0,9.2,7.4,16.6,16.6,16.6c9.2,0,16.6-7.4,16.6-16.6c0,0,0,0,0,0
					C541.7,372.1,534.2,364.7,525,364.7C525,364.7,525,364.7,525,364.7"/>
				<path class="st12" d="M600.2,364.7c-9.2,0-16.6,7.4-16.6,16.6c0,9.2,7.4,16.6,16.6,16.6c9.2,0,16.6-7.4,16.6-16.6c0,0,0,0,0,0
					C616.8,372.1,609.4,364.7,600.2,364.7C600.2,364.7,600.2,364.7,600.2,364.7"/>
				<path class="st12" d="M374.7,432.2c-9.2,0-16.6,7.4-16.6,16.6c0,9.2,7.4,16.6,16.6,16.6s16.6-7.4,16.6-16.6v0
					C391.3,439.7,383.9,432.2,374.7,432.2"/>
				<path class="st12" d="M449.9,432.2c-9.2,0-16.6,7.4-16.6,16.6c0,9.2,7.4,16.6,16.6,16.6s16.6-7.4,16.6-16.6v0
					C466.5,439.7,459,432.2,449.9,432.2"/>
				<path class="st12" d="M525,432.2c-9.2,0-16.6,7.5-16.6,16.6c0,9.2,7.5,16.6,16.6,16.6c9.2,0,16.6-7.4,16.6-16.6
					C541.7,439.7,534.2,432.2,525,432.2C525,432.2,525,432.2,525,432.2"/>
				<path class="st12" d="M600.2,432.2c-9.2,0-16.6,7.5-16.6,16.6s7.5,16.6,16.6,16.6c9.2,0,16.6-7.4,16.6-16.6
					C616.8,439.7,609.4,432.2,600.2,432.2C600.2,432.2,600.2,432.2,600.2,432.2"/>
				<path class="st12" d="M374.7,499.8c-9.2,0-16.6,7.4-16.6,16.6s7.4,16.6,16.6,16.6s16.6-7.4,16.6-16.6v0
					C391.3,507.3,383.9,499.8,374.7,499.8"/>
				<path class="st12" d="M449.9,499.8c-9.2,0-16.6,7.4-16.6,16.6s7.4,16.6,16.6,16.6s16.6-7.4,16.6-16.6v0
					C466.5,507.3,459,499.8,449.9,499.8"/>
				<path class="st12" d="M525,499.8c-9.2,0-16.6,7.5-16.6,16.6c0,9.2,7.5,16.6,16.6,16.6c9.2,0,16.6-7.4,16.6-16.6
					C541.7,507.3,534.2,499.8,525,499.8C525,499.8,525,499.8,525,499.8"/>
				<path class="st12" d="M600.2,499.8c-9.2,0-16.6,7.5-16.6,16.6c0,9.2,7.5,16.6,16.6,16.6c9.2,0,16.6-7.4,16.6-16.6
					C616.8,507.3,609.4,499.8,600.2,499.8C600.2,499.8,600.2,499.8,600.2,499.8"/>
				<path class="st12" d="M374.7,567.4c-9.2,0-16.6,7.4-16.6,16.6s7.4,16.6,16.6,16.6s16.6-7.4,16.6-16.6v0
					C391.3,574.9,383.9,567.4,374.7,567.4"/>
				<path class="st12" d="M449.9,567.4c-9.2,0-16.6,7.4-16.6,16.6s7.4,16.6,16.6,16.6s16.6-7.4,16.6-16.6v0
					C466.5,574.9,459,567.4,449.9,567.4"/>
				<path class="st12" d="M525,567.4c-9.2,0-16.6,7.5-16.6,16.6c0,9.2,7.5,16.6,16.6,16.6c9.2,0,16.6-7.4,16.6-16.6
					C541.7,574.9,534.2,567.4,525,567.4C525,567.4,525,567.4,525,567.4"/>
				<path class="st12" d="M600.2,567.4c-9.2,0-16.6,7.5-16.6,16.6s7.5,16.6,16.6,16.6c9.2,0,16.6-7.4,16.6-16.6
					C616.8,574.9,609.4,567.4,600.2,567.4C600.2,567.4,600.2,567.4,600.2,567.4"/>
				<path class="st14" d="M756.1,1776.2c-14.4,0-26,11.6-26,26s11.6,26,26,26c14.4,0,26-11.6,26-26v0
					C782.1,1787.8,770.5,1776.2,756.1,1776.2C756.1,1776.2,756.1,1776.2,756.1,1776.2"/>
				<path class="st14" d="M3802.7,1551c-27.5,0-49.9,22.3-49.9,49.9c0,27.5,22.3,49.9,49.9,49.9s49.9-22.3,49.9-49.9c0,0,0,0,0-0.1
					C3852.5,1573.3,3830.2,1551,3802.7,1551C3802.7,1551,3802.7,1551,3802.7,1551"/>
				<path class="st14" d="M4180.2,1182.9c-22.7,0-41.1,18.4-41.1,41.1s18.4,41.1,41.1,41.1c22.7,0,41.1-18.4,41.1-41.1
					S4202.8,1182.9,4180.2,1182.9L4180.2,1182.9"/>
				<path class="st14" d="M2593,154c-24.5,0-44.4,19.9-44.4,44.4c0,24.5,19.9,44.4,44.4,44.4c24.5,0,44.4-19.9,44.4-44.4
					C2637.4,174,2617.6,154.1,2593,154L2593,154"/>
				<path class="st77" d="M3539.4-56.1c-14.9,0-27,12.1-27,27c0,14.9,12.1,27,27,27c14.9,0,27-12.1,27-27
					C3566.4-44,3554.3-56.1,3539.4-56.1C3539.4-56.1,3539.4-56.1,3539.4-56.1"/>
				<path class="st14" d="M849.9,215.9c-14.9,0-27,12.1-27,27c0,14.9,12.1,27,27,27c14.9,0,27-12.1,27-27l0,0
					C877,228,864.9,215.9,849.9,215.9"/>
				<path class="st14" d="M221.8,897.4c-17,0-30.7,13.7-30.7,30.7c0,17,13.7,30.7,30.7,30.7c17,0,30.7-13.7,30.7-30.7
					S238.7,897.4,221.8,897.4C221.8,897.4,221.8,897.4,221.8,897.4"/>
				<path class="st14" d="M4468.4,1558.8c-11.3,0-20.5,9.2-20.5,20.5s9.2,20.5,20.5,20.5c11.3,0,20.5-9.2,20.5-20.5v0
					C4488.9,1568,4479.7,1558.8,4468.4,1558.8"/>
				<polygon class="st73" points="2011.1,44.3 1970.8,84.3 1930.5,124.3 1985.3,139.2 2040.1,154 2025.6,99.2 				"/>
				<polygon class="st73" points="2283.1,2601.6 2242.8,2641.7 2202.5,2681.7 2257.3,2696.5 2312.1,2711.4 2297.6,2656.5 				"/>
				<polygon class="st73" points="4346.1,765.8 4314,794.3 4281.9,822.9 4322.7,836.4 4363.4,849.9 4354.7,807.9 				"/>
				<polygon class="st73" points="616.8,1275.7 646.6,1304.1 676.5,1332.6 686.2,1292.5 695.9,1252.5 656.4,1264.1 				"/>
			</g>
		</g>
	</g>
</g>
</svg>
