<?xml version="1.0" encoding="utf-8"?>
<!-- Generator: Adobe Illustrator 23.0.5, SVG Export Plug-In . SVG Version: 6.00 Build 0)  -->
<svg version="1.1" id="Layer_1" xmlns="http://www.w3.org/2000/svg" xmlns:xlink="http://www.w3.org/1999/xlink" x="0px" y="0px"
	 viewBox="0 0 40 40" style="enable-background:new 0 0 40 40;" xml:space="preserve">
<g>
	<path d="M36.9,8.9H8.7c-1.2,0-2.2-1-2.2-2.2V6.2C6.6,5,7.5,4,8.7,4h28.2c1.2,0,2.2,1,2.2,2.2v0.5C39.1,7.9,38.1,8.9,36.9,8.9z"/>
</g>
<g>
	<path d="M36.9,20.3H3c-1.2,0-2.2-1-2.2-2.2v-0.5c0-1.2,1-2.2,2.2-2.2h33.9c1.2,0,2.2,1,2.2,2.2v0.5C39.1,19.3,38.1,20.3,36.9,20.3z
		"/>
</g>
<g>
	<path d="M36.9,31.7h-18c-1.2,0-2.2-1-2.2-2.2V29c0-1.2,1-2.2,2.2-2.2H37c1.2,0,2.2,1,2.2,2.2v0.5C39.1,30.7,38.1,31.7,36.9,31.7z"
		/>
</g>
</svg>
